Enclosed-Bold.sfdir
StartChar: uF1D83
Encoding: 990595 990595 1
Width: 1000
VWidth: 1000
Flags: MW
LayerCount: 2
Fore
SplineSet
334 490 m 1
 334 528 l 1
 353 528 l 1
 366 528 454 526 515 570 c 0
 523 576 524 576 534 576 c 1
 555 576 554 566 554 550 c 2
 554 116 l 1
 554 120 555 122 552 123 c 1
 550 124 680 125 672 125 c 1
 666 125 l 1
 666 87 l 1
 631 89 544 88 506 88 c 0
 468 88 378 89 343 87 c 1
 343 125 l 1
 337 125 l 1
 328 125 460 124 458 122 c 1
 456 120 456 119 456 116 c 1
 456 504 l 1
 403 491 363 490 353 490 c 1
 334 490 l 1
50 300 m 0
 50 584 236 760 501 760 c 0
 758 760 949 589 950 300 c 0
 950 21 769 -160 499 -160 c 0
 230 -160 50 24 50 300 c 0
112 299 m 0
 112 55 269 -97 498 -97 c 0
 724 -97 887 47 887 301 c 0
 887 547 729 697 502 697 c 0
 276 697 112 553 112 299 c 0
EndSplineSet
EndChar
StartChar: uF1D84
Encoding: 990596 990596 2
Width: 1000
Flags: MW
LayerCount: 2
Fore
SplineSet
295 87 m 1
 295 86 295 101 295 100 c 2
 295 117 293 119 304 128 c 2
 495 281 l 2
 562 336 571 384 571 434 c 0
 571 488 528 538 452 538 c 0
 431 538 407 536 387 530 c 0
 381 529 374 526 369 524 c 1
 371 522 376 522 378 520 c 0
 389 512 415 501 415 466 c 0
 415 426 379 409 352 409 c 0
 330 409 295 423 295 467 c 0
 295 487 301 505 311 520 c 0
 322 536 340 549 363 558 c 0
 394 570 434 576 477 576 c 0
 611 576 705 520 705 434 c 0
 705 364 673 331 579 278 c 1
 527 247 491 226 436 190 c 1
 540 190 l 2
 553 190 628 189 639 193 c 1
 655 197 663 249 666 262 c 1
 705 262 l 1
 682 87 l 1
 295 87 l 1
50 300 m 0
 50 584 236 760 501 760 c 0
 758 760 949 589 950 300 c 0
 950 21 769 -160 499 -160 c 0
 230 -160 50 24 50 300 c 0
112 299 m 0
 112 55 269 -97 498 -97 c 0
 724 -97 887 47 887 301 c 0
 887 547 729 697 502 697 c 0
 276 697 112 553 112 299 c 0
EndSplineSet
EndChar
StartChar: uF1D85
Encoding: 990597 990597 3
Width: 1000
VWidth: 1000
Flags: MW
LayerCount: 2
Fore
SplineSet
305 191 m 0
 305 230 330 252 366 252 c 0
 402 252 426 228 426 192 c 0
 426 160 410 142 385 132 c 1
 423 116 465 114 483 114 c 0
 593 114 572 205 572 223 c 0
 572 252 581 332 477 332 c 2
 438 332 l 2
 423 332 415 331 415 347 c 0
 415 350 414 359 422 360 c 0
 425 361 422 361 467 363 c 0
 505 365 524 382 534 396 c 1
 559 426 558 468 558 473 c 0
 558 487 570 542 484 542 c 0
 464 542 440 540 416 531 c 0
 410 528 402 525 397 521 c 1
 398 520 442 510 442 464 c 0
 442 434 421 409 384 409 c 0
 354 409 329 432 329 466 c 0
 329 503 350 533 388 554 c 0
 415 566 450 575 490 575 c 0
 618 575 671 528 671 471 c 0
 671 406 613 364 565 349 c 1
 679 324 695 259 695 223 c 0
 695 157 645 79 487 79 c 0
 444 79 405 84 374 96 c 0
 328 116 305 150 305 191 c 0
50 300 m 0
 50 584 236 760 501 760 c 0
 758 760 949 589 950 300 c 0
 950 21 769 -160 499 -160 c 0
 230 -160 50 24 50 300 c 0
112 299 m 0
 112 55 269 -97 498 -97 c 0
 724 -97 887 47 887 301 c 0
 887 547 729 697 502 697 c 0
 276 697 112 553 112 299 c 0
EndSplineSet
EndChar
StartChar: uF1D8A
Encoding: 990602 990602 8
Width: 1000
Flags: MW
LayerCount: 2
Fore
SplineSet
294 208 m 0
 294 260 317 301 388 331 c 1
 366 340 355 350 345 364 c 0
 327 389 318 417 318 441 c 0
 318 513 368 575 502 575 c 0
 609 575 682 544 682 466 c 0
 682 424 664 391 607 364 c 1
 617 359 646 346 666 325 c 0
 686 305 706 278 706 230 c 0
 706 148 652 79 498 79 c 0
 376 79 294 114 294 208 c 0
366 208 m 0
 366 151 411 114 502 114 c 0
 545 114 634 120 634 185 c 0
 634 219 605 232 562 252 c 1
 497 281 476 291 435 309 c 1
 418 299 366 270 366 208 c 0
384 490 m 0
 384 461 416 452 422 449 c 2
 562 386 l 1
 596 407 616 428 616 464 c 0
 616 514 576 542 498 542 c 0
 470 542 384 544 384 490 c 0
50 300 m 0
 50 584 236 760 501 760 c 0
 758 760 949 589 950 300 c 0
 950 21 769 -160 499 -160 c 0
 230 -160 50 24 50 300 c 0
112 299 m 0
 112 55 269 -97 498 -97 c 0
 724 -97 887 47 887 301 c 0
 887 547 729 697 502 697 c 0
 276 697 112 553 112 299 c 0
EndSplineSet
EndChar
StartChar: uF1D8B
Encoding: 990603 990603 9
Width: 1000
Flags: MW
LayerCount: 2
Fore
SplineSet
301 415 m 0
 301 466 324 513 359 539 c 1
 389 562 439 575 502 575 c 0
 722 575 699 344 699 332 c 0
 699 132 571 79 454 79 c 0
 426 79 404 85 384 91 c 0
 342 107 324 140 324 176 c 0
 324 204 341 227 374 227 c 0
 406 227 424 205 424 178 c 0
 424 139 391 130 388 128 c 1
 394 124 402 121 409 119 c 0
 425 115 440 114 452 114 c 0
 524 114 562 154 572 179 c 0
 582 203 588 245 588 296 c 2
 588 310 l 1
 550 256 506 258 482 258 c 0
 378 258 301 309 301 415 c 0
412 414 m 0
 412 373 414 339 426 316 c 0
 432 303 445 287 492 287 c 0
 566 287 588 365 588 408 c 0
 588 432 587 473 577 498 c 0
 577 500 561 542 504 542 c 0
 456 542 436 530 426 514 c 0
 412 490 412 454 412 414 c 0
50 300 m 0
 50 584 236 760 501 760 c 0
 758 760 949 589 950 300 c 0
 950 21 769 -160 499 -160 c 0
 230 -160 50 24 50 300 c 0
112 299 m 0
 112 55 269 -97 498 -97 c 0
 724 -97 887 47 887 301 c 0
 887 547 729 697 502 697 c 0
 276 697 112 553 112 299 c 0
EndSplineSet
EndChar
StartChar: uF1D8C
Encoding: 990604 990604 10
Width: 1000
Flags: MW
LayerCount: 2
Fore
SplineSet
534 325 m 0
 534 369 531 468 579 528 c 1
 600 550 633 575 692 575 c 0
 746 575 774 555 794 541 c 0
 851 483 850 373 850 325 c 0
 850 277 850 175 797 117 c 0
 777 100 747 79 692 79 c 0
 636 79 606 100 585 120 c 0
 534 177 534 277 534 325 c 0
623 334 m 0
 623 294 622 213 628 175 c 0
 634 124 670 109 692 109 c 0
 708 109 749 116 757 186 c 0
 760 223 760 296 760 334 c 0
 760 400 762 484 750 508 c 0
 737 531 716 545 692 545 c 0
 677 545 634 538 628 476 c 0
 623 437 623 390 623 334 c 0
182 488 m 1
 182 527 l 1
 198 527 l 1
 209 527 278 525 330 569 c 0
 337 575 336 575 346 575 c 1
 363 575 362 566 362 550 c 2
 362 115 l 1
 362 122 477 124 460 124 c 1
 454 124 l 1
 454 85 l 1
 426 87 354 88 322 88 c 0
 290 88 218 87 190 85 c 1
 190 124 l 1
 184 124 l 1
 167 124 280 122 280 115 c 1
 280 503 l 1
 241 490 206 488 198 488 c 1
 182 488 l 1
50 300 m 0
 50 584 236 760 501 760 c 0
 758 760 949 589 950 300 c 0
 950 21 769 -160 499 -160 c 0
 230 -160 50 24 50 300 c 0
112 299 m 0
 112 55 269 -97 498 -97 c 0
 724 -97 887 47 887 301 c 0
 887 547 729 697 502 697 c 0
 276 697 112 553 112 299 c 0
EndSplineSet
EndChar
StartChar: uF1D8D
Encoding: 990605 990605 11
Width: 1000
Flags: MW
LayerCount: 2
Fore
SplineSet
553 490 m 1
 553 528 l 1
 569 528 l 1
 580 528 650 526 702 570 c 0
 709 576 708 576 718 576 c 1
 735 576 734 566 734 550 c 2
 734 116 l 1
 734 123 848 125 831 125 c 1
 825 125 l 1
 825 87 l 1
 797 89 725 88 693 88 c 0
 661 88 590 89 562 87 c 1
 562 125 l 1
 556 125 l 1
 539 125 651 123 651 116 c 1
 651 504 l 1
 612 491 577 490 569 490 c 1
 553 490 l 1
178 490 m 1
 178 528 l 1
 194 528 l 1
 205 528 274 526 326 570 c 0
 333 576 333 576 343 576 c 1
 360 576 358 566 358 550 c 2
 358 116 l 1
 358 123 473 125 456 125 c 1
 450 125 l 1
 450 87 l 1
 422 89 350 88 318 88 c 0
 286 88 214 89 186 87 c 1
 186 125 l 1
 180 125 l 1
 163 125 276 123 276 116 c 1
 276 504 l 1
 237 491 202 490 194 490 c 1
 178 490 l 1
50 300 m 0
 50 584 236 760 501 760 c 0
 758 760 949 589 950 300 c 0
 950 21 769 -160 499 -160 c 0
 230 -160 50 24 50 300 c 0
112 299 m 0
 112 55 269 -97 498 -97 c 0
 724 -97 887 47 887 301 c 0
 887 547 729 697 502 697 c 0
 276 697 112 553 112 299 c 0
EndSplineSet
EndChar
StartChar: uF1D8F
Encoding: 990607 990607 13
Width: 1000
VWidth: 1000
Flags: MW
LayerCount: 2
Fore
SplineSet
536 191 m 0
 536 230 558 252 588 252 c 0
 618 252 638 228 638 192 c 0
 638 160 625 142 604 132 c 1
 638 116 665 114 678 114 c 0
 755 114 742 205 742 223 c 0
 742 252 747 332 674 332 c 2
 648 332 l 2
 636 332 628 331 628 347 c 0
 628 350 630 359 637 360 c 0
 639 361 636 361 668 363 c 0
 694 365 707 382 714 396 c 1
 732 426 732 468 732 473 c 0
 732 487 740 542 680 542 c 0
 662 542 636 538 614 521 c 1
 614 520 650 510 650 464 c 0
 650 434 634 409 604 409 c 0
 578 409 556 432 556 466 c 0
 556 527 606 575 684 575 c 0
 781 575 826 528 826 471 c 0
 826 406 778 364 737 349 c 1
 835 324 848 259 848 223 c 0
 848 157 805 79 682 79 c 0
 598 79 536 123 536 191 c 0
180 488 m 1
 180 527 l 1
 197 527 l 1
 208 527 277 525 329 569 c 0
 336 575 336 575 346 575 c 1
 363 575 362 566 362 550 c 2
 362 115 l 1
 362 122 477 124 460 124 c 1
 454 124 l 1
 454 85 l 1
 426 87 354 88 322 88 c 0
 290 88 218 87 190 85 c 1
 190 124 l 1
 184 124 l 1
 167 124 280 122 280 115 c 1
 280 503 l 1
 241 490 205 488 197 488 c 1
 180 488 l 1
50 300 m 0
 50 584 236 760 501 760 c 0
 758 760 949 589 950 300 c 0
 950 21 769 -160 499 -160 c 0
 230 -160 50 24 50 300 c 0
112 299 m 0
 112 55 269 -97 498 -97 c 0
 724 -97 887 47 887 301 c 0
 887 547 729 697 502 697 c 0
 276 697 112 553 112 299 c 0
EndSplineSet
EndChar
StartChar: uF1D93
Encoding: 990611 990611 17
Width: 1000
VWidth: 1000
Flags: MW
LayerCount: 2
Fore
SplineSet
550 396 m 1
 571 595 l 1
 605 595 l 1
 607 587 606 582 618 579 c 1
 626 576 740 571 750 571 c 2
 872 571 l 1
 872 543 872 541 865 533 c 2
 764 400 l 2
 745 373 730 334 723 276 c 0
 719 242 716 207 716 172 c 2
 716 138 l 2
 716 78 678 82 674 82 c 0
 678 82 632 74 632 137 c 0
 632 257 683 358 745 438 c 1
 741 432 771 471 769 468 c 1
 671 468 l 2
 660 468 609 468 600 464 c 0
 600 464 590 464 582 396 c 1
 550 396 l 1
185 491 m 1
 185 529 l 1
 201 529 l 1
 212 529 281 528 333 572 c 0
 340 578 339 577 349 577 c 1
 366 577 366 568 366 552 c 2
 366 117 l 1
 366 124 480 126 463 126 c 1
 457 126 l 1
 457 88 l 1
 429 90 356 90 324 90 c 0
 292 90 222 90 194 88 c 1
 194 126 l 1
 188 126 l 1
 171 126 283 124 283 117 c 1
 283 505 l 1
 244 492 209 491 201 491 c 1
 185 491 l 1
50 300 m 0
 50 584 236 760 501 760 c 0
 758 760 949 589 950 300 c 0
 950 21 769 -160 499 -160 c 0
 230 -160 50 24 50 300 c 0
112 299 m 0
 112 55 269 -97 498 -97 c 0
 724 -97 887 47 887 301 c 0
 887 547 729 697 502 697 c 0
 276 697 112 553 112 299 c 0
EndSplineSet
EndChar
StartChar: uF1F88
Encoding: 991112 991112 1715
Width: 1000
Flags: MW
LayerCount: 2
Fore
SplineSet
38 301 m 0
 38 407 61 591 217 746 c 0
 235 763 277 800 294 800 c 0
 302 800 312 797 312 786 c 0
 312 781 311 780 296 765 c 0
 186 654 135 497 135 300 c 0
 135 212 147 120 173 41 c 0
 215 -87 280 -148 309 -175 c 0
 309 -176 312 -180 312 -185 c 0
 312 -196 302 -199 294 -199 c 0
 275 -199 184 -132 118 -17 c 0
 71 66 38 176 38 301 c 0
688 -185 m 0
 688 -180 689 -179 704 -164 c 0
 814 -53 865 104 865 301 c 0
 865 458 831 635 705 763 c 0
 688 779 688 781 688 786 c 0
 688 797 698 800 706 800 c 0
 725 800 816 733 882 618 c 0
 929 535 962 425 962 300 c 0
 962 194 939 10 783 -145 c 0
 765 -162 723 -199 706 -199 c 0
 698 -199 688 -196 688 -185 c 0
295 87 m 1
 295 86 295 101 295 100 c 2
 295 117 293 119 304 128 c 2
 495 281 l 2
 562 336 571 384 571 434 c 0
 571 488 528 538 452 538 c 0
 431 538 407 536 387 530 c 0
 381 529 374 526 369 524 c 1
 371 522 376 522 378 520 c 0
 389 512 415 501 415 466 c 0
 415 426 379 409 352 409 c 0
 330 409 295 423 295 467 c 0
 295 487 301 505 311 520 c 0
 322 536 340 549 363 558 c 0
 394 570 434 576 477 576 c 0
 611 576 705 520 705 434 c 0
 705 364 673 331 579 278 c 1
 527 247 491 226 436 190 c 1
 540 190 l 2
 553 190 628 189 639 193 c 1
 655 197 663 249 666 262 c 1
 705 262 l 1
 682 87 l 1
 295 87 l 1
EndSplineSet
EndChar
StartChar: uF1F8A
Encoding: 991114 991114 1717
Width: 1000
Flags: MW
LayerCount: 2
Fore
SplineSet
38 301 m 0
 38 407 61 591 217 746 c 0
 235 763 277 800 294 800 c 0
 302 800 312 797 312 786 c 0
 312 781 311 780 296 765 c 0
 186 654 135 497 135 300 c 0
 135 212 147 120 173 41 c 0
 215 -87 280 -148 309 -175 c 0
 309 -176 312 -180 312 -185 c 0
 312 -196 302 -199 294 -199 c 0
 275 -199 184 -132 118 -17 c 0
 71 66 38 176 38 301 c 0
688 -185 m 0
 688 -180 689 -179 704 -164 c 0
 814 -53 865 104 865 301 c 0
 865 458 831 635 705 763 c 0
 688 779 688 781 688 786 c 0
 688 797 698 800 706 800 c 0
 725 800 816 733 882 618 c 0
 929 535 962 425 962 300 c 0
 962 194 939 10 783 -145 c 0
 765 -162 723 -199 706 -199 c 0
 698 -199 688 -196 688 -185 c 0
289 202 m 1
 289 240 l 1
 586 562 l 2
 596 574 595 574 613 574 c 0
 636 574 639 570 639 549 c 2
 639 240 l 1
 711 240 l 1
 711 202 l 1
 639 202 l 1
 639 116 l 1
 639 120 638 122 636 123 c 1
 634 124 722 124 716 124 c 1
 712 124 l 1
 712 86 l 1
 687 88 615 88 585 88 c 0
 554 88 465 88 431 86 c 1
 431 124 l 1
 425 124 l 1
 413 124 539 124 537 122 c 1
 535 121 535 119 535 116 c 1
 535 202 l 1
 289 202 l 1
332 240 m 1
 546 240 l 1
 546 461 l 1
 332 240 l 1
EndSplineSet
EndChar
StartChar: uF1F8D
Encoding: 991117 991117 1720
Width: 1000
VWidth: 1000
Flags: MW
LayerCount: 2
Fore
SplineSet
38 301 m 0
 38 407 61 591 217 746 c 0
 235 763 277 800 294 800 c 0
 302 800 312 797 312 786 c 0
 312 781 311 780 296 765 c 0
 186 654 135 497 135 300 c 0
 135 212 147 120 173 41 c 0
 215 -87 280 -148 309 -175 c 0
 309 -176 312 -180 312 -185 c 0
 312 -196 302 -199 294 -199 c 0
 275 -199 184 -132 118 -17 c 0
 71 66 38 176 38 301 c 0
688 -185 m 0
 688 -180 689 -179 704 -164 c 0
 814 -53 865 104 865 301 c 0
 865 458 831 635 705 763 c 0
 688 779 688 781 688 786 c 0
 688 797 698 800 706 800 c 0
 725 800 816 733 882 618 c 0
 929 535 962 425 962 300 c 0
 962 194 939 10 783 -145 c 0
 765 -162 723 -199 706 -199 c 0
 698 -199 688 -196 688 -185 c 0
303 396 m 1
 329 595 l 1
 368 595 l 1
 370 587 370 582 384 579 c 1
 393 576 529 571 543 571 c 2
 697 571 l 1
 697 543 700 541 692 533 c 2
 565 400 l 2
 534 374 512 329 504 271 c 0
 500 239 498 207 498 172 c 2
 498 138 l 2
 498 107 485 95 474 89 c 0
 463 83 451 82 448 82 c 0
 448 82 434 82 422 89 c 0
 411 95 398 106 398 137 c 0
 398 249 453 354 533 433 c 2
 579 468 l 1
 446 468 l 2
 434 468 371 468 362 464 c 0
 361 464 352 464 342 396 c 1
 303 396 l 1
EndSplineSet
EndChar
StartChar: uF1F8F
Encoding: 991119 991119 1722
Width: 1000
Flags: MW
LayerCount: 2
Fore
SplineSet
38 301 m 0
 38 407 61 591 217 746 c 0
 235 763 277 800 294 800 c 0
 302 800 312 797 312 786 c 0
 312 781 311 780 296 765 c 0
 186 654 135 497 135 300 c 0
 135 212 147 120 173 41 c 0
 215 -87 280 -148 309 -175 c 0
 309 -176 312 -180 312 -185 c 0
 312 -196 302 -199 294 -199 c 0
 275 -199 184 -132 118 -17 c 0
 71 66 38 176 38 301 c 0
688 -185 m 0
 688 -180 689 -179 704 -164 c 0
 814 -53 865 104 865 301 c 0
 865 458 831 635 705 763 c 0
 688 779 688 781 688 786 c 0
 688 797 698 800 706 800 c 0
 725 800 816 733 882 618 c 0
 929 535 962 425 962 300 c 0
 962 194 939 10 783 -145 c 0
 765 -162 723 -199 706 -199 c 0
 698 -199 688 -196 688 -185 c 0
301 415 m 0
 301 466 324 513 359 539 c 1
 389 562 439 575 502 575 c 0
 722 575 699 344 699 332 c 0
 699 132 571 79 454 79 c 0
 426 79 404 85 384 91 c 0
 342 107 324 140 324 176 c 0
 324 204 341 227 374 227 c 0
 406 227 424 205 424 178 c 0
 424 139 391 130 388 128 c 1
 394 124 402 121 409 119 c 0
 425 115 440 114 452 114 c 0
 524 114 562 154 572 179 c 0
 582 203 588 245 588 296 c 2
 588 310 l 1
 550 256 506 258 482 258 c 0
 378 258 301 309 301 415 c 0
412 414 m 0
 412 373 414 339 426 316 c 0
 432 303 445 287 492 287 c 0
 566 287 588 365 588 408 c 0
 588 432 587 473 577 498 c 0
 577 500 561 542 504 542 c 0
 456 542 436 530 426 514 c 0
 412 490 412 454 412 414 c 0
EndSplineSet
EndChar
StartChar: uF1F90
Encoding: 991120 991120 1723
Width: 1000
Flags: MW
LayerCount: 2
Fore
SplineSet
38 301 m 0
 38 407 61 591 217 746 c 0
 235 763 277 800 294 800 c 0
 302 800 312 797 312 786 c 0
 312 781 311 780 296 765 c 0
 186 654 135 497 135 300 c 0
 135 212 147 120 173 41 c 0
 215 -87 280 -148 309 -175 c 0
 309 -176 312 -180 312 -185 c 0
 312 -196 302 -199 294 -199 c 0
 275 -199 184 -132 118 -17 c 0
 71 66 38 176 38 301 c 0
688 -185 m 0
 688 -180 689 -179 704 -164 c 0
 814 -53 865 104 865 301 c 0
 865 458 831 635 705 763 c 0
 688 779 688 781 688 786 c 0
 688 797 698 800 706 800 c 0
 725 800 816 733 882 618 c 0
 929 535 962 425 962 300 c 0
 962 194 939 10 783 -145 c 0
 765 -162 723 -199 706 -199 c 0
 698 -199 688 -196 688 -185 c 0
534 325 m 0
 534 369 531 468 579 528 c 1
 600 550 633 575 692 575 c 0
 746 575 774 555 794 541 c 0
 851 483 850 373 850 325 c 0
 850 277 850 175 797 117 c 0
 777 100 747 79 692 79 c 0
 636 79 606 100 585 120 c 0
 534 177 534 277 534 325 c 0
623 334 m 0
 623 294 622 213 628 175 c 0
 634 124 670 109 692 109 c 0
 708 109 749 116 757 186 c 0
 760 223 760 296 760 334 c 0
 760 400 762 484 750 508 c 0
 737 531 716 545 692 545 c 0
 677 545 634 538 628 476 c 0
 623 437 623 390 623 334 c 0
182 488 m 1
 182 527 l 1
 198 527 l 1
 209 527 278 525 330 569 c 0
 337 575 336 575 346 575 c 1
 363 575 362 566 362 550 c 2
 362 115 l 1
 362 122 477 124 460 124 c 1
 454 124 l 1
 454 85 l 1
 426 87 354 88 322 88 c 0
 290 88 218 87 190 85 c 1
 190 124 l 1
 184 124 l 1
 167 124 280 122 280 115 c 1
 280 503 l 1
 241 490 206 488 198 488 c 1
 182 488 l 1
EndSplineSet
EndChar
StartChar: uF1F92
Encoding: 991122 991122 1725
Width: 1000
VWidth: 1000
Flags: MW
LayerCount: 2
Fore
SplineSet
38 301 m 0
 38 407 61 591 217 746 c 0
 235 763 277 800 294 800 c 0
 302 800 312 797 312 786 c 0
 312 781 311 780 296 765 c 0
 186 654 135 497 135 300 c 0
 135 212 147 120 173 41 c 0
 215 -87 280 -148 309 -175 c 0
 309 -176 312 -180 312 -185 c 0
 312 -196 302 -199 294 -199 c 0
 275 -199 184 -132 118 -17 c 0
 71 66 38 176 38 301 c 0
688 -185 m 0
 688 -180 689 -179 704 -164 c 0
 814 -53 865 104 865 301 c 0
 865 458 831 635 705 763 c 0
 688 779 688 781 688 786 c 0
 688 797 698 800 706 800 c 0
 725 800 816 733 882 618 c 0
 929 535 962 425 962 300 c 0
 962 194 939 10 783 -145 c 0
 765 -162 723 -199 706 -199 c 0
 698 -199 688 -196 688 -185 c 0
540 87 m 1
 540 86 540 101 540 100 c 2
 540 117 541 118 549 128 c 2
 676 281 l 2
 723 336 744 384 744 434 c 0
 744 488 715 538 662 538 c 0
 644 538 623 534 603 524 c 1
 605 522 610 522 611 520 c 0
 621 512 637 501 637 466 c 0
 637 426 611 409 588 409 c 0
 568 409 540 423 540 467 c 0
 540 535 603 576 681 576 c 0
 773 576 840 520 840 434 c 0
 840 364 798 331 735 278 c 1
 699 247 677 226 638 190 c 1
 724 190 l 2
 732 190 781 189 790 193 c 1
 799 197 805 249 807 262 c 1
 840 262 l 1
 820 87 l 1
 540 87 l 1
181 490 m 1
 181 528 l 1
 196 528 l 1
 207 528 276 526 328 570 c 0
 335 576 334 576 344 576 c 1
 361 576 361 566 361 550 c 2
 361 116 l 1
 361 123 475 125 458 125 c 1
 452 125 l 1
 452 87 l 1
 424 89 353 88 321 88 c 0
 289 88 216 89 188 87 c 1
 188 125 l 1
 182 125 l 1
 165 125 279 123 279 116 c 1
 279 504 l 1
 240 491 204 490 196 490 c 1
 181 490 l 1
EndSplineSet
EndChar
StartChar: uF1F94
Encoding: 991124 991124 1727
Width: 1000
Flags: MW
LayerCount: 2
Fore
SplineSet
38 301 m 0
 38 407 61 591 217 746 c 0
 235 763 277 800 294 800 c 0
 302 800 312 797 312 786 c 0
 312 781 311 780 296 765 c 0
 186 654 135 497 135 300 c 0
 135 212 147 120 173 41 c 0
 215 -87 280 -148 309 -175 c 0
 309 -176 312 -180 312 -185 c 0
 312 -196 302 -199 294 -199 c 0
 275 -199 184 -132 118 -17 c 0
 71 66 38 176 38 301 c 0
688 -185 m 0
 688 -180 689 -179 704 -164 c 0
 814 -53 865 104 865 301 c 0
 865 458 831 635 705 763 c 0
 688 779 688 781 688 786 c 0
 688 797 698 800 706 800 c 0
 725 800 816 733 882 618 c 0
 929 535 962 425 962 300 c 0
 962 194 939 10 783 -145 c 0
 765 -162 723 -199 706 -199 c 0
 698 -199 688 -196 688 -185 c 0
527 202 m 1
 527 240 l 1
 754 562 l 2
 762 574 762 574 778 574 c 0
 798 574 800 570 800 549 c 2
 800 240 l 1
 860 240 l 1
 860 202 l 1
 800 202 l 1
 800 116 l 1
 800 123 878 124 864 124 c 1
 860 124 l 1
 860 86 l 1
 840 88 778 88 754 88 c 0
 727 88 663 88 639 86 c 1
 639 124 l 1
 635 124 l 1
 621 124 712 123 712 116 c 1
 712 202 l 1
 527 202 l 1
562 240 m 1
 720 240 l 1
 720 461 l 1
 562 240 l 1
183 489 m 1
 183 527 l 1
 199 527 l 1
 210 527 279 526 331 570 c 0
 338 576 337 575 347 575 c 1
 364 575 364 566 364 550 c 2
 364 115 l 1
 364 122 477 124 460 124 c 1
 454 124 l 1
 454 86 l 1
 426 88 356 88 324 88 c 0
 292 88 220 88 192 86 c 1
 192 124 l 1
 186 124 l 1
 169 124 280 122 280 115 c 1
 280 503 l 1
 241 490 207 489 199 489 c 1
 183 489 l 1
EndSplineSet
EndChar
StartChar: uF1F96
Encoding: 991126 991126 1729
Width: 1000
Flags: MW
LayerCount: 2
Fore
SplineSet
38 301 m 0
 38 407 61 591 217 746 c 0
 235 763 277 800 294 800 c 0
 302 800 312 797 312 786 c 0
 312 781 311 780 296 765 c 0
 186 654 135 497 135 300 c 0
 135 212 147 120 173 41 c 0
 215 -87 280 -148 309 -175 c 0
 309 -176 312 -180 312 -185 c 0
 312 -196 302 -199 294 -199 c 0
 275 -199 184 -132 118 -17 c 0
 71 66 38 176 38 301 c 0
688 -185 m 0
 688 -180 689 -179 704 -164 c 0
 814 -53 865 104 865 301 c 0
 865 458 831 635 705 763 c 0
 688 779 688 781 688 786 c 0
 688 797 698 800 706 800 c 0
 725 800 816 733 882 618 c 0
 929 535 962 425 962 300 c 0
 962 194 939 10 783 -145 c 0
 765 -162 723 -199 706 -199 c 0
 698 -199 688 -196 688 -185 c 0
536 323 m 0
 536 518 646 575 732 575 c 0
 803 575 829 524 829 478 c 0
 829 450 816 427 786 427 c 0
 758 427 744 449 744 476 c 0
 744 495 751 521 777 526 c 1
 762 541 744 542 734 542 c 0
 690 542 656 511 644 479 c 0
 644 473 629 446 629 358 c 2
 629 345 l 1
 660 407 699 397 704 397 c 0
 782 397 848 347 848 239 c 0
 848 139 787 79 694 79 c 0
 647 79 598 97 567 153 c 1
 538 208 536 269 536 323 c 0
631 240 m 0
 631 226 631 173 640 152 c 0
 645 140 662 114 693 114 c 0
 731 114 743 132 747 152 c 0
 754 174 754 205 754 242 c 0
 754 282 754 314 746 336 c 0
 742 352 730 368 697 368 c 0
 669 368 631 343 631 240 c 0
180 488 m 1
 180 527 l 1
 197 527 l 1
 208 527 277 525 329 569 c 0
 336 575 336 575 346 575 c 1
 363 575 362 566 362 550 c 2
 362 115 l 1
 362 122 477 124 460 124 c 1
 454 124 l 1
 454 85 l 1
 426 87 354 88 322 88 c 0
 290 88 218 87 190 85 c 1
 190 124 l 1
 184 124 l 1
 167 124 280 122 280 115 c 1
 280 503 l 1
 241 490 205 488 197 488 c 1
 180 488 l 1
EndSplineSet
EndChar
StartChar: uF1F97
Encoding: 991127 991127 1730
Width: 1000
VWidth: 1000
Flags: MW
LayerCount: 2
Fore
SplineSet
38 301 m 0
 38 407 61 591 217 746 c 0
 235 763 277 800 294 800 c 0
 302 800 312 797 312 786 c 0
 312 781 311 780 296 765 c 0
 186 654 135 497 135 300 c 0
 135 212 147 120 173 41 c 0
 215 -87 280 -148 309 -175 c 0
 309 -176 312 -180 312 -185 c 0
 312 -196 302 -199 294 -199 c 0
 275 -199 184 -132 118 -17 c 0
 71 66 38 176 38 301 c 0
688 -185 m 0
 688 -180 689 -179 704 -164 c 0
 814 -53 865 104 865 301 c 0
 865 458 831 635 705 763 c 0
 688 779 688 781 688 786 c 0
 688 797 698 800 706 800 c 0
 725 800 816 733 882 618 c 0
 929 535 962 425 962 300 c 0
 962 194 939 10 783 -145 c 0
 765 -162 723 -199 706 -199 c 0
 698 -199 688 -196 688 -185 c 0
550 396 m 1
 571 595 l 1
 605 595 l 1
 607 587 606 582 618 579 c 1
 626 576 740 571 750 571 c 2
 872 571 l 1
 872 543 872 541 865 533 c 2
 764 400 l 2
 745 373 730 334 723 276 c 0
 719 242 716 207 716 172 c 2
 716 138 l 2
 716 78 678 82 674 82 c 0
 678 82 632 74 632 137 c 0
 632 257 683 358 745 438 c 1
 741 432 771 471 769 468 c 1
 671 468 l 2
 660 468 609 468 600 464 c 0
 600 464 590 464 582 396 c 1
 550 396 l 1
185 491 m 1
 185 529 l 1
 201 529 l 1
 212 529 281 528 333 572 c 0
 340 578 339 577 349 577 c 1
 366 577 366 568 366 552 c 2
 366 117 l 1
 366 124 480 126 463 126 c 1
 457 126 l 1
 457 88 l 1
 429 90 356 90 324 90 c 0
 292 90 222 90 194 88 c 1
 194 126 l 1
 188 126 l 1
 171 126 283 124 283 117 c 1
 283 505 l 1
 244 492 209 491 201 491 c 1
 185 491 l 1
EndSplineSet
EndChar
StartChar: uF1F98
Encoding: 991128 991128 1731
Width: 1000
VWidth: 1000
Flags: MW
LayerCount: 2
Fore
SplineSet
38 301 m 0
 38 407 61 591 217 746 c 0
 235 763 277 800 294 800 c 0
 302 800 312 797 312 786 c 0
 312 781 311 780 296 765 c 0
 186 654 135 497 135 300 c 0
 135 212 147 120 173 41 c 0
 215 -87 280 -148 309 -175 c 0
 309 -176 312 -180 312 -185 c 0
 312 -196 302 -199 294 -199 c 0
 275 -199 184 -132 118 -17 c 0
 71 66 38 176 38 301 c 0
688 -185 m 0
 688 -180 689 -179 704 -164 c 0
 814 -53 865 104 865 301 c 0
 865 458 831 635 705 763 c 0
 688 779 688 781 688 786 c 0
 688 797 698 800 706 800 c 0
 725 800 816 733 882 618 c 0
 929 535 962 425 962 300 c 0
 962 194 939 10 783 -145 c 0
 765 -162 723 -199 706 -199 c 0
 698 -199 688 -196 688 -185 c 0
536 208 m 0
 536 260 554 301 612 331 c 1
 597 340 588 350 579 364 c 0
 562 389 556 417 556 441 c 0
 556 513 598 575 693 575 c 0
 769 575 826 544 826 466 c 0
 826 424 810 391 766 364 c 1
 773 359 795 346 813 325 c 0
 831 305 848 278 848 230 c 0
 848 148 799 79 690 79 c 0
 605 79 536 114 536 208 c 0
596 208 m 0
 596 151 629 114 693 114 c 0
 725 114 786 120 786 185 c 0
 786 219 765 232 735 252 c 1
 690 281 674 291 646 309 c 1
 634 299 596 270 596 208 c 0
609 490 m 0
 609 461 632 452 636 449 c 2
 735 386 l 1
 759 407 774 428 774 464 c 0
 774 514 745 542 690 542 c 0
 671 542 609 544 609 490 c 0
180 488 m 1
 180 527 l 1
 197 527 l 1
 208 527 277 525 329 569 c 0
 336 575 336 575 346 575 c 1
 363 575 362 566 362 550 c 2
 362 115 l 1
 362 122 477 124 460 124 c 1
 454 124 l 1
 454 85 l 1
 426 87 354 88 322 88 c 0
 290 88 218 87 190 85 c 1
 190 124 l 1
 184 124 l 1
 167 124 280 122 280 115 c 1
 280 503 l 1
 241 490 205 488 197 488 c 1
 180 488 l 1
EndSplineSet
EndChar
StartChar: uF1F99
Encoding: 991129 991129 1732
Width: 1000
Flags: MW
LayerCount: 2
Fore
SplineSet
38 301 m 0
 38 407 61 591 217 746 c 0
 235 763 277 800 294 800 c 0
 302 800 312 797 312 786 c 0
 312 781 311 780 296 765 c 0
 186 654 135 497 135 300 c 0
 135 212 147 120 173 41 c 0
 215 -87 280 -148 309 -175 c 0
 309 -176 312 -180 312 -185 c 0
 312 -196 302 -199 294 -199 c 0
 275 -199 184 -132 118 -17 c 0
 71 66 38 176 38 301 c 0
688 -185 m 0
 688 -180 689 -179 704 -164 c 0
 814 -53 865 104 865 301 c 0
 865 458 831 635 705 763 c 0
 688 779 688 781 688 786 c 0
 688 797 698 800 706 800 c 0
 725 800 816 733 882 618 c 0
 929 535 962 425 962 300 c 0
 962 194 939 10 783 -145 c 0
 765 -162 723 -199 706 -199 c 0
 698 -199 688 -196 688 -185 c 0
536 415 m 0
 536 466 554 513 584 539 c 1
 611 562 647 575 692 575 c 0
 868 575 848 344 848 332 c 0
 848 132 742 79 660 79 c 0
 585 79 554 125 554 176 c 0
 554 204 568 227 598 227 c 0
 626 227 639 205 639 178 c 0
 639 139 610 130 608 128 c 1
 628 116 646 114 658 114 c 0
 708 114 734 154 741 179 c 0
 749 203 754 245 754 296 c 2
 754 310 l 1
 727 256 694 258 678 258 c 0
 599 258 536 309 536 415 c 0
629 414 m 0
 629 373 629 339 638 316 c 0
 642 303 654 287 686 287 c 0
 738 287 752 365 752 408 c 0
 752 432 754 473 746 498 c 0
 747 500 733 542 694 542 c 0
 660 542 647 530 639 514 c 0
 629 490 629 454 629 414 c 0
180 488 m 1
 180 527 l 1
 197 527 l 1
 208 527 277 525 329 569 c 0
 336 575 336 575 346 575 c 1
 363 575 362 566 362 550 c 2
 362 115 l 1
 362 122 477 124 460 124 c 1
 454 124 l 1
 454 85 l 1
 426 87 354 88 322 88 c 0
 290 88 218 87 190 85 c 1
 190 124 l 1
 184 124 l 1
 167 124 280 122 280 115 c 1
 280 503 l 1
 241 490 205 488 197 488 c 1
 180 488 l 1
EndSplineSet
EndChar
StartChar: uF1FA9
Encoding: 991145 991145 25
Width: 1000
Flags: MW
LayerCount: 2
Fore
SplineSet
538 205 m 0
 538 254 573 260 583 260 c 0
 597 260 627 251 627 205 c 0
 627 176 614 159 596 153 c 0
 596 152 590 152 587 152 c 1
 619 109 658 114 664 114 c 0
 690 114 707 120 717 132 c 1
 739 158 739 201 739 238 c 0
 739 275 739 318 725 342 c 0
 717 357 704 360 686 360 c 0
 668 360 630 361 600 321 c 0
 596 315 594 311 585 311 c 0
 570 311 568 321 568 335 c 2
 568 555 l 2
 568 567 570 575 579 575 c 0
 581 575 581 574 587 572 c 0
 599 567 635 551 690 551 c 0
 712 551 745 554 789 572 c 0
 798 575 797 575 799 575 c 0
 808 575 808 565 808 560 c 0
 808 539 746 450 650 450 c 0
 628 450 625 450 606 454 c 1
 606 367 l 1
 638 391 674 390 689 390 c 0
 790 390 838 321 838 236 c 0
 838 145 777 79 669 79 c 0
 589 79 538 141 538 205 c 0
162 85 m 1
 162 84 162 101 162 100 c 2
 162 117 163 118 171 128 c 2
 299 279 l 2
 346 334 367 383 367 433 c 0
 367 487 337 536 284 536 c 0
 266 536 246 532 226 522 c 1
 228 520 233 520 234 518 c 0
 244 510 260 499 260 464 c 0
 260 424 234 407 211 407 c 0
 191 407 162 422 162 466 c 0
 162 534 225 575 303 575 c 0
 395 575 462 520 462 434 c 0
 462 364 421 329 358 276 c 1
 322 245 299 224 260 188 c 1
 346 188 l 2
 354 188 403 189 412 193 c 1
 421 197 427 248 429 261 c 1
 462 261 l 1
 442 85 l 1
 162 85 l 1
50 300 m 0
 50 584 236 760 501 760 c 0
 758 760 949 589 950 300 c 0
 950 21 769 -160 499 -160 c 0
 230 -160 50 24 50 300 c 0
112 299 m 0
 112 55 269 -97 498 -97 c 0
 724 -97 887 47 887 301 c 0
 887 547 729 697 502 697 c 0
 276 697 112 553 112 299 c 0
EndSplineSet
EndChar
StartChar: uF1FAA
Encoding: 991146 991146 26
Width: 1000
VWidth: 1000
Flags: MW
LayerCount: 2
Fore
SplineSet
532 323 m 0
 532 518 643 575 729 575 c 0
 800 575 826 524 826 478 c 0
 826 450 812 427 782 427 c 0
 754 427 741 449 741 476 c 0
 741 495 748 521 774 526 c 1
 759 541 740 542 730 542 c 0
 686 542 653 511 641 479 c 0
 641 473 626 446 626 358 c 2
 626 345 l 1
 657 407 697 397 702 397 c 0
 780 397 844 347 844 239 c 0
 844 139 785 79 692 79 c 0
 645 79 596 97 565 153 c 1
 536 208 532 269 532 323 c 0
627 240 m 0
 627 226 629 173 638 152 c 0
 643 140 659 114 690 114 c 0
 728 114 740 132 744 152 c 0
 751 174 751 205 751 242 c 0
 751 282 751 314 743 336 c 0
 739 352 727 368 694 368 c 0
 666 368 627 343 627 240 c 0
164 85 m 1
 164 84 164 101 164 100 c 2
 164 117 164 118 172 128 c 2
 300 279 l 2
 347 334 369 383 369 433 c 0
 369 487 338 536 285 536 c 0
 267 536 247 532 227 522 c 1
 229 520 233 520 234 518 c 0
 244 510 261 499 261 464 c 0
 261 424 235 407 212 407 c 0
 192 407 164 422 164 466 c 0
 164 534 226 575 304 575 c 0
 396 575 464 520 464 434 c 0
 464 364 421 329 358 276 c 1
 322 245 301 224 262 188 c 1
 348 188 l 2
 356 188 404 189 413 193 c 1
 422 197 428 248 430 261 c 1
 464 261 l 1
 443 85 l 1
 164 85 l 1
50 300 m 0
 50 584 236 760 501 760 c 0
 758 760 949 589 950 300 c 0
 950 21 769 -160 499 -160 c 0
 230 -160 50 24 50 300 c 0
112 299 m 0
 112 55 269 -97 498 -97 c 0
 724 -97 887 47 887 301 c 0
 887 547 729 697 502 697 c 0
 276 697 112 553 112 299 c 0
EndSplineSet
EndChar
StartChar: uF1FAD
Encoding: 991149 991149 29
Width: 1000
Flags: MW
LayerCount: 2
Fore
SplineSet
532 415 m 0
 532 466 550 513 580 539 c 1
 607 562 645 575 690 575 c 0
 866 575 844 344 844 332 c 0
 844 132 740 79 658 79 c 0
 583 79 551 125 551 176 c 0
 551 204 564 227 594 227 c 0
 622 227 636 205 636 178 c 0
 636 139 608 130 606 128 c 1
 626 116 644 114 656 114 c 0
 706 114 732 154 739 179 c 0
 747 203 751 245 751 296 c 2
 751 310 l 1
 724 256 692 258 676 258 c 0
 597 258 532 309 532 415 c 0
626 414 m 0
 626 373 627 339 636 316 c 0
 640 303 651 287 683 287 c 0
 735 287 750 365 750 408 c 0
 750 432 751 473 743 498 c 0
 744 500 730 542 691 542 c 0
 657 542 644 530 636 514 c 0
 626 490 626 454 626 414 c 0
164 85 m 1
 164 84 164 101 164 100 c 2
 164 117 164 118 172 128 c 2
 300 279 l 2
 347 334 369 383 369 433 c 0
 369 487 338 536 285 536 c 0
 267 536 247 532 227 522 c 1
 229 520 233 520 234 518 c 0
 244 510 261 499 261 464 c 0
 261 424 235 407 212 407 c 0
 192 407 164 422 164 466 c 0
 164 534 226 575 304 575 c 0
 396 575 464 520 464 434 c 0
 464 364 421 329 358 276 c 1
 322 245 301 224 262 188 c 1
 348 188 l 2
 356 188 404 189 413 193 c 1
 422 197 428 248 430 261 c 1
 464 261 l 1
 443 85 l 1
 164 85 l 1
50 300 m 0
 50 584 236 760 501 760 c 0
 758 760 949 589 950 300 c 0
 950 21 769 -160 499 -160 c 0
 230 -160 50 24 50 300 c 0
112 299 m 0
 112 55 269 -97 498 -97 c 0
 724 -97 887 47 887 301 c 0
 887 547 729 697 502 697 c 0
 276 697 112 553 112 299 c 0
EndSplineSet
EndChar
StartChar: uF1FB1
Encoding: 991153 991153 1735
Width: 1000
Flags: MW
LayerCount: 2
Fore
SplineSet
38 301 m 0
 38 407 61 591 217 746 c 0
 235 763 277 800 294 800 c 0
 302 800 312 797 312 786 c 0
 312 781 311 780 296 765 c 0
 186 654 135 497 135 300 c 0
 135 212 147 120 173 41 c 0
 215 -87 280 -148 309 -175 c 0
 309 -176 312 -180 312 -185 c 0
 312 -196 302 -199 294 -199 c 0
 275 -199 184 -132 118 -17 c 0
 71 66 38 176 38 301 c 0
688 -185 m 0
 688 -180 689 -179 704 -164 c 0
 814 -53 865 104 865 301 c 0
 865 458 831 635 705 763 c 0
 688 779 688 781 688 786 c 0
 688 797 698 800 706 800 c 0
 725 800 816 733 882 618 c 0
 929 535 962 425 962 300 c 0
 962 194 939 10 783 -145 c 0
 765 -162 723 -199 706 -199 c 0
 698 -199 688 -196 688 -185 c 0
281 533 m 1
 281 570 l 1
 422 576 l 1
 422 362 l 1
 442 377 480 396 534 396 c 0
 649 396 719 325 719 224 c 0
 719 118 641 53 523 53 c 0
 453 53 417 94 412 97 c 1
 417 106 372 56 372 56 c 1
 333 56 l 1
 333 507 l 2
 333 534 325 533 281 533 c 1
426 127 m 1
 426 131 426 131 424 135 c 1
 430 128 459 82 515 82 c 0
 535 82 571 87 595 120 c 1
 615 148 614 187 614 224 c 0
 614 254 614 297 598 328 c 0
 586 350 564 365 524 365 c 0
 477 365 442 339 424 317 c 1
 426 320 426 320 426 324 c 1
 426 127 l 1
EndSplineSet
EndChar
StartChar: uF1FB2
Encoding: 991154 991154 1736
Width: 1000
Flags: MW
LayerCount: 2
Fore
SplineSet
38 301 m 0
 38 407 61 591 217 746 c 0
 235 763 277 800 294 800 c 0
 302 800 312 797 312 786 c 0
 312 781 311 780 296 765 c 0
 186 654 135 497 135 300 c 0
 135 212 147 120 173 41 c 0
 215 -87 280 -148 309 -175 c 0
 309 -176 312 -180 312 -185 c 0
 312 -196 302 -199 294 -199 c 0
 275 -199 184 -132 118 -17 c 0
 71 66 38 176 38 301 c 0
688 -185 m 0
 688 -180 689 -179 704 -164 c 0
 814 -53 865 104 865 301 c 0
 865 458 831 635 705 763 c 0
 688 779 688 781 688 786 c 0
 688 797 698 800 706 800 c 0
 725 800 816 733 882 618 c 0
 929 535 962 425 962 300 c 0
 962 194 939 10 783 -145 c 0
 765 -162 723 -199 706 -199 c 0
 698 -199 688 -196 688 -185 c 0
329 223 m 0
 329 309 382 397 526 397 c 0
 550 397 594 398 625 384 c 0
 646 374 660 358 660 331 c 0
 660 297 634 280 610 280 c 0
 590 280 561 295 561 331 c 0
 561 337 560 351 570 365 c 1
 564 361 561 364 530 364 c 0
 419 364 434 250 434 228 c 0
 434 216 417 85 537 85 c 0
 577 85 610 102 630 143 c 0
 634 155 634 155 650 155 c 0
 660 155 671 154 671 144 c 0
 671 140 650 52 522 52 c 0
 399 52 329 122 329 223 c 0
EndSplineSet
EndChar
StartChar: uF1FB5
Encoding: 991157 991157 1739
Width: 1000
Flags: MW
LayerCount: 2
Fore
SplineSet
38 301 m 0
 38 407 61 591 217 746 c 0
 235 763 277 800 294 800 c 0
 302 800 312 797 312 786 c 0
 312 781 311 780 296 765 c 0
 186 654 135 497 135 300 c 0
 135 212 147 120 173 41 c 0
 215 -87 280 -148 309 -175 c 0
 309 -176 312 -180 312 -185 c 0
 312 -196 302 -199 294 -199 c 0
 275 -199 184 -132 118 -17 c 0
 71 66 38 176 38 301 c 0
688 -185 m 0
 688 -180 689 -179 704 -164 c 0
 814 -53 865 104 865 301 c 0
 865 458 831 635 705 763 c 0
 688 779 688 781 688 786 c 0
 688 797 698 800 706 800 c 0
 725 800 816 733 882 618 c 0
 929 535 962 425 962 300 c 0
 962 194 939 10 783 -145 c 0
 765 -162 723 -199 706 -199 c 0
 698 -199 688 -196 688 -185 c 0
366 354 m 1
 366 392 l 1
 420 392 l 1
 420 466 l 2
 420 552 505 581 585 581 c 0
 647 581 674 546 674 513 c 0
 674 479 648 464 626 464 c 0
 606 464 576 477 576 513 c 0
 576 526 581 542 593 551 c 1
 589 552 586 552 582 552 c 0
 566 552 505 552 505 466 c 2
 505 392 l 1
 596 392 l 1
 596 354 l 1
 511 354 l 1
 511 87 l 1
 511 91 510 93 508 94 c 1
 506 95 582 96 576 96 c 1
 572 96 l 1
 572 58 l 1
 546 60 494 60 466 60 c 0
 429 60 395 59 370 58 c 1
 370 96 l 1
 364 96 425 95 423 94 c 1
 421 93 420 92 420 88 c 1
 420 354 l 1
 366 354 l 1
EndSplineSet
EndChar
StartChar: uF1FB6
Encoding: 991158 991158 1740
Width: 1000
VWidth: 1000
Flags: MW
LayerCount: 2
Fore
SplineSet
38 301 m 0
 38 407 61 591 217 746 c 0
 235 763 277 800 294 800 c 0
 302 800 312 797 312 786 c 0
 312 781 311 780 296 765 c 0
 186 654 135 497 135 300 c 0
 135 212 147 120 173 41 c 0
 215 -87 280 -148 309 -175 c 0
 309 -176 312 -180 312 -185 c 0
 312 -196 302 -199 294 -199 c 0
 275 -199 184 -132 118 -17 c 0
 71 66 38 176 38 301 c 0
688 -185 m 0
 688 -180 689 -179 704 -164 c 0
 814 -53 865 104 865 301 c 0
 865 458 831 635 705 763 c 0
 688 779 688 781 688 786 c 0
 688 797 698 800 706 800 c 0
 725 800 816 733 882 618 c 0
 929 535 962 425 962 300 c 0
 962 194 939 10 783 -145 c 0
 765 -162 723 -199 706 -199 c 0
 698 -199 688 -196 688 -185 c 0
296 2 m 0
 296 53 358 66 359 65 c 1
 327 91 326 130 326 138 c 0
 326 152 329 176 353 206 c 1
 328 223 313 254 313 284 c 0
 313 334 351 396 469 396 c 0
 535 396 564 376 574 371 c 1
 607 396 644 399 654 399 c 0
 689 399 704 372 704 354 c 0
 704 336 692 319 669 319 c 0
 647 319 634 334 634 354 c 0
 634 357 635 363 635 367 c 1
 633 367 632 367 630 367 c 0
 622 366 611 362 595 356 c 1
 604 345 625 322 625 285 c 0
 625 235 587 173 469 173 c 0
 449 173 407 175 372 192 c 1
 370 188 367 179 367 170 c 0
 367 158 373 130 408 124 c 0
 412 123 446 123 466 123 c 0
 544 123 591 122 633 101 c 0
 686 74 691 25 691 4 c 0
 691 -46 638 -93 494 -93 c 0
 330 -93 296 -32 296 2 c 0
367 3 m 0
 367 -29 400 -63 494 -63 c 0
 598 -63 621 -22 621 2 c 0
 621 44 536 43 523 43 c 2
 424 43 l 1
 420 43 367 51 367 3 c 0
403 285 m 0
 403 247 403 203 469 203 c 0
 499 203 516 211 526 226 c 0
 536 242 535 266 535 284 c 0
 535 322 535 366 469 366 c 0
 444 366 430 363 419 351 c 0
 403 335 403 305 403 285 c 0
EndSplineSet
EndChar
StartChar: uF1FB9
Encoding: 991161 991161 1743
Width: 1000
VWidth: 1000
Flags: MW
LayerCount: 2
Fore
SplineSet
38 301 m 0
 38 407 61 591 217 746 c 0
 235 763 277 800 294 800 c 0
 302 800 312 797 312 786 c 0
 312 781 311 780 296 765 c 0
 186 654 135 497 135 300 c 0
 135 212 147 120 173 41 c 0
 215 -87 280 -148 309 -175 c 0
 309 -176 312 -180 312 -185 c 0
 312 -196 302 -199 294 -199 c 0
 275 -199 184 -132 118 -17 c 0
 71 66 38 176 38 301 c 0
688 -185 m 0
 688 -180 689 -179 704 -164 c 0
 814 -53 865 104 865 301 c 0
 865 458 831 635 705 763 c 0
 688 779 688 781 688 786 c 0
 688 797 698 800 706 800 c 0
 725 800 816 733 882 618 c 0
 929 535 962 425 962 300 c 0
 962 194 939 10 783 -145 c 0
 765 -162 723 -199 706 -199 c 0
 698 -199 688 -196 688 -185 c 0
334 -16 m 4
 334 13 355 34 385 34 c 4
 413 34 435 13 435 -15 c 4
 435 -24 434 -42 419 -54 c 5
 428 -55 431 -56 445 -56 c 4
 489 -56 502 -6 502 33 c 6
 502 331 l 6
 502 345 502 355 486 358 c 4
 475 360 459 358 448 358 c 5
 448 396 l 5
 592 401 l 5
 592 32 l 6
 592 -51 512 -86 446 -86 c 4
 379 -86 334 -60 334 -16 c 4
464 526 m 4
 464 560 494 589 528 589 c 4
 562 589 592 560 592 526 c 4
 592 492 562 462 528 462 c 4
 494 462 464 492 464 526 c 4
EndSplineSet
EndChar
StartChar: uF1FBA
Encoding: 991162 991162 1744
Width: 1000
VWidth: 1000
Flags: MW
LayerCount: 2
Fore
SplineSet
38 301 m 0
 38 407 61 591 217 746 c 0
 235 763 277 800 294 800 c 0
 302 800 312 797 312 786 c 0
 312 781 311 780 296 765 c 0
 186 654 135 497 135 300 c 0
 135 212 147 120 173 41 c 0
 215 -87 280 -148 309 -175 c 0
 309 -176 312 -180 312 -185 c 0
 312 -196 302 -199 294 -199 c 0
 275 -199 184 -132 118 -17 c 0
 71 66 38 176 38 301 c 0
688 -185 m 0
 688 -180 689 -179 704 -164 c 0
 814 -53 865 104 865 301 c 0
 865 458 831 635 705 763 c 0
 688 779 688 781 688 786 c 0
 688 797 698 800 706 800 c 0
 725 800 816 733 882 618 c 0
 929 535 962 425 962 300 c 0
 962 194 939 10 783 -145 c 0
 765 -162 723 -199 706 -199 c 0
 698 -199 688 -196 688 -185 c 0
288 57 m 1
 288 95 l 1
 282 95 342 95 340 94 c 1
 338 93 338 90 338 86 c 1
 338 508 l 2
 338 535 332 534 288 534 c 1
 288 572 l 1
 426 577 l 1
 426 238 l 1
 577 355 l 1
 575 354 572 352 572 348 c 1
 564 353 565 353 547 353 c 1
 547 392 l 1
 566 391 616 390 634 390 c 0
 654 390 674 390 694 392 c 1
 694 353 l 1
 636 353 634 347 633 347 c 1
 635 349 525 265 525 266 c 1
 524 268 l 1
 659 104 l 2
 666 97 666 95 701 95 c 2
 700 95 713 95 712 95 c 1
 712 57 l 1
 685 59 659 59 631 59 c 0
 630 59 560 59 538 57 c 1
 538 95 l 1
 547 95 560 95 560 100 c 0
 560 101 546 116 539 125 c 1
 546 114 455 229 464 217 c 1
 445 205 450 207 422 186 c 1
 422 86 l 1
 422 90 423 93 421 94 c 1
 419 95 479 95 472 95 c 1
 472 57 l 1
 446 58 410 59 380 59 c 0
 352 59 317 58 288 57 c 1
EndSplineSet
EndChar
StartChar: uF1FBE
Encoding: 991166 991166 1748
Width: 1000
VWidth: 1000
Flags: MW
LayerCount: 2
Fore
SplineSet
38 301 m 0
 38 407 61 591 217 746 c 0
 235 763 277 800 294 800 c 0
 302 800 312 797 312 786 c 0
 312 781 311 780 296 765 c 0
 186 654 135 497 135 300 c 0
 135 212 147 120 173 41 c 0
 215 -87 280 -148 309 -175 c 0
 309 -176 312 -180 312 -185 c 0
 312 -196 302 -199 294 -199 c 0
 275 -199 184 -132 118 -17 c 0
 71 66 38 176 38 301 c 0
688 -185 m 0
 688 -180 689 -179 704 -164 c 0
 814 -53 865 104 865 301 c 0
 865 458 831 635 705 763 c 0
 688 779 688 781 688 786 c 0
 688 797 698 800 706 800 c 0
 725 800 816 733 882 618 c 0
 929 535 962 425 962 300 c 0
 962 194 939 10 783 -145 c 0
 765 -162 723 -199 706 -199 c 0
 698 -199 688 -196 688 -185 c 0
303 220 m 0
 303 322 370 397 500 397 c 0
 630 397 697 321 697 220 c 0
 697 129 635 52 500 52 c 0
 366 52 303 128 303 220 c 0
407 230 m 0
 407 194 406 157 419 129 c 0
 430 105 450 85 500 85 c 0
 542 85 562 99 576 118 c 0
 593 147 593 190 593 230 c 0
 593 268 594 307 579 331 c 0
 564 355 532 368 500 368 c 0
 461 368 431 351 419 325 c 1
 407 301 407 265 407 230 c 0
EndSplineSet
EndChar
StartChar: uF1FC0
Encoding: 991168 991168 1750
Width: 1000
Flags: MW
LayerCount: 2
Fore
SplineSet
38 301 m 0
 38 407 61 591 217 746 c 0
 235 763 277 800 294 800 c 0
 302 800 312 797 312 786 c 0
 312 781 311 780 296 765 c 0
 186 654 135 497 135 300 c 0
 135 212 147 120 173 41 c 0
 215 -87 280 -148 309 -175 c 0
 309 -176 312 -180 312 -185 c 0
 312 -196 302 -199 294 -199 c 0
 275 -199 184 -132 118 -17 c 0
 71 66 38 176 38 301 c 0
688 -185 m 0
 688 -180 689 -179 704 -164 c 0
 814 -53 865 104 865 301 c 0
 865 458 831 635 705 763 c 0
 688 779 688 781 688 786 c 0
 688 797 698 800 706 800 c 0
 725 800 816 733 882 618 c 0
 929 535 962 425 962 300 c 0
 962 194 939 10 783 -145 c 0
 765 -162 723 -199 706 -199 c 0
 698 -199 688 -196 688 -185 c 0
281 225 m 0
 281 331 359 397 475 397 c 0
 516 397 560 380 590 339 c 1
 634 397 l 1
 667 397 l 1
 667 -58 l 1
 667 -54 666 -52 664 -51 c 1
 662 -50 725 -50 719 -50 c 1
 719 -89 l 1
 699 -88 652 -86 621 -86 c 0
 591 -86 544 -88 524 -89 c 1
 524 -50 l 1
 518 -50 578 -50 576 -51 c 1
 574 -52 574 -54 574 -58 c 1
 574 91 l 1
 536 59 499 54 466 54 c 0
 358 54 281 116 281 225 c 0
386 225 m 0
 386 121 432 83 476 83 c 0
 495 83 539 89 574 141 c 0
 584 157 578 152 578 164 c 2
 578 269 l 2
 578 307 541 364 485 364 c 0
 443 364 386 335 386 225 c 0
EndSplineSet
EndChar
StartChar: uF1FC1
Encoding: 991169 991169 1751
Width: 1000
Flags: MW
LayerCount: 2
Fore
SplineSet
38 301 m 0
 38 407 61 591 217 746 c 0
 235 763 277 800 294 800 c 0
 302 800 312 797 312 786 c 0
 312 781 311 780 296 765 c 0
 186 654 135 497 135 300 c 0
 135 212 147 120 173 41 c 0
 215 -87 280 -148 309 -175 c 0
 309 -176 312 -180 312 -185 c 0
 312 -196 302 -199 294 -199 c 0
 275 -199 184 -132 118 -17 c 0
 71 66 38 176 38 301 c 0
688 -185 m 0
 688 -180 689 -179 704 -164 c 0
 814 -53 865 104 865 301 c 0
 865 458 831 635 705 763 c 0
 688 779 688 781 688 786 c 0
 688 797 698 800 706 800 c 0
 725 800 816 733 882 618 c 0
 929 535 962 425 962 300 c 0
 962 194 939 10 783 -145 c 0
 765 -162 723 -199 706 -199 c 0
 698 -199 688 -196 688 -185 c 0
362 56 m 1
 362 96 l 1
 355 96 416 96 414 94 c 1
 412 93 412 91 412 87 c 1
 412 326 l 2
 412 353 406 351 362 351 c 1
 362 390 l 1
 492 396 l 1
 492 310 l 1
 511 361 541 396 592 396 c 0
 633 396 678 374 678 330 c 0
 678 298 653 280 629 280 c 0
 605 280 580 296 580 330 c 0
 580 352 593 365 594 366 c 1
 592 366 591 366 590 366 c 0
 516 361 500 267 500 222 c 2
 500 86 l 1
 500 90 500 93 498 94 c 1
 496 95 575 96 568 96 c 1
 564 96 l 1
 564 56 l 1
 538 58 487 58 459 58 c 0
 422 58 387 57 362 56 c 1
EndSplineSet
EndChar
StartChar: uF1FC2
Encoding: 991170 991170 1752
Width: 1000
Flags: MW
LayerCount: 2
Fore
SplineSet
38 301 m 0
 38 407 61 591 217 746 c 0
 235 763 277 800 294 800 c 0
 302 800 312 797 312 786 c 0
 312 781 311 780 296 765 c 0
 186 654 135 497 135 300 c 0
 135 212 147 120 173 41 c 0
 215 -87 280 -148 309 -175 c 0
 309 -176 312 -180 312 -185 c 0
 312 -196 302 -199 294 -199 c 0
 275 -199 184 -132 118 -17 c 0
 71 66 38 176 38 301 c 0
688 -185 m 0
 688 -180 689 -179 704 -164 c 0
 814 -53 865 104 865 301 c 0
 865 458 831 635 705 763 c 0
 688 779 688 781 688 786 c 0
 688 797 698 800 706 800 c 0
 725 800 816 733 882 618 c 0
 929 535 962 425 962 300 c 0
 962 194 939 10 783 -145 c 0
 765 -162 723 -199 706 -199 c 0
 698 -199 688 -196 688 -185 c 0
354 74 m 2
 354 152 l 2
 354 170 354 174 374 174 c 0
 384 174 390 174 394 164 c 1
 402 140 419 82 503 82 c 0
 509 82 588 76 588 136 c 0
 588 178 533 187 503 191 c 0
 444 201 416 206 384 234 c 0
 370 246 354 266 354 297 c 0
 354 409 493 397 497 397 c 0
 532 397 555 391 573 384 c 1
 582 388 588 390 592 392 c 0
 606 397 606 397 608 397 c 0
 624 397 624 390 624 376 c 2
 624 320 l 2
 624 302 624 298 604 298 c 0
 584 298 585 303 584 315 c 0
 582 337 574 347 562 354 c 0
 546 364 524 371 496 371 c 0
 494 371 412 377 412 326 c 0
 412 293 460 284 484 280 c 0
 548 269 572 266 602 244 c 1
 632 220 646 194 646 164 c 0
 646 40 510 52 503 52 c 0
 488 52 447 52 413 74 c 1
 414 75 394 64 393 64 c 0
 377 54 373 52 368 52 c 0
 352 52 354 60 354 74 c 2
EndSplineSet
EndChar
StartChar: uF1FC4
Encoding: 991172 991172 1754
Width: 1000
Flags: MW
LayerCount: 2
Fore
SplineSet
38 301 m 0
 38 407 61 591 217 746 c 0
 235 763 277 800 294 800 c 0
 302 800 312 797 312 786 c 0
 312 781 311 780 296 765 c 0
 186 654 135 497 135 300 c 0
 135 212 147 120 173 41 c 0
 215 -87 280 -148 309 -175 c 0
 309 -176 312 -180 312 -185 c 0
 312 -196 302 -199 294 -199 c 0
 275 -199 184 -132 118 -17 c 0
 71 66 38 176 38 301 c 0
688 -185 m 0
 688 -180 689 -179 704 -164 c 0
 814 -53 865 104 865 301 c 0
 865 458 831 635 705 763 c 0
 688 779 688 781 688 786 c 0
 688 797 698 800 706 800 c 0
 725 800 816 733 882 618 c 0
 929 535 962 425 962 300 c 0
 962 194 939 10 783 -145 c 0
 765 -162 723 -199 706 -199 c 0
 698 -199 688 -196 688 -185 c 0
280 352 m 1
 280 390 l 1
 424 395 l 1
 424 137 l 2
 424 115 424 103 433 94 c 0
 441 86 457 82 483 82 c 0
 538 82 576 118 576 179 c 2
 576 324 l 2
 576 351 570 352 526 352 c 1
 526 390 l 1
 670 395 l 1
 670 120 l 2
 670 93 676 94 720 94 c 1
 720 56 l 1
 581 52 l 1
 581 109 l 1
 544 48 484 52 470 52 c 0
 444 52 419 54 395 60 c 0
 360 69 330 90 330 142 c 2
 330 331 l 2
 330 351 323 352 280 352 c 1
EndSplineSet
EndChar
StartChar: uF1FC7
Encoding: 991175 991175 1757
Width: 1000
Flags: MW
LayerCount: 2
Fore
SplineSet
38 301 m 0
 38 407 61 591 217 746 c 0
 235 763 277 800 294 800 c 0
 302 800 312 797 312 786 c 0
 312 781 311 780 296 765 c 0
 186 654 135 497 135 300 c 0
 135 212 147 120 173 41 c 0
 215 -87 280 -148 309 -175 c 0
 309 -176 312 -180 312 -185 c 0
 312 -196 302 -199 294 -199 c 0
 275 -199 184 -132 118 -17 c 0
 71 66 38 176 38 301 c 0
688 -185 m 0
 688 -180 689 -179 704 -164 c 0
 814 -53 865 104 865 301 c 0
 865 458 831 635 705 763 c 0
 688 779 688 781 688 786 c 0
 688 797 698 800 706 800 c 0
 725 800 816 733 882 618 c 0
 929 535 962 425 962 300 c 0
 962 194 939 10 783 -145 c 0
 765 -162 723 -199 706 -199 c 0
 698 -199 688 -196 688 -185 c 0
282 56 m 1
 282 94 l 1
 323 94 347 95 354 101 c 1
 458 216 l 1
 332 364 l 1
 336 359 338 357 340 355 c 1
 343 353 281 353 288 353 c 1
 288 391 l 1
 314 390 348 389 374 389 c 0
 401 389 446 390 466 391 c 1
 466 353 l 1
 470 353 435 355 435 358 c 1
 435 359 435 359 433 361 c 1
 510 272 l 1
 577 346 l 2
 580 349 578 348 582 350 c 1
 571 353 560 353 552 353 c 1
 552 391 l 1
 576 390 614 389 632 389 c 0
 632 389 673 389 701 391 c 1
 701 353 l 1
 632 353 635 350 628 344 c 1
 632 349 530 235 536 242 c 1
 668 89 l 1
 664 95 728 94 718 94 c 1
 718 56 l 1
 692 57 657 58 632 58 c 0
 605 58 560 57 540 56 c 1
 540 94 l 1
 535 94 569 92 569 90 c 1
 569 89 571 86 573 84 c 1
 484 186 l 1
 492 196 407 99 409 103 c 1
 404 97 403 99 403 99 c 0
 403 97 420 94 434 94 c 1
 434 56 l 1
 420 57 372 58 354 58 c 0
 354 58 310 58 282 56 c 1
EndSplineSet
EndChar
StartChar: uF1FC8
Encoding: 991176 991176 1758
Width: 1000
Flags: MW
LayerCount: 2
Fore
SplineSet
38 301 m 0
 38 407 61 591 217 746 c 0
 235 763 277 800 294 800 c 0
 302 800 312 797 312 786 c 0
 312 781 311 780 296 765 c 0
 186 654 135 497 135 300 c 0
 135 212 147 120 173 41 c 0
 215 -87 280 -148 309 -175 c 0
 309 -176 312 -180 312 -185 c 0
 312 -196 302 -199 294 -199 c 0
 275 -199 184 -132 118 -17 c 0
 71 66 38 176 38 301 c 0
688 -185 m 0
 688 -180 689 -179 704 -164 c 0
 814 -53 865 104 865 301 c 0
 865 458 831 635 705 763 c 0
 688 779 688 781 688 786 c 0
 688 797 698 800 706 800 c 0
 725 800 816 733 882 618 c 0
 929 535 962 425 962 300 c 0
 962 194 939 10 783 -145 c 0
 765 -162 723 -199 706 -199 c 0
 698 -199 688 -196 688 -185 c 0
284 -21 m 0
 284 10 308 24 330 24 c 0
 358 24 376 5 376 -21 c 0
 376 -51 357 -60 354 -63 c 1
 358 -62 355 -63 367 -63 c 0
 421 -63 447 -14 463 21 c 1
 462 19 481 57 480 55 c 1
 333 359 l 1
 335 353 279 353 288 353 c 1
 288 392 l 1
 321 391 355 389 376 389 c 0
 374 389 446 390 472 392 c 1
 472 353 l 1
 476 353 432 353 432 358 c 1
 432 359 433 359 432 361 c 1
 530 159 l 1
 618 343 l 2
 618 342 622 351 622 350 c 0
 622 356 584 353 587 353 c 1
 587 392 l 1
 603 391 636 389 656 389 c 0
 676 389 698 390 716 392 c 1
 716 353 l 1
 659 353 665 346 664 345 c 2
 494 -3 l 2
 474 -46 428 -93 367 -93 c 0
 320 -93 284 -60 284 -21 c 0
EndSplineSet
EndChar
StartChar: uF2020
Encoding: 991264 991264 0
Width: 1000
VWidth: 1000
Flags: MW
LayerCount: 2
Fore
SplineSet
293 325 m 0
 293 369 291 468 346 528 c 1
 372 550 417 575 500 575 c 0
 577 575 617 555 642 541 c 0
 708 483 707 373 707 325 c 0
 707 277 708 175 646 117 c 0
 620 100 578 79 500 79 c 0
 420 79 378 100 352 120 c 0
 292 177 293 277 293 325 c 0
400 334 m 0
 400 294 400 213 408 175 c 0
 420 124 468 109 500 109 c 0
 522 109 579 116 594 186 c 0
 601 223 600 296 600 334 c 0
 600 400 601 484 583 508 c 0
 564 531 533 545 500 545 c 0
 480 545 417 538 407 476 c 0
 399 437 400 390 400 334 c 0
50 300 m 0
 50 584 236 760 501 760 c 0
 758 760 949 589 950 300 c 0
 950 21 769 -160 499 -160 c 0
 230 -160 50 24 50 300 c 0
112 299 m 0
 112 55 269 -97 498 -97 c 0
 724 -97 887 47 887 301 c 0
 887 547 729 697 502 697 c 0
 276 697 112 553 112 299 c 0
EndSplineSet
EndChar
StartChar: uF2023
Encoding: 991267 991267 1783
Width: 1000
VWidth: 1000
Flags: MW
LayerCount: 2
Fore
SplineSet
38 301 m 0
 38 407 61 591 217 746 c 0
 235 763 277 800 294 800 c 0
 302 800 312 797 312 786 c 0
 312 781 311 780 296 765 c 0
 186 654 135 497 135 300 c 0
 135 212 147 120 173 41 c 0
 215 -87 280 -148 309 -175 c 0
 309 -176 312 -180 312 -185 c 0
 312 -196 302 -199 294 -199 c 0
 275 -199 184 -132 118 -17 c 0
 71 66 38 176 38 301 c 0
688 -185 m 0
 688 -180 689 -179 704 -164 c 0
 814 -53 865 104 865 301 c 0
 865 458 831 635 705 763 c 0
 688 779 688 781 688 786 c 0
 688 797 698 800 706 800 c 0
 725 800 816 733 882 618 c 0
 929 535 962 425 962 300 c 0
 962 194 939 10 783 -145 c 0
 765 -162 723 -199 706 -199 c 0
 698 -199 688 -196 688 -185 c 0
293 325 m 0
 293 369 291 468 346 528 c 1
 372 550 417 575 500 575 c 0
 577 575 617 555 642 541 c 0
 708 483 707 373 707 325 c 0
 707 277 708 175 646 117 c 0
 620 100 578 79 500 79 c 0
 420 79 378 100 352 120 c 0
 292 177 293 277 293 325 c 0
400 334 m 0
 400 294 400 213 408 175 c 0
 420 124 468 109 500 109 c 0
 522 109 579 116 594 186 c 0
 601 223 600 296 600 334 c 0
 600 400 601 484 583 508 c 0
 564 531 533 545 500 545 c 0
 480 545 417 538 407 476 c 0
 399 437 400 390 400 334 c 0
EndSplineSet
EndChar
StartChar: uF205E
Encoding: 991326 991326 328
Width: 1000
VWidth: 1000
Flags: MW
LayerCount: 2
Fore
SplineSet
50 300 m 0
 50 584 236 760 501 760 c 0
 758 760 949 589 950 300 c 0
 950 21 769 -160 499 -160 c 0
 230 -160 50 24 50 300 c 0
334 490 m 1
 353 490 l 1
 363 490 403 491 456 504 c 1
 456 116 l 1
 456 119 456 120 458 122 c 1
 460 124 328 125 337 125 c 1
 343 125 l 1
 343 87 l 1
 378 89 468 88 506 88 c 0
 544 88 631 89 666 87 c 1
 666 125 l 1
 672 125 l 1
 680 125 550 124 552 123 c 1
 555 122 554 120 554 116 c 1
 554 550 l 2
 554 566 555 576 534 576 c 1
 524 576 523 576 515 570 c 0
 454 526 366 528 353 528 c 1
 334 528 l 1
 334 490 l 1
EndSplineSet
EndChar
StartChar: uF205F
Encoding: 991327 991327 329
Width: 1000
VWidth: 1000
Flags: MW
LayerCount: 2
Fore
SplineSet
50 300 m 0
 50 584 236 760 501 760 c 0
 758 760 949 589 950 300 c 0
 950 21 769 -160 499 -160 c 0
 230 -160 50 24 50 300 c 0
295 87 m 1
 682 87 l 1
 705 262 l 1
 666 262 l 1
 663 249 655 197 639 193 c 1
 628 189 553 190 540 190 c 2
 436 190 l 1
 491 226 527 247 579 278 c 1
 673 331 705 364 705 434 c 0
 705 520 611 576 477 576 c 0
 434 576 394 570 363 558 c 0
 340 549 322 536 311 520 c 0
 301 505 295 487 295 467 c 0
 295 423 330 409 352 409 c 0
 379 409 415 426 415 466 c 0
 415 501 389 512 378 520 c 0
 376 522 371 522 369 524 c 1
 374 526 381 529 387 530 c 0
 407 536 431 538 452 538 c 0
 528 538 571 488 571 434 c 0
 571 384 562 336 495 281 c 2
 304 128 l 2
 293 119 295 117 295 100 c 2
 295 101 295 86 295 87 c 1
EndSplineSet
EndChar
StartChar: uF2060
Encoding: 991328 991328 330
Width: 1000
Flags: MW
LayerCount: 2
Fore
SplineSet
50 300 m 0
 50 584 236 760 501 760 c 0
 758 760 949 589 950 300 c 0
 950 21 769 -160 499 -160 c 0
 230 -160 50 24 50 300 c 0
305 191 m 0
 305 150 328 116 374 96 c 0
 405 84 444 79 487 79 c 0
 645 79 695 157 695 223 c 0
 695 259 679 324 565 349 c 1
 613 364 671 406 671 471 c 0
 671 528 618 575 490 575 c 0
 450 575 415 566 388 554 c 0
 350 533 329 503 329 466 c 0
 329 432 354 409 384 409 c 0
 421 409 442 434 442 464 c 0
 442 510 398 520 397 521 c 1
 402 525 410 528 416 531 c 0
 440 540 464 542 484 542 c 0
 570 542 558 487 558 473 c 0
 558 468 559 426 534 396 c 1
 524 382 505 365 467 363 c 0
 422 361 425 361 422 360 c 0
 414 359 415 350 415 347 c 0
 415 331 423 332 438 332 c 2
 477 332 l 2
 581 332 572 252 572 223 c 0
 572 205 593 114 483 114 c 0
 465 114 423 116 385 132 c 1
 410 142 426 160 426 192 c 0
 426 228 402 252 366 252 c 0
 330 252 305 230 305 191 c 0
EndSplineSet
EndChar
StartChar: uF2061
Encoding: 991329 991329 331
Width: 1000
Flags: MW
LayerCount: 2
Fore
SplineSet
50 300 m 0
 50 584 236 760 501 760 c 0
 758 760 949 589 950 300 c 0
 950 21 769 -160 499 -160 c 0
 230 -160 50 24 50 300 c 0
289 202 m 1
 535 202 l 1
 535 116 l 1
 535 119 535 121 537 122 c 1
 539 124 413 124 425 124 c 1
 431 124 l 1
 431 86 l 1
 465 88 554 88 585 88 c 0
 615 88 687 88 712 86 c 1
 712 124 l 1
 716 124 l 1
 722 124 634 124 636 123 c 1
 638 122 639 120 639 116 c 1
 639 202 l 1
 711 202 l 1
 711 240 l 1
 639 240 l 1
 639 549 l 2
 639 570 636 574 613 574 c 0
 595 574 596 574 586 562 c 2
 289 240 l 1
 289 202 l 1
332 240 m 1
 546 461 l 1
 546 240 l 1
 332 240 l 1
EndSplineSet
EndChar
StartChar: uF2065
Encoding: 991333 991333 335
Width: 1000
VWidth: 1000
Flags: MW
LayerCount: 2
Fore
SplineSet
50 300 m 0
 50 584 236 760 501 760 c 0
 758 760 949 589 950 300 c 0
 950 21 769 -160 499 -160 c 0
 230 -160 50 24 50 300 c 0
294 208 m 0
 294 114 376 79 498 79 c 0
 652 79 706 148 706 230 c 0
 706 278 686 305 666 325 c 0
 646 346 617 359 607 364 c 1
 664 391 682 424 682 466 c 0
 682 544 609 575 502 575 c 0
 368 575 318 513 318 441 c 0
 318 417 327 389 345 364 c 0
 355 350 366 340 388 331 c 1
 317 301 294 260 294 208 c 0
366 208 m 0
 366 270 418 299 435 309 c 1
 476 291 497 281 562 252 c 1
 605 232 634 219 634 185 c 0
 634 120 545 114 502 114 c 0
 411 114 366 151 366 208 c 0
384 490 m 0
 384 544 470 542 498 542 c 0
 576 542 616 514 616 464 c 0
 616 428 596 407 562 386 c 1
 422 449 l 2
 416 452 384 461 384 490 c 0
EndSplineSet
EndChar
StartChar: uF2066
Encoding: 991334 991334 336
Width: 1000
Flags: MW
LayerCount: 2
Fore
SplineSet
50 300 m 0
 50 584 236 760 501 760 c 0
 758 760 949 589 950 300 c 0
 950 21 769 -160 499 -160 c 0
 230 -160 50 24 50 300 c 0
301 415 m 0
 301 309 378 258 482 258 c 0
 506 258 550 256 588 310 c 1
 588 296 l 2
 588 245 582 203 572 179 c 0
 562 154 524 114 452 114 c 0
 440 114 425 115 409 119 c 0
 402 121 394 124 388 128 c 1
 391 130 424 139 424 178 c 0
 424 205 406 227 374 227 c 0
 341 227 324 204 324 176 c 0
 324 140 342 107 384 91 c 0
 404 85 426 79 454 79 c 0
 571 79 699 132 699 332 c 0
 699 344 722 575 502 575 c 0
 439 575 389 562 359 539 c 1
 324 513 301 466 301 415 c 0
412 414 m 0
 412 454 412 490 426 514 c 0
 436 530 456 542 504 542 c 0
 561 542 577 500 577 498 c 0
 587 473 588 432 588 408 c 0
 588 365 566 287 492 287 c 0
 445 287 432 303 426 316 c 0
 414 339 412 373 412 414 c 0
EndSplineSet
EndChar
StartChar: uF269E
Encoding: 992926 992926 1786
Width: 1000
VWidth: 1000
Flags: MW
LayerCount: 2
Fore
SplineSet
38 301 m 0
 38 407 61 591 217 746 c 0
 235 763 277 800 294 800 c 0
 302 800 312 797 312 786 c 0
 312 781 311 780 296 765 c 0
 186 654 135 497 135 300 c 0
 135 212 147 120 173 41 c 0
 215 -87 280 -148 309 -175 c 0
 309 -176 312 -180 312 -185 c 0
 312 -196 302 -199 294 -199 c 0
 275 -199 184 -132 118 -17 c 0
 71 66 38 176 38 301 c 0
688 -185 m 0
 688 -180 689 -179 704 -164 c 0
 814 -53 865 104 865 301 c 0
 865 458 831 635 705 763 c 0
 688 779 688 781 688 786 c 0
 688 797 698 800 706 800 c 0
 725 800 816 733 882 618 c 0
 929 535 962 425 962 300 c 0
 962 194 939 10 783 -145 c 0
 765 -162 723 -199 706 -199 c 0
 698 -199 688 -196 688 -185 c 0
536 85 m 1
 536 84 536 101 536 100 c 2
 536 117 536 118 544 128 c 2
 673 279 l 2
 720 334 741 383 741 433 c 0
 741 487 711 536 658 536 c 0
 640 536 619 532 599 522 c 1
 601 520 607 520 608 518 c 0
 618 510 634 499 634 464 c 0
 634 424 608 407 585 407 c 0
 565 407 536 422 536 466 c 0
 536 534 598 575 676 575 c 0
 768 575 836 520 836 434 c 0
 836 364 795 329 732 276 c 1
 696 245 673 224 634 188 c 1
 720 188 l 2
 728 188 777 189 786 193 c 1
 795 197 800 248 802 261 c 1
 836 261 l 1
 816 85 l 1
 536 85 l 1
153 325 m 0
 153 369 152 468 200 528 c 1
 221 550 252 575 311 575 c 0
 365 575 393 555 413 541 c 0
 470 483 469 373 469 325 c 0
 469 277 469 175 416 117 c 0
 396 100 366 79 311 79 c 0
 255 79 226 100 205 120 c 0
 154 177 153 277 153 325 c 0
242 334 m 0
 242 294 242 213 248 175 c 0
 254 124 289 109 311 109 c 0
 327 109 369 116 377 186 c 0
 380 223 380 296 380 334 c 0
 380 400 381 484 369 508 c 0
 356 531 335 545 311 545 c 0
 296 545 253 538 247 476 c 0
 242 437 242 390 242 334 c 0
EndSplineSet
EndChar
StartChar: uF269F
Encoding: 992927 992927 1787
Width: 1000
Flags: MW
LayerCount: 2
Fore
SplineSet
38 301 m 0
 38 407 61 591 217 746 c 0
 235 763 277 800 294 800 c 0
 302 800 312 797 312 786 c 0
 312 781 311 780 296 765 c 0
 186 654 135 497 135 300 c 0
 135 212 147 120 173 41 c 0
 215 -87 280 -148 309 -175 c 0
 309 -176 312 -180 312 -185 c 0
 312 -196 302 -199 294 -199 c 0
 275 -199 184 -132 118 -17 c 0
 71 66 38 176 38 301 c 0
688 -185 m 0
 688 -180 689 -179 704 -164 c 0
 814 -53 865 104 865 301 c 0
 865 458 831 635 705 763 c 0
 688 779 688 781 688 786 c 0
 688 797 698 800 706 800 c 0
 725 800 816 733 882 618 c 0
 929 535 962 425 962 300 c 0
 962 194 939 10 783 -145 c 0
 765 -162 723 -199 706 -199 c 0
 698 -199 688 -196 688 -185 c 0
531 191 m 0
 531 230 553 252 583 252 c 0
 613 252 635 228 635 192 c 0
 635 160 621 142 600 132 c 1
 634 116 661 114 674 114 c 0
 751 114 738 205 738 223 c 0
 738 252 744 332 671 332 c 2
 644 332 l 2
 632 332 625 331 625 347 c 0
 625 350 625 359 632 360 c 0
 634 361 633 361 665 363 c 0
 691 365 704 382 711 396 c 1
 729 426 728 468 728 473 c 0
 728 487 736 542 676 542 c 0
 658 542 633 538 611 521 c 1
 611 520 647 510 647 464 c 0
 647 434 629 409 599 409 c 0
 573 409 552 432 552 466 c 0
 552 527 601 575 679 575 c 0
 776 575 822 528 822 471 c 0
 822 406 774 364 733 349 c 1
 831 324 843 259 843 223 c 0
 843 157 801 79 678 79 c 0
 594 79 531 123 531 191 c 0
154 325 m 0
 154 369 153 468 201 528 c 1
 222 550 253 575 312 575 c 0
 366 575 394 555 414 541 c 0
 471 483 470 373 470 325 c 0
 470 277 470 175 417 117 c 0
 397 100 367 79 312 79 c 0
 256 79 227 100 206 120 c 0
 155 177 154 277 154 325 c 0
244 334 m 0
 244 294 243 213 249 175 c 0
 255 124 290 109 312 109 c 0
 328 109 370 116 378 186 c 0
 381 223 381 296 381 334 c 0
 381 400 382 484 370 508 c 0
 357 531 336 545 312 545 c 0
 297 545 254 538 248 476 c 0
 243 437 244 390 244 334 c 0
EndSplineSet
EndChar
StartChar: uF26A0
Encoding: 992928 992928 1788
Width: 1000
Flags: MW
LayerCount: 2
Fore
SplineSet
38 301 m 0
 38 407 61 591 217 746 c 0
 235 763 277 800 294 800 c 0
 302 800 312 797 312 786 c 0
 312 781 311 780 296 765 c 0
 186 654 135 497 135 300 c 0
 135 212 147 120 173 41 c 0
 215 -87 280 -148 309 -175 c 0
 309 -176 312 -180 312 -185 c 0
 312 -196 302 -199 294 -199 c 0
 275 -199 184 -132 118 -17 c 0
 71 66 38 176 38 301 c 0
688 -185 m 0
 688 -180 689 -179 704 -164 c 0
 814 -53 865 104 865 301 c 0
 865 458 831 635 705 763 c 0
 688 779 688 781 688 786 c 0
 688 797 698 800 706 800 c 0
 725 800 816 733 882 618 c 0
 929 535 962 425 962 300 c 0
 962 194 939 10 783 -145 c 0
 765 -162 723 -199 706 -199 c 0
 698 -199 688 -196 688 -185 c 0
522 201 m 1
 522 239 l 1
 750 561 l 2
 758 573 758 574 774 574 c 0
 794 574 795 570 795 549 c 2
 795 239 l 1
 855 239 l 1
 855 201 l 1
 795 201 l 1
 795 115 l 1
 795 122 874 124 860 124 c 1
 856 124 l 1
 856 86 l 1
 836 88 774 88 750 88 c 0
 723 88 658 88 634 86 c 1
 634 124 l 1
 630 124 l 1
 616 124 708 122 708 115 c 1
 708 201 l 1
 522 201 l 1
559 239 m 1
 715 239 l 1
 715 459 l 1
 559 239 l 1
156 324 m 0
 156 368 154 468 202 528 c 1
 223 550 255 575 314 575 c 0
 368 575 396 555 416 541 c 0
 473 483 472 372 472 324 c 0
 472 276 472 175 419 117 c 0
 399 100 369 79 314 79 c 0
 258 79 229 100 208 120 c 0
 157 177 156 276 156 324 c 0
246 334 m 0
 246 294 245 214 251 176 c 0
 257 125 292 108 314 108 c 0
 330 108 372 116 380 186 c 0
 383 223 383 296 383 334 c 0
 383 400 384 484 372 508 c 0
 359 531 338 545 314 545 c 0
 299 545 256 538 250 476 c 0
 245 437 246 390 246 334 c 0
EndSplineSet
EndChar
StartChar: uF26A1
Encoding: 992929 992929 1789
Width: 1000
VWidth: 1000
Flags: MW
LayerCount: 2
Fore
SplineSet
38 301 m 0
 38 407 61 591 217 746 c 0
 235 763 277 800 294 800 c 0
 302 800 312 797 312 786 c 0
 312 781 311 780 296 765 c 0
 186 654 135 497 135 300 c 0
 135 212 147 120 173 41 c 0
 215 -87 280 -148 309 -175 c 0
 309 -176 312 -180 312 -185 c 0
 312 -196 302 -199 294 -199 c 0
 275 -199 184 -132 118 -17 c 0
 71 66 38 176 38 301 c 0
688 -185 m 0
 688 -180 689 -179 704 -164 c 0
 814 -53 865 104 865 301 c 0
 865 458 831 635 705 763 c 0
 688 779 688 781 688 786 c 0
 688 797 698 800 706 800 c 0
 725 800 816 733 882 618 c 0
 929 535 962 425 962 300 c 0
 962 194 939 10 783 -145 c 0
 765 -162 723 -199 706 -199 c 0
 698 -199 688 -196 688 -185 c 0
536 205 m 0
 536 254 572 260 582 260 c 0
 596 260 626 251 626 205 c 0
 626 176 612 159 594 153 c 0
 594 152 589 152 586 152 c 1
 618 109 658 114 664 114 c 0
 690 114 706 120 716 132 c 1
 738 158 738 201 738 238 c 0
 738 275 738 318 724 342 c 0
 716 357 702 360 684 360 c 0
 666 360 629 361 599 321 c 0
 595 315 591 311 582 311 c 0
 567 311 568 321 568 335 c 2
 568 555 l 2
 568 567 568 575 577 575 c 0
 579 575 580 574 586 572 c 0
 598 567 633 551 688 551 c 0
 710 551 743 554 787 572 c 0
 796 575 796 575 798 575 c 0
 807 575 807 565 807 560 c 0
 807 539 746 450 650 450 c 0
 628 450 625 450 606 454 c 1
 606 367 l 1
 638 391 672 390 687 390 c 0
 788 390 836 321 836 236 c 0
 836 145 775 79 667 79 c 0
 587 79 536 141 536 205 c 0
153 325 m 0
 153 369 152 468 200 528 c 1
 221 550 252 575 311 575 c 0
 365 575 393 555 413 541 c 0
 470 483 469 373 469 325 c 0
 469 277 469 175 416 117 c 0
 396 100 366 79 311 79 c 0
 255 79 226 100 205 120 c 0
 154 177 153 277 153 325 c 0
242 334 m 0
 242 294 242 213 248 175 c 0
 254 124 289 109 311 109 c 0
 327 109 369 116 377 186 c 0
 380 223 380 296 380 334 c 0
 380 400 381 484 369 508 c 0
 356 531 335 545 311 545 c 0
 296 545 253 538 247 476 c 0
 242 437 242 390 242 334 c 0
EndSplineSet
EndChar
StartChar: uF26A2
Encoding: 992930 992930 1790
Width: 1000
VWidth: 1000
Flags: MW
LayerCount: 2
Fore
SplineSet
38 301 m 0
 38 407 61 591 217 746 c 0
 235 763 277 800 294 800 c 0
 302 800 312 797 312 786 c 0
 312 781 311 780 296 765 c 0
 186 654 135 497 135 300 c 0
 135 212 147 120 173 41 c 0
 215 -87 280 -148 309 -175 c 0
 309 -176 312 -180 312 -185 c 0
 312 -196 302 -199 294 -199 c 0
 275 -199 184 -132 118 -17 c 0
 71 66 38 176 38 301 c 0
688 -185 m 0
 688 -180 689 -179 704 -164 c 0
 814 -53 865 104 865 301 c 0
 865 458 831 635 705 763 c 0
 688 779 688 781 688 786 c 0
 688 797 698 800 706 800 c 0
 725 800 816 733 882 618 c 0
 929 535 962 425 962 300 c 0
 962 194 939 10 783 -145 c 0
 765 -162 723 -199 706 -199 c 0
 698 -199 688 -196 688 -185 c 0
531 323 m 0
 531 518 642 575 728 575 c 0
 799 575 824 524 824 478 c 0
 824 450 812 427 782 427 c 0
 754 427 740 449 740 476 c 0
 740 495 748 521 774 526 c 1
 759 541 739 542 729 542 c 0
 685 542 651 511 639 479 c 0
 639 473 626 446 626 358 c 2
 626 345 l 1
 657 407 695 397 700 397 c 0
 778 397 843 347 843 239 c 0
 843 139 782 79 689 79 c 0
 642 79 593 97 562 153 c 1
 533 208 531 269 531 323 c 0
626 240 m 0
 626 226 627 173 636 152 c 0
 641 140 658 114 689 114 c 0
 727 114 738 132 742 152 c 0
 749 174 750 205 750 242 c 0
 750 282 750 314 742 336 c 0
 738 352 725 368 692 368 c 0
 664 368 626 343 626 240 c 0
154 325 m 0
 154 369 153 468 201 528 c 1
 222 550 253 575 312 575 c 0
 366 575 394 555 414 541 c 0
 471 483 470 373 470 325 c 0
 470 277 470 175 417 117 c 0
 397 100 367 79 312 79 c 0
 256 79 227 100 206 120 c 0
 155 177 154 277 154 325 c 0
244 334 m 0
 244 294 243 213 249 175 c 0
 255 124 290 109 312 109 c 0
 328 109 370 116 378 186 c 0
 381 223 381 296 381 334 c 0
 381 400 382 484 370 508 c 0
 357 531 336 545 312 545 c 0
 297 545 254 538 248 476 c 0
 243 437 244 390 244 334 c 0
EndSplineSet
EndChar
StartChar: uF26A3
Encoding: 992931 992931 1791
Width: 1000
Flags: MW
LayerCount: 2
Fore
SplineSet
38 301 m 0
 38 407 61 591 217 746 c 0
 235 763 277 800 294 800 c 0
 302 800 312 797 312 786 c 0
 312 781 311 780 296 765 c 0
 186 654 135 497 135 300 c 0
 135 212 147 120 173 41 c 0
 215 -87 280 -148 309 -175 c 0
 309 -176 312 -180 312 -185 c 0
 312 -196 302 -199 294 -199 c 0
 275 -199 184 -132 118 -17 c 0
 71 66 38 176 38 301 c 0
688 -185 m 0
 688 -180 689 -179 704 -164 c 0
 814 -53 865 104 865 301 c 0
 865 458 831 635 705 763 c 0
 688 779 688 781 688 786 c 0
 688 797 698 800 706 800 c 0
 725 800 816 733 882 618 c 0
 929 535 962 425 962 300 c 0
 962 194 939 10 783 -145 c 0
 765 -162 723 -199 706 -199 c 0
 698 -199 688 -196 688 -185 c 0
545 396 m 1
 568 595 l 1
 600 595 l 1
 602 587 602 582 614 579 c 1
 622 576 736 571 746 571 c 2
 868 571 l 1
 868 543 868 541 861 533 c 2
 760 400 l 2
 741 373 727 334 720 276 c 0
 716 242 713 207 713 172 c 2
 713 138 l 2
 713 78 674 82 670 82 c 0
 674 82 628 74 628 137 c 0
 628 257 680 358 742 438 c 1
 738 432 768 471 766 468 c 1
 666 468 l 2
 655 468 605 468 596 464 c 0
 596 464 587 464 579 396 c 1
 545 396 l 1
157 327 m 0
 157 371 156 472 204 532 c 1
 225 554 257 577 316 577 c 0
 370 577 398 557 418 543 c 0
 475 485 474 375 474 327 c 0
 474 279 474 178 421 120 c 0
 401 103 371 82 316 82 c 0
 260 82 229 102 208 122 c 0
 157 179 157 279 157 327 c 0
246 336 m 0
 246 296 246 216 252 178 c 0
 258 127 294 112 316 112 c 0
 332 112 373 118 381 188 c 0
 384 225 385 298 385 336 c 0
 385 402 385 487 373 511 c 0
 360 534 340 548 316 548 c 0
 301 548 258 541 252 479 c 0
 247 440 246 392 246 336 c 0
EndSplineSet
EndChar
StartChar: uF26A4
Encoding: 992932 992932 1792
Width: 1000
Flags: MW
LayerCount: 2
Fore
SplineSet
38 301 m 0
 38 407 61 591 217 746 c 0
 235 763 277 800 294 800 c 0
 302 800 312 797 312 786 c 0
 312 781 311 780 296 765 c 0
 186 654 135 497 135 300 c 0
 135 212 147 120 173 41 c 0
 215 -87 280 -148 309 -175 c 0
 309 -176 312 -180 312 -185 c 0
 312 -196 302 -199 294 -199 c 0
 275 -199 184 -132 118 -17 c 0
 71 66 38 176 38 301 c 0
688 -185 m 0
 688 -180 689 -179 704 -164 c 0
 814 -53 865 104 865 301 c 0
 865 458 831 635 705 763 c 0
 688 779 688 781 688 786 c 0
 688 797 698 800 706 800 c 0
 725 800 816 733 882 618 c 0
 929 535 962 425 962 300 c 0
 962 194 939 10 783 -145 c 0
 765 -162 723 -199 706 -199 c 0
 698 -199 688 -196 688 -185 c 0
531 208 m 0
 531 260 550 301 608 331 c 1
 593 340 584 350 575 364 c 0
 558 389 552 417 552 441 c 0
 552 513 595 575 690 575 c 0
 766 575 822 544 822 466 c 0
 822 424 806 391 762 364 c 1
 769 359 792 346 810 325 c 0
 828 305 843 278 843 230 c 0
 843 148 795 79 686 79 c 0
 601 79 531 114 531 208 c 0
592 208 m 0
 592 151 626 114 690 114 c 0
 722 114 782 120 782 185 c 0
 782 219 760 232 730 252 c 1
 685 281 669 291 641 309 c 1
 629 299 592 270 592 208 c 0
605 490 m 0
 605 461 627 452 631 449 c 2
 731 386 l 1
 755 407 769 428 769 464 c 0
 769 514 741 542 686 542 c 0
 667 542 605 544 605 490 c 0
154 325 m 0
 154 369 153 468 201 528 c 1
 222 550 253 575 312 575 c 0
 366 575 394 555 414 541 c 0
 471 483 470 373 470 325 c 0
 470 277 470 175 417 117 c 0
 397 100 367 79 312 79 c 0
 256 79 227 100 206 120 c 0
 155 177 154 277 154 325 c 0
244 334 m 0
 244 294 243 213 249 175 c 0
 255 124 290 109 312 109 c 0
 328 109 370 116 378 186 c 0
 381 223 381 296 381 334 c 0
 381 400 382 484 370 508 c 0
 357 531 336 545 312 545 c 0
 297 545 254 538 248 476 c 0
 243 437 244 390 244 334 c 0
EndSplineSet
EndChar
StartChar: uF26A5
Encoding: 992933 992933 1793
Width: 1000
Flags: MW
LayerCount: 2
Fore
SplineSet
38 301 m 0
 38 407 61 591 217 746 c 0
 235 763 277 800 294 800 c 0
 302 800 312 797 312 786 c 0
 312 781 311 780 296 765 c 0
 186 654 135 497 135 300 c 0
 135 212 147 120 173 41 c 0
 215 -87 280 -148 309 -175 c 0
 309 -176 312 -180 312 -185 c 0
 312 -196 302 -199 294 -199 c 0
 275 -199 184 -132 118 -17 c 0
 71 66 38 176 38 301 c 0
688 -185 m 0
 688 -180 689 -179 704 -164 c 0
 814 -53 865 104 865 301 c 0
 865 458 831 635 705 763 c 0
 688 779 688 781 688 786 c 0
 688 797 698 800 706 800 c 0
 725 800 816 733 882 618 c 0
 929 535 962 425 962 300 c 0
 962 194 939 10 783 -145 c 0
 765 -162 723 -199 706 -199 c 0
 698 -199 688 -196 688 -185 c 0
531 415 m 0
 531 466 549 513 579 539 c 1
 606 562 644 575 689 575 c 0
 865 575 843 344 843 332 c 0
 843 132 738 79 656 79 c 0
 581 79 550 125 550 176 c 0
 550 204 563 227 593 227 c 0
 621 227 635 205 635 178 c 0
 635 139 606 130 604 128 c 1
 624 116 642 114 654 114 c 0
 704 114 731 154 738 179 c 0
 746 203 750 245 750 296 c 2
 750 310 l 1
 723 256 691 258 675 258 c 0
 596 258 531 309 531 415 c 0
626 414 m 0
 626 373 624 339 633 316 c 0
 637 303 650 287 682 287 c 0
 734 287 749 365 749 408 c 0
 749 432 750 473 742 498 c 0
 743 500 728 542 689 542 c 0
 655 542 643 530 635 514 c 0
 625 490 626 454 626 414 c 0
154 325 m 0
 154 369 153 468 201 528 c 1
 222 550 253 575 312 575 c 0
 366 575 394 555 414 541 c 0
 471 483 470 373 470 325 c 0
 470 277 470 175 417 117 c 0
 397 100 367 79 312 79 c 0
 256 79 227 100 206 120 c 0
 155 177 154 277 154 325 c 0
244 334 m 0
 244 294 243 213 249 175 c 0
 255 124 290 109 312 109 c 0
 328 109 370 116 378 186 c 0
 381 223 381 296 381 334 c 0
 381 400 382 484 370 508 c 0
 357 531 336 545 312 545 c 0
 297 545 254 538 248 476 c 0
 243 437 244 390 244 334 c 0
EndSplineSet
EndChar
StartChar: uF26A7
Encoding: 992935 992935 1795
Width: 1000
VWidth: 1000
Flags: MW
LayerCount: 2
Fore
SplineSet
38 301 m 0
 38 407 61 591 217 746 c 0
 235 763 277 800 294 800 c 0
 302 800 312 797 312 786 c 0
 312 781 311 780 296 765 c 0
 186 654 135 497 135 300 c 0
 135 212 147 120 173 41 c 0
 215 -87 280 -148 309 -175 c 0
 309 -176 312 -180 312 -185 c 0
 312 -196 302 -199 294 -199 c 0
 275 -199 184 -132 118 -17 c 0
 71 66 38 176 38 301 c 0
688 -185 m 0
 688 -180 689 -179 704 -164 c 0
 814 -53 865 104 865 301 c 0
 865 458 831 635 705 763 c 0
 688 779 688 781 688 786 c 0
 688 797 698 800 706 800 c 0
 725 800 816 733 882 618 c 0
 929 535 962 425 962 300 c 0
 962 194 939 10 783 -145 c 0
 765 -162 723 -199 706 -199 c 0
 698 -199 688 -196 688 -185 c 0
538 87 m 1
 538 86 538 101 538 100 c 2
 538 117 538 118 546 128 c 2
 674 281 l 2
 721 336 743 384 743 434 c 0
 743 488 712 538 659 538 c 0
 641 538 621 534 601 524 c 1
 603 522 607 522 608 520 c 0
 618 512 635 501 635 466 c 0
 635 426 609 409 586 409 c 0
 566 409 538 423 538 467 c 0
 538 535 600 576 678 576 c 0
 770 576 838 520 838 434 c 0
 838 364 795 331 732 278 c 1
 696 247 675 226 636 190 c 1
 722 190 l 2
 730 190 778 189 787 193 c 1
 796 197 802 249 804 262 c 1
 838 262 l 1
 817 87 l 1
 538 87 l 1
162 87 m 1
 162 86 162 101 162 100 c 2
 162 117 163 118 171 128 c 2
 299 281 l 2
 346 336 367 384 367 434 c 0
 367 488 337 538 284 538 c 0
 266 538 246 534 226 524 c 1
 228 522 233 522 234 520 c 0
 244 512 260 501 260 466 c 0
 260 426 234 409 211 409 c 0
 191 409 162 423 162 467 c 0
 162 535 225 576 303 576 c 0
 395 576 462 520 462 434 c 0
 462 364 421 331 358 278 c 1
 322 247 299 226 260 190 c 1
 346 190 l 2
 354 190 403 189 412 193 c 1
 421 197 427 249 429 262 c 1
 462 262 l 1
 442 87 l 1
 162 87 l 1
EndSplineSet
EndChar
StartChar: uF26A8
Encoding: 992936 992936 1796
Width: 1000
Flags: MW
LayerCount: 2
Fore
SplineSet
38 301 m 0
 38 407 61 591 217 746 c 0
 235 763 277 800 294 800 c 0
 302 800 312 797 312 786 c 0
 312 781 311 780 296 765 c 0
 186 654 135 497 135 300 c 0
 135 212 147 120 173 41 c 0
 215 -87 280 -148 309 -175 c 0
 309 -176 312 -180 312 -185 c 0
 312 -196 302 -199 294 -199 c 0
 275 -199 184 -132 118 -17 c 0
 71 66 38 176 38 301 c 0
688 -185 m 0
 688 -180 689 -179 704 -164 c 0
 814 -53 865 104 865 301 c 0
 865 458 831 635 705 763 c 0
 688 779 688 781 688 786 c 0
 688 797 698 800 706 800 c 0
 725 800 816 733 882 618 c 0
 929 535 962 425 962 300 c 0
 962 194 939 10 783 -145 c 0
 765 -162 723 -199 706 -199 c 0
 698 -199 688 -196 688 -185 c 0
532 191 m 0
 532 230 555 252 585 252 c 0
 615 252 636 228 636 192 c 0
 636 160 623 142 602 132 c 1
 636 116 661 114 674 114 c 0
 751 114 740 205 740 223 c 0
 740 252 746 332 673 332 c 2
 645 332 l 2
 633 332 626 331 626 347 c 0
 626 350 626 359 633 360 c 0
 635 361 634 361 666 363 c 0
 692 365 705 382 712 396 c 1
 730 426 729 468 729 473 c 0
 729 487 737 542 677 542 c 0
 659 542 634 538 612 521 c 1
 612 520 648 510 648 464 c 0
 648 434 630 409 600 409 c 0
 574 409 554 432 554 466 c 0
 554 527 603 575 681 575 c 0
 778 575 824 528 824 471 c 0
 824 406 775 364 734 349 c 1
 832 324 844 259 844 223 c 0
 844 157 802 79 679 79 c 0
 595 79 532 123 532 191 c 0
164 85 m 1
 164 84 164 101 164 100 c 2
 164 117 164 118 172 128 c 2
 300 279 l 2
 347 334 369 383 369 433 c 0
 369 487 338 536 285 536 c 0
 267 536 247 532 227 522 c 1
 229 520 233 520 234 518 c 0
 244 510 261 499 261 464 c 0
 261 424 235 407 212 407 c 0
 192 407 164 422 164 466 c 0
 164 534 226 575 304 575 c 0
 396 575 464 520 464 434 c 0
 464 364 421 329 358 276 c 1
 322 245 301 224 262 188 c 1
 348 188 l 2
 356 188 404 189 413 193 c 1
 422 197 428 248 430 261 c 1
 464 261 l 1
 443 85 l 1
 164 85 l 1
EndSplineSet
EndChar
StartChar: uF26A9
Encoding: 992937 992937 1797
Width: 1000
VWidth: 1000
Flags: MW
LayerCount: 2
Fore
SplineSet
38 301 m 0
 38 407 61 591 217 746 c 0
 235 763 277 800 294 800 c 0
 302 800 312 797 312 786 c 0
 312 781 311 780 296 765 c 0
 186 654 135 497 135 300 c 0
 135 212 147 120 173 41 c 0
 215 -87 280 -148 309 -175 c 0
 309 -176 312 -180 312 -185 c 0
 312 -196 302 -199 294 -199 c 0
 275 -199 184 -132 118 -17 c 0
 71 66 38 176 38 301 c 0
688 -185 m 0
 688 -180 689 -179 704 -164 c 0
 814 -53 865 104 865 301 c 0
 865 458 831 635 705 763 c 0
 688 779 688 781 688 786 c 0
 688 797 698 800 706 800 c 0
 725 800 816 733 882 618 c 0
 929 535 962 425 962 300 c 0
 962 194 939 10 783 -145 c 0
 765 -162 723 -199 706 -199 c 0
 698 -199 688 -196 688 -185 c 0
524 202 m 1
 524 240 l 1
 752 562 l 2
 760 574 759 574 775 574 c 0
 795 574 797 570 797 549 c 2
 797 240 l 1
 857 240 l 1
 857 202 l 1
 797 202 l 1
 797 116 l 1
 797 123 876 124 862 124 c 1
 858 124 l 1
 858 86 l 1
 838 88 775 88 751 88 c 0
 724 88 659 88 635 86 c 1
 635 124 l 1
 631 124 l 1
 617 124 709 123 709 116 c 1
 709 202 l 1
 524 202 l 1
561 240 m 1
 717 240 l 1
 717 461 l 1
 561 240 l 1
165 86 m 1
 165 85 165 102 165 101 c 2
 165 118 166 118 174 128 c 2
 302 280 l 2
 349 335 370 384 370 434 c 0
 370 488 340 537 287 537 c 0
 269 537 249 534 229 524 c 1
 231 522 235 522 236 520 c 0
 246 512 263 501 263 466 c 0
 263 426 237 408 214 408 c 0
 194 408 165 423 165 467 c 0
 165 535 228 575 306 575 c 0
 398 575 465 521 465 435 c 0
 465 365 424 331 361 278 c 1
 325 247 302 226 263 190 c 1
 349 190 l 2
 357 190 406 189 415 193 c 1
 424 197 429 248 431 261 c 1
 465 261 l 1
 446 86 l 1
 165 86 l 1
EndSplineSet
EndChar
StartChar: uF26AC
Encoding: 992940 992940 1800
Width: 1000
VWidth: 1000
Flags: MW
LayerCount: 2
Fore
SplineSet
38 301 m 0
 38 407 61 591 217 746 c 0
 235 763 277 800 294 800 c 0
 302 800 312 797 312 786 c 0
 312 781 311 780 296 765 c 0
 186 654 135 497 135 300 c 0
 135 212 147 120 173 41 c 0
 215 -87 280 -148 309 -175 c 0
 309 -176 312 -180 312 -185 c 0
 312 -196 302 -199 294 -199 c 0
 275 -199 184 -132 118 -17 c 0
 71 66 38 176 38 301 c 0
688 -185 m 0
 688 -180 689 -179 704 -164 c 0
 814 -53 865 104 865 301 c 0
 865 458 831 635 705 763 c 0
 688 779 688 781 688 786 c 0
 688 797 698 800 706 800 c 0
 725 800 816 733 882 618 c 0
 929 535 962 425 962 300 c 0
 962 194 939 10 783 -145 c 0
 765 -162 723 -199 706 -199 c 0
 698 -199 688 -196 688 -185 c 0
546 396 m 1
 568 595 l 1
 602 595 l 1
 604 587 604 582 616 579 c 1
 624 576 738 571 748 571 c 2
 869 571 l 1
 869 543 869 541 862 533 c 2
 761 400 l 2
 742 373 727 334 720 276 c 0
 716 242 714 207 714 172 c 2
 714 138 l 2
 714 78 675 82 671 82 c 0
 675 82 628 74 628 137 c 0
 628 257 681 358 743 438 c 1
 739 432 769 471 767 468 c 1
 668 468 l 2
 657 468 605 468 596 464 c 0
 596 464 588 464 580 396 c 1
 546 396 l 1
167 88 m 1
 167 87 167 104 167 103 c 2
 167 120 167 120 175 130 c 2
 303 282 l 2
 350 337 372 386 372 436 c 0
 372 490 343 539 290 539 c 0
 272 539 250 536 230 526 c 1
 232 524 237 524 238 522 c 0
 248 514 265 503 265 468 c 0
 265 428 239 410 216 410 c 0
 196 410 167 424 167 468 c 0
 167 536 229 577 307 577 c 0
 399 577 467 523 467 437 c 0
 467 367 426 333 363 280 c 1
 327 249 304 227 265 191 c 1
 351 191 l 2
 359 191 408 191 417 195 c 1
 426 199 431 251 433 264 c 1
 467 264 l 1
 448 88 l 1
 167 88 l 1
EndSplineSet
EndChar
StartChar: uF26B1
Encoding: 992945 992945 1805
Width: 1000
VWidth: 1000
Flags: MW
LayerCount: 2
Fore
SplineSet
38 301 m 0
 38 407 61 591 217 746 c 0
 235 763 277 800 294 800 c 0
 302 800 312 797 312 786 c 0
 312 781 311 780 296 765 c 0
 186 654 135 497 135 300 c 0
 135 212 147 120 173 41 c 0
 215 -87 280 -148 309 -175 c 0
 309 -176 312 -180 312 -185 c 0
 312 -196 302 -199 294 -199 c 0
 275 -199 184 -132 118 -17 c 0
 71 66 38 176 38 301 c 0
688 -185 m 0
 688 -180 689 -179 704 -164 c 0
 814 -53 865 104 865 301 c 0
 865 458 831 635 705 763 c 0
 688 779 688 781 688 786 c 0
 688 797 698 800 706 800 c 0
 725 800 816 733 882 618 c 0
 929 535 962 425 962 300 c 0
 962 194 939 10 783 -145 c 0
 765 -162 723 -199 706 -199 c 0
 698 -199 688 -196 688 -185 c 0
536 85 m 1
 536 84 536 101 536 100 c 2
 536 117 537 118 545 128 c 2
 673 279 l 2
 720 334 741 383 741 433 c 0
 741 487 711 536 658 536 c 0
 640 536 620 532 600 522 c 1
 602 520 607 520 608 518 c 0
 618 510 634 499 634 464 c 0
 634 424 608 407 585 407 c 0
 565 407 536 422 536 466 c 0
 536 534 599 575 677 575 c 0
 769 575 836 520 836 434 c 0
 836 364 795 329 732 276 c 1
 696 245 673 224 634 188 c 1
 720 188 l 2
 728 188 777 189 786 193 c 1
 795 197 801 248 803 261 c 1
 836 261 l 1
 816 85 l 1
 536 85 l 1
156 191 m 0
 156 230 178 252 208 252 c 0
 238 252 259 228 259 192 c 0
 259 160 246 142 225 132 c 1
 259 116 286 114 299 114 c 0
 376 114 363 205 363 223 c 0
 363 252 368 332 295 332 c 2
 268 332 l 2
 256 332 249 331 249 347 c 0
 249 350 251 359 258 360 c 0
 260 361 257 361 289 363 c 0
 315 365 328 382 335 396 c 1
 353 426 352 468 352 473 c 0
 352 487 360 542 300 542 c 0
 282 542 257 538 235 521 c 1
 235 520 271 510 271 464 c 0
 271 434 254 409 224 409 c 0
 198 409 176 432 176 466 c 0
 176 527 226 575 304 575 c 0
 401 575 446 528 446 471 c 0
 446 406 398 364 357 349 c 1
 455 324 468 259 468 223 c 0
 468 157 425 79 302 79 c 0
 218 79 156 123 156 191 c 0
EndSplineSet
EndChar
StartChar: uF26B6
Encoding: 992950 992950 1810
Width: 1000
Flags: MW
LayerCount: 2
Fore
SplineSet
38 301 m 0
 38 407 61 591 217 746 c 0
 235 763 277 800 294 800 c 0
 302 800 312 797 312 786 c 0
 312 781 311 780 296 765 c 0
 186 654 135 497 135 300 c 0
 135 212 147 120 173 41 c 0
 215 -87 280 -148 309 -175 c 0
 309 -176 312 -180 312 -185 c 0
 312 -196 302 -199 294 -199 c 0
 275 -199 184 -132 118 -17 c 0
 71 66 38 176 38 301 c 0
688 -185 m 0
 688 -180 689 -179 704 -164 c 0
 814 -53 865 104 865 301 c 0
 865 458 831 635 705 763 c 0
 688 779 688 781 688 786 c 0
 688 797 698 800 706 800 c 0
 725 800 816 733 882 618 c 0
 929 535 962 425 962 300 c 0
 962 194 939 10 783 -145 c 0
 765 -162 723 -199 706 -199 c 0
 698 -199 688 -196 688 -185 c 0
546 396 m 1
 568 595 l 1
 602 595 l 1
 604 587 602 582 614 579 c 1
 622 576 736 571 746 571 c 2
 868 571 l 1
 868 543 868 541 861 533 c 2
 760 400 l 2
 741 373 726 334 719 276 c 0
 715 242 713 207 713 172 c 2
 713 138 l 2
 713 78 674 82 670 82 c 0
 674 82 629 74 629 137 c 0
 629 257 680 358 742 438 c 1
 738 432 768 471 766 468 c 1
 667 468 l 2
 656 468 606 468 597 464 c 0
 597 464 587 464 579 396 c 1
 546 396 l 1
160 193 m 0
 160 232 182 256 212 256 c 0
 242 256 264 231 264 195 c 0
 264 163 250 146 229 136 c 1
 263 120 290 117 303 117 c 0
 380 117 366 208 366 226 c 0
 366 255 373 335 300 335 c 2
 272 335 l 2
 260 335 254 333 254 349 c 0
 254 352 254 362 261 363 c 0
 263 364 262 364 294 366 c 0
 320 368 333 385 340 399 c 1
 358 429 357 471 357 476 c 0
 357 490 365 546 305 546 c 0
 287 546 262 541 240 524 c 1
 240 523 276 514 276 468 c 0
 276 438 258 412 228 412 c 0
 202 412 181 434 181 468 c 0
 181 529 230 577 308 577 c 0
 405 577 451 530 451 473 c 0
 451 408 403 367 362 352 c 1
 460 327 472 261 472 225 c 0
 472 159 430 82 307 82 c 0
 223 82 160 125 160 193 c 0
EndSplineSet
EndChar
StartChar: uF26B7
Encoding: 992951 992951 1811
Width: 1000
Flags: MW
LayerCount: 2
Fore
SplineSet
38 301 m 0
 38 407 61 591 217 746 c 0
 235 763 277 800 294 800 c 0
 302 800 312 797 312 786 c 0
 312 781 311 780 296 765 c 0
 186 654 135 497 135 300 c 0
 135 212 147 120 173 41 c 0
 215 -87 280 -148 309 -175 c 0
 309 -176 312 -180 312 -185 c 0
 312 -196 302 -199 294 -199 c 0
 275 -199 184 -132 118 -17 c 0
 71 66 38 176 38 301 c 0
688 -185 m 0
 688 -180 689 -179 704 -164 c 0
 814 -53 865 104 865 301 c 0
 865 458 831 635 705 763 c 0
 688 779 688 781 688 786 c 0
 688 797 698 800 706 800 c 0
 725 800 816 733 882 618 c 0
 929 535 962 425 962 300 c 0
 962 194 939 10 783 -145 c 0
 765 -162 723 -199 706 -199 c 0
 698 -199 688 -196 688 -185 c 0
532 208 m 0
 532 260 551 301 609 331 c 1
 594 340 584 350 575 364 c 0
 558 389 552 417 552 441 c 0
 552 513 595 575 690 575 c 0
 766 575 822 544 822 466 c 0
 822 424 806 391 762 364 c 1
 769 359 792 346 810 325 c 0
 828 305 844 278 844 230 c 0
 844 148 795 79 686 79 c 0
 601 79 532 114 532 208 c 0
593 208 m 0
 593 151 626 114 690 114 c 0
 722 114 782 120 782 185 c 0
 782 219 762 232 732 252 c 1
 687 281 670 291 642 309 c 1
 630 299 593 270 593 208 c 0
605 490 m 0
 605 461 628 452 632 449 c 2
 731 386 l 1
 755 407 770 428 770 464 c 0
 770 514 741 542 686 542 c 0
 667 542 605 544 605 490 c 0
156 191 m 0
 156 230 179 252 209 252 c 0
 239 252 260 228 260 192 c 0
 260 160 247 142 226 132 c 1
 260 116 285 114 298 114 c 0
 375 114 364 205 364 223 c 0
 364 252 370 332 297 332 c 2
 269 332 l 2
 257 332 250 331 250 347 c 0
 250 350 250 359 257 360 c 0
 259 361 258 361 290 363 c 0
 316 365 329 382 336 396 c 1
 354 426 353 468 353 473 c 0
 353 487 361 542 301 542 c 0
 283 542 258 538 236 521 c 1
 236 520 272 510 272 464 c 0
 272 434 254 409 224 409 c 0
 198 409 178 432 178 466 c 0
 178 527 227 575 305 575 c 0
 402 575 448 528 448 471 c 0
 448 406 399 364 358 349 c 1
 456 324 468 259 468 223 c 0
 468 157 426 79 303 79 c 0
 219 79 156 123 156 191 c 0
EndSplineSet
EndChar
StartChar: uF26B8
Encoding: 992952 992952 1812
Width: 1000
Flags: MW
LayerCount: 2
Fore
SplineSet
38 301 m 0
 38 407 61 591 217 746 c 0
 235 763 277 800 294 800 c 0
 302 800 312 797 312 786 c 0
 312 781 311 780 296 765 c 0
 186 654 135 497 135 300 c 0
 135 212 147 120 173 41 c 0
 215 -87 280 -148 309 -175 c 0
 309 -176 312 -180 312 -185 c 0
 312 -196 302 -199 294 -199 c 0
 275 -199 184 -132 118 -17 c 0
 71 66 38 176 38 301 c 0
688 -185 m 0
 688 -180 689 -179 704 -164 c 0
 814 -53 865 104 865 301 c 0
 865 458 831 635 705 763 c 0
 688 779 688 781 688 786 c 0
 688 797 698 800 706 800 c 0
 725 800 816 733 882 618 c 0
 929 535 962 425 962 300 c 0
 962 194 939 10 783 -145 c 0
 765 -162 723 -199 706 -199 c 0
 698 -199 688 -196 688 -185 c 0
532 415 m 0
 532 466 550 513 580 539 c 1
 607 562 644 575 689 575 c 0
 865 575 844 344 844 332 c 0
 844 132 738 79 656 79 c 0
 581 79 550 125 550 176 c 0
 550 204 564 227 594 227 c 0
 622 227 635 205 635 178 c 0
 635 139 607 130 605 128 c 1
 625 116 642 114 654 114 c 0
 704 114 731 154 738 179 c 0
 746 203 750 245 750 296 c 2
 750 310 l 1
 723 256 691 258 675 258 c 0
 596 258 532 309 532 415 c 0
625 414 m 0
 625 373 625 339 634 316 c 0
 638 303 650 287 682 287 c 0
 734 287 749 365 749 408 c 0
 749 432 750 473 742 498 c 0
 743 500 729 542 690 542 c 0
 656 542 643 530 635 514 c 0
 625 490 625 454 625 414 c 0
156 191 m 0
 156 230 179 252 209 252 c 0
 239 252 260 228 260 192 c 0
 260 160 247 142 226 132 c 1
 260 116 285 114 298 114 c 0
 375 114 364 205 364 223 c 0
 364 252 370 332 297 332 c 2
 269 332 l 2
 257 332 250 331 250 347 c 0
 250 350 250 359 257 360 c 0
 259 361 258 361 290 363 c 0
 316 365 329 382 336 396 c 1
 354 426 353 468 353 473 c 0
 353 487 361 542 301 542 c 0
 283 542 258 538 236 521 c 1
 236 520 272 510 272 464 c 0
 272 434 254 409 224 409 c 0
 198 409 178 432 178 466 c 0
 178 527 227 575 305 575 c 0
 402 575 448 528 448 471 c 0
 448 406 399 364 358 349 c 1
 456 324 468 259 468 223 c 0
 468 157 426 79 303 79 c 0
 219 79 156 123 156 191 c 0
EndSplineSet
EndChar
StartChar: uF26BB
Encoding: 992955 992955 1815
Width: 1000
Flags: MW
LayerCount: 2
Fore
SplineSet
38 301 m 0
 38 407 61 591 217 746 c 0
 235 763 277 800 294 800 c 0
 302 800 312 797 312 786 c 0
 312 781 311 780 296 765 c 0
 186 654 135 497 135 300 c 0
 135 212 147 120 173 41 c 0
 215 -87 280 -148 309 -175 c 0
 309 -176 312 -180 312 -185 c 0
 312 -196 302 -199 294 -199 c 0
 275 -199 184 -132 118 -17 c 0
 71 66 38 176 38 301 c 0
688 -185 m 0
 688 -180 689 -179 704 -164 c 0
 814 -53 865 104 865 301 c 0
 865 458 831 635 705 763 c 0
 688 779 688 781 688 786 c 0
 688 797 698 800 706 800 c 0
 725 800 816 733 882 618 c 0
 929 535 962 425 962 300 c 0
 962 194 939 10 783 -145 c 0
 765 -162 723 -199 706 -199 c 0
 698 -199 688 -196 688 -185 c 0
535 86 m 1
 535 85 535 102 535 101 c 2
 535 118 535 118 543 128 c 2
 671 280 l 2
 718 335 740 384 740 434 c 0
 740 488 709 537 656 537 c 0
 638 537 618 534 598 524 c 1
 600 522 604 522 605 520 c 0
 615 512 632 501 632 466 c 0
 632 426 606 408 583 408 c 0
 563 408 535 423 535 467 c 0
 535 535 597 575 675 575 c 0
 767 575 835 521 835 435 c 0
 835 365 793 331 730 278 c 1
 694 247 672 226 633 190 c 1
 720 190 l 2
 728 190 776 189 785 193 c 1
 794 197 799 248 801 261 c 1
 835 261 l 1
 814 86 l 1
 535 86 l 1
143 202 m 1
 143 240 l 1
 370 562 l 2
 378 574 380 574 396 574 c 0
 416 574 416 570 416 549 c 2
 416 240 l 1
 476 240 l 1
 476 202 l 1
 416 202 l 1
 416 116 l 1
 416 123 495 124 481 124 c 1
 477 124 l 1
 477 86 l 1
 457 88 394 88 370 88 c 0
 343 88 279 88 255 86 c 1
 255 124 l 1
 251 124 l 1
 237 124 329 123 329 116 c 1
 329 202 l 1
 143 202 l 1
180 240 m 1
 336 240 l 1
 336 461 l 1
 180 240 l 1
EndSplineSet
EndChar
StartChar: uF26BC
Encoding: 992956 992956 1816
Width: 1000
VWidth: 1000
Flags: MW
LayerCount: 2
Fore
SplineSet
38 301 m 0
 38 407 61 591 217 746 c 0
 235 763 277 800 294 800 c 0
 302 800 312 797 312 786 c 0
 312 781 311 780 296 765 c 0
 186 654 135 497 135 300 c 0
 135 212 147 120 173 41 c 0
 215 -87 280 -148 309 -175 c 0
 309 -176 312 -180 312 -185 c 0
 312 -196 302 -199 294 -199 c 0
 275 -199 184 -132 118 -17 c 0
 71 66 38 176 38 301 c 0
688 -185 m 0
 688 -180 689 -179 704 -164 c 0
 814 -53 865 104 865 301 c 0
 865 458 831 635 705 763 c 0
 688 779 688 781 688 786 c 0
 688 797 698 800 706 800 c 0
 725 800 816 733 882 618 c 0
 929 535 962 425 962 300 c 0
 962 194 939 10 783 -145 c 0
 765 -162 723 -199 706 -199 c 0
 698 -199 688 -196 688 -185 c 0
530 190 m 0
 530 229 552 252 582 252 c 0
 612 252 634 227 634 191 c 0
 634 159 620 142 599 132 c 1
 633 116 660 115 673 115 c 0
 750 115 736 204 736 222 c 0
 736 251 743 331 670 331 c 2
 642 331 l 2
 630 331 624 331 624 347 c 0
 624 350 624 359 631 360 c 0
 633 361 631 361 663 363 c 0
 689 365 703 382 710 396 c 1
 728 426 727 468 727 473 c 0
 727 487 734 543 674 543 c 0
 656 543 631 538 609 521 c 1
 609 520 646 510 646 464 c 0
 646 434 628 409 598 409 c 0
 572 409 551 431 551 465 c 0
 551 526 600 575 678 575 c 0
 775 575 821 527 821 470 c 0
 821 405 772 365 731 350 c 1
 829 325 842 258 842 222 c 0
 842 156 800 79 677 79 c 0
 593 79 530 122 530 190 c 0
144 201 m 1
 144 239 l 1
 372 561 l 2
 380 573 380 574 396 574 c 0
 416 574 417 570 417 549 c 2
 417 239 l 1
 477 239 l 1
 477 201 l 1
 417 201 l 1
 417 115 l 1
 417 122 496 124 482 124 c 1
 478 124 l 1
 478 86 l 1
 458 88 396 88 372 88 c 0
 345 88 280 88 256 86 c 1
 256 124 l 1
 252 124 l 1
 238 124 329 122 329 115 c 1
 329 201 l 1
 144 201 l 1
181 239 m 1
 337 239 l 1
 337 459 l 1
 181 239 l 1
EndSplineSet
EndChar
StartChar: uF26BD
Encoding: 992957 992957 1817
Width: 1000
Flags: MW
LayerCount: 2
Fore
SplineSet
38 301 m 0
 38 407 61 591 217 746 c 0
 235 763 277 800 294 800 c 0
 302 800 312 797 312 786 c 0
 312 781 311 780 296 765 c 0
 186 654 135 497 135 300 c 0
 135 212 147 120 173 41 c 0
 215 -87 280 -148 309 -175 c 0
 309 -176 312 -180 312 -185 c 0
 312 -196 302 -199 294 -199 c 0
 275 -199 184 -132 118 -17 c 0
 71 66 38 176 38 301 c 0
688 -185 m 0
 688 -180 689 -179 704 -164 c 0
 814 -53 865 104 865 301 c 0
 865 458 831 635 705 763 c 0
 688 779 688 781 688 786 c 0
 688 797 698 800 706 800 c 0
 725 800 816 733 882 618 c 0
 929 535 962 425 962 300 c 0
 962 194 939 10 783 -145 c 0
 765 -162 723 -199 706 -199 c 0
 698 -199 688 -196 688 -185 c 0
521 202 m 1
 521 240 l 1
 748 562 l 2
 756 574 758 574 774 574 c 0
 794 574 794 570 794 549 c 2
 794 240 l 1
 854 240 l 1
 854 202 l 1
 794 202 l 1
 794 116 l 1
 794 123 873 124 859 124 c 1
 855 124 l 1
 855 86 l 1
 835 88 772 88 748 88 c 0
 721 88 657 88 633 86 c 1
 633 124 l 1
 629 124 l 1
 615 124 706 123 706 116 c 1
 706 202 l 1
 521 202 l 1
558 240 m 1
 714 240 l 1
 714 461 l 1
 558 240 l 1
146 202 m 1
 146 240 l 1
 374 562 l 2
 382 574 381 574 397 574 c 0
 417 574 419 570 419 549 c 2
 419 240 l 1
 479 240 l 1
 479 202 l 1
 419 202 l 1
 419 116 l 1
 419 123 498 124 484 124 c 1
 480 124 l 1
 480 86 l 1
 460 88 397 88 373 88 c 0
 346 88 282 88 258 86 c 1
 258 124 l 1
 254 124 l 1
 240 124 331 123 331 116 c 1
 331 202 l 1
 146 202 l 1
183 240 m 1
 339 240 l 1
 339 461 l 1
 183 240 l 1
EndSplineSet
EndChar
StartChar: uF26BE
Encoding: 992958 992958 1818
Width: 1000
VWidth: 1000
Flags: MW
LayerCount: 2
Fore
SplineSet
38 301 m 0
 38 407 61 591 217 746 c 0
 235 763 277 800 294 800 c 0
 302 800 312 797 312 786 c 0
 312 781 311 780 296 765 c 0
 186 654 135 497 135 300 c 0
 135 212 147 120 173 41 c 0
 215 -87 280 -148 309 -175 c 0
 309 -176 312 -180 312 -185 c 0
 312 -196 302 -199 294 -199 c 0
 275 -199 184 -132 118 -17 c 0
 71 66 38 176 38 301 c 0
688 -185 m 0
 688 -180 689 -179 704 -164 c 0
 814 -53 865 104 865 301 c 0
 865 458 831 635 705 763 c 0
 688 779 688 781 688 786 c 0
 688 797 698 800 706 800 c 0
 725 800 816 733 882 618 c 0
 929 535 962 425 962 300 c 0
 962 194 939 10 783 -145 c 0
 765 -162 723 -199 706 -199 c 0
 698 -199 688 -196 688 -185 c 0
535 204 m 0
 535 253 570 260 580 260 c 0
 594 260 625 251 625 205 c 0
 625 176 612 160 594 154 c 0
 594 153 588 151 585 151 c 1
 617 108 657 115 663 115 c 0
 689 115 705 120 715 132 c 1
 737 158 736 201 736 238 c 0
 736 275 736 318 722 342 c 0
 714 357 700 360 682 360 c 0
 664 360 627 360 597 320 c 0
 593 314 591 311 582 311 c 0
 567 311 567 322 567 336 c 2
 567 554 l 2
 567 566 567 575 576 575 c 0
 578 575 579 574 585 572 c 0
 597 567 631 551 686 551 c 0
 708 551 742 554 786 572 c 0
 795 575 794 575 796 575 c 0
 805 575 806 564 806 559 c 0
 806 538 744 450 648 450 c 0
 626 450 623 450 604 454 c 1
 604 366 l 1
 636 390 671 390 686 390 c 0
 787 390 835 321 835 236 c 0
 835 145 774 79 666 79 c 0
 586 79 535 140 535 204 c 0
143 201 m 1
 143 239 l 1
 370 561 l 2
 378 573 380 574 396 574 c 0
 416 574 416 570 416 549 c 2
 416 239 l 1
 476 239 l 1
 476 201 l 1
 416 201 l 1
 416 115 l 1
 416 122 495 124 481 124 c 1
 477 124 l 1
 477 86 l 1
 457 88 394 88 370 88 c 0
 343 88 279 88 255 86 c 1
 255 124 l 1
 251 124 l 1
 237 124 329 122 329 115 c 1
 329 201 l 1
 143 201 l 1
180 239 m 1
 336 239 l 1
 336 459 l 1
 180 239 l 1
EndSplineSet
EndChar
StartChar: uF26BF
Encoding: 992959 992959 1819
Width: 1000
VWidth: 1000
Flags: MW
LayerCount: 2
Fore
SplineSet
38 301 m 0
 38 407 61 591 217 746 c 0
 235 763 277 800 294 800 c 0
 302 800 312 797 312 786 c 0
 312 781 311 780 296 765 c 0
 186 654 135 497 135 300 c 0
 135 212 147 120 173 41 c 0
 215 -87 280 -148 309 -175 c 0
 309 -176 312 -180 312 -185 c 0
 312 -196 302 -199 294 -199 c 0
 275 -199 184 -132 118 -17 c 0
 71 66 38 176 38 301 c 0
688 -185 m 0
 688 -180 689 -179 704 -164 c 0
 814 -53 865 104 865 301 c 0
 865 458 831 635 705 763 c 0
 688 779 688 781 688 786 c 0
 688 797 698 800 706 800 c 0
 725 800 816 733 882 618 c 0
 929 535 962 425 962 300 c 0
 962 194 939 10 783 -145 c 0
 765 -162 723 -199 706 -199 c 0
 698 -199 688 -196 688 -185 c 0
530 323 m 0
 530 518 640 575 726 575 c 0
 797 575 823 524 823 478 c 0
 823 450 810 426 780 426 c 0
 752 426 738 449 738 476 c 0
 738 495 746 521 772 526 c 1
 757 541 738 543 728 543 c 0
 684 543 650 510 638 478 c 0
 638 472 623 445 623 357 c 2
 623 344 l 1
 654 406 693 397 698 397 c 0
 776 397 842 347 842 239 c 0
 842 139 781 79 688 79 c 0
 641 79 593 96 562 152 c 1
 533 207 530 269 530 323 c 0
625 240 m 0
 625 226 625 173 634 152 c 0
 639 140 656 115 687 115 c 0
 725 115 737 131 741 151 c 0
 748 173 748 204 748 241 c 0
 748 281 748 315 740 337 c 0
 736 353 724 368 691 368 c 0
 663 368 625 343 625 240 c 0
144 201 m 1
 144 239 l 1
 372 561 l 2
 380 573 380 574 396 574 c 0
 416 574 417 570 417 549 c 2
 417 239 l 1
 477 239 l 1
 477 201 l 1
 417 201 l 1
 417 115 l 1
 417 122 496 124 482 124 c 1
 478 124 l 1
 478 86 l 1
 458 88 396 88 372 88 c 0
 345 88 280 88 256 86 c 1
 256 124 l 1
 252 124 l 1
 238 124 329 122 329 115 c 1
 329 201 l 1
 144 201 l 1
181 239 m 1
 337 239 l 1
 337 459 l 1
 181 239 l 1
EndSplineSet
EndChar
StartChar: uF26C3
Encoding: 992963 992963 1823
Width: 1000
VWidth: 1000
Flags: MW
LayerCount: 2
Fore
SplineSet
38 301 m 0
 38 407 61 591 217 746 c 0
 235 763 277 800 294 800 c 0
 302 800 312 797 312 786 c 0
 312 781 311 780 296 765 c 0
 186 654 135 497 135 300 c 0
 135 212 147 120 173 41 c 0
 215 -87 280 -148 309 -175 c 0
 309 -176 312 -180 312 -185 c 0
 312 -196 302 -199 294 -199 c 0
 275 -199 184 -132 118 -17 c 0
 71 66 38 176 38 301 c 0
688 -185 m 0
 688 -180 689 -179 704 -164 c 0
 814 -53 865 104 865 301 c 0
 865 458 831 635 705 763 c 0
 688 779 688 781 688 786 c 0
 688 797 698 800 706 800 c 0
 725 800 816 733 882 618 c 0
 929 535 962 425 962 300 c 0
 962 194 939 10 783 -145 c 0
 765 -162 723 -199 706 -199 c 0
 698 -199 688 -196 688 -185 c 0
531 325 m 0
 531 369 529 468 577 528 c 1
 598 550 630 575 689 575 c 0
 743 575 771 555 791 541 c 0
 848 483 847 373 847 325 c 0
 847 277 847 175 794 117 c 0
 774 100 744 79 689 79 c 0
 633 79 604 100 583 120 c 0
 532 177 531 277 531 325 c 0
620 334 m 0
 620 294 620 213 626 175 c 0
 632 124 667 109 689 109 c 0
 705 109 747 116 755 186 c 0
 758 223 758 296 758 334 c 0
 758 400 759 484 747 508 c 0
 734 531 713 545 689 545 c 0
 674 545 631 538 625 476 c 0
 620 437 620 390 620 334 c 0
164 205 m 0
 164 254 199 260 209 260 c 0
 223 260 254 251 254 205 c 0
 254 176 240 159 222 153 c 0
 222 152 217 152 214 152 c 1
 246 109 286 114 292 114 c 0
 318 114 334 120 344 132 c 1
 366 158 366 201 366 238 c 0
 366 275 364 318 350 342 c 0
 342 357 330 360 312 360 c 0
 294 360 256 361 226 321 c 0
 222 315 220 311 211 311 c 0
 196 311 196 321 196 335 c 2
 196 555 l 2
 196 567 196 575 205 575 c 0
 207 575 208 574 214 572 c 0
 226 567 261 551 316 551 c 0
 338 551 371 554 415 572 c 0
 424 575 424 575 426 575 c 0
 435 575 435 565 435 560 c 0
 435 539 372 450 276 450 c 0
 254 450 251 450 232 454 c 1
 232 367 l 1
 264 391 300 390 315 390 c 0
 416 390 464 321 464 236 c 0
 464 145 403 79 295 79 c 0
 215 79 164 141 164 205 c 0
EndSplineSet
EndChar
StartChar: uF26C4
Encoding: 992964 992964 1824
Width: 1000
Flags: MW
LayerCount: 2
Fore
SplineSet
38 301 m 0
 38 407 61 591 217 746 c 0
 235 763 277 800 294 800 c 0
 302 800 312 797 312 786 c 0
 312 781 311 780 296 765 c 0
 186 654 135 497 135 300 c 0
 135 212 147 120 173 41 c 0
 215 -87 280 -148 309 -175 c 0
 309 -176 312 -180 312 -185 c 0
 312 -196 302 -199 294 -199 c 0
 275 -199 184 -132 118 -17 c 0
 71 66 38 176 38 301 c 0
688 -185 m 0
 688 -180 689 -179 704 -164 c 0
 814 -53 865 104 865 301 c 0
 865 458 831 635 705 763 c 0
 688 779 688 781 688 786 c 0
 688 797 698 800 706 800 c 0
 725 800 816 733 882 618 c 0
 929 535 962 425 962 300 c 0
 962 194 939 10 783 -145 c 0
 765 -162 723 -199 706 -199 c 0
 698 -199 688 -196 688 -185 c 0
550 488 m 1
 550 527 l 1
 567 527 l 1
 578 527 647 525 699 569 c 0
 706 575 705 575 715 575 c 1
 732 575 731 566 731 550 c 2
 731 115 l 1
 731 122 845 124 828 124 c 1
 822 124 l 1
 822 85 l 1
 794 87 722 88 690 88 c 0
 658 88 586 87 558 85 c 1
 558 124 l 1
 552 124 l 1
 535 124 648 122 648 115 c 1
 648 503 l 1
 609 490 575 488 567 488 c 1
 550 488 l 1
160 205 m 0
 160 254 196 260 206 260 c 0
 220 260 250 251 250 205 c 0
 250 176 237 159 219 153 c 0
 219 152 213 152 210 152 c 1
 242 109 282 114 288 114 c 0
 314 114 330 120 340 132 c 1
 362 158 362 201 362 238 c 0
 362 275 362 318 348 342 c 0
 340 357 326 360 308 360 c 0
 290 360 253 361 223 321 c 0
 219 315 216 311 207 311 c 0
 192 311 192 321 192 335 c 2
 192 555 l 2
 192 567 193 575 202 575 c 0
 204 575 204 574 210 572 c 0
 222 567 257 551 312 551 c 0
 334 551 367 554 411 572 c 0
 420 575 420 575 422 575 c 0
 431 575 432 565 432 560 c 0
 432 539 370 450 274 450 c 0
 252 450 249 450 230 454 c 1
 230 367 l 1
 262 391 296 390 311 390 c 0
 412 390 460 321 460 236 c 0
 460 145 400 79 292 79 c 0
 212 79 160 141 160 205 c 0
EndSplineSet
EndChar
StartChar: uF26C5
Encoding: 992965 992965 1825
Width: 1000
VWidth: 1000
Flags: MW
LayerCount: 2
Fore
SplineSet
38 301 m 0
 38 407 61 591 217 746 c 0
 235 763 277 800 294 800 c 0
 302 800 312 797 312 786 c 0
 312 781 311 780 296 765 c 0
 186 654 135 497 135 300 c 0
 135 212 147 120 173 41 c 0
 215 -87 280 -148 309 -175 c 0
 309 -176 312 -180 312 -185 c 0
 312 -196 302 -199 294 -199 c 0
 275 -199 184 -132 118 -17 c 0
 71 66 38 176 38 301 c 0
688 -185 m 0
 688 -180 689 -179 704 -164 c 0
 814 -53 865 104 865 301 c 0
 865 458 831 635 705 763 c 0
 688 779 688 781 688 786 c 0
 688 797 698 800 706 800 c 0
 725 800 816 733 882 618 c 0
 929 535 962 425 962 300 c 0
 962 194 939 10 783 -145 c 0
 765 -162 723 -199 706 -199 c 0
 698 -199 688 -196 688 -185 c 0
538 85 m 1
 538 84 538 101 538 100 c 2
 538 117 538 118 546 128 c 2
 674 279 l 2
 721 334 743 383 743 433 c 0
 743 487 712 536 659 536 c 0
 641 536 621 532 601 522 c 1
 603 520 607 520 608 518 c 0
 618 510 635 499 635 464 c 0
 635 424 609 407 586 407 c 0
 566 407 538 422 538 466 c 0
 538 534 600 575 678 575 c 0
 770 575 838 520 838 434 c 0
 838 364 795 329 732 276 c 1
 696 245 675 224 636 188 c 1
 722 188 l 2
 730 188 778 189 787 193 c 1
 796 197 802 248 804 261 c 1
 838 261 l 1
 817 85 l 1
 538 85 l 1
162 205 m 0
 162 254 198 260 208 260 c 0
 222 260 253 251 253 205 c 0
 253 176 238 159 220 153 c 0
 220 152 217 152 214 152 c 1
 246 109 285 114 291 114 c 0
 317 114 332 120 342 132 c 1
 364 158 364 201 364 238 c 0
 364 275 364 318 350 342 c 0
 342 357 328 360 310 360 c 0
 292 360 255 361 225 321 c 0
 221 315 219 311 210 311 c 0
 195 311 195 321 195 335 c 2
 195 555 l 2
 195 567 194 575 203 575 c 0
 205 575 207 574 213 572 c 0
 225 567 259 551 314 551 c 0
 336 551 369 554 413 572 c 0
 422 575 422 575 424 575 c 0
 433 575 433 565 433 560 c 0
 433 539 372 450 276 450 c 0
 254 450 251 450 232 454 c 1
 232 367 l 1
 264 391 299 390 314 390 c 0
 415 390 462 321 462 236 c 0
 462 145 401 79 293 79 c 0
 213 79 162 141 162 205 c 0
EndSplineSet
EndChar
StartChar: uF26C6
Encoding: 992966 992966 1826
Width: 1000
VWidth: 1000
Flags: MW
LayerCount: 2
Fore
SplineSet
38 301 m 0
 38 407 61 591 217 746 c 0
 235 763 277 800 294 800 c 0
 302 800 312 797 312 786 c 0
 312 781 311 780 296 765 c 0
 186 654 135 497 135 300 c 0
 135 212 147 120 173 41 c 0
 215 -87 280 -148 309 -175 c 0
 309 -176 312 -180 312 -185 c 0
 312 -196 302 -199 294 -199 c 0
 275 -199 184 -132 118 -17 c 0
 71 66 38 176 38 301 c 0
688 -185 m 0
 688 -180 689 -179 704 -164 c 0
 814 -53 865 104 865 301 c 0
 865 458 831 635 705 763 c 0
 688 779 688 781 688 786 c 0
 688 797 698 800 706 800 c 0
 725 800 816 733 882 618 c 0
 929 535 962 425 962 300 c 0
 962 194 939 10 783 -145 c 0
 765 -162 723 -199 706 -199 c 0
 698 -199 688 -196 688 -185 c 0
532 191 m 0
 532 230 555 252 585 252 c 0
 615 252 636 228 636 192 c 0
 636 160 623 142 602 132 c 1
 636 116 661 114 674 114 c 0
 751 114 740 205 740 223 c 0
 740 252 746 332 673 332 c 2
 645 332 l 2
 633 332 626 331 626 347 c 0
 626 350 626 359 633 360 c 0
 635 361 634 361 666 363 c 0
 692 365 705 382 712 396 c 1
 730 426 729 468 729 473 c 0
 729 487 737 542 677 542 c 0
 659 542 634 538 612 521 c 1
 612 520 648 510 648 464 c 0
 648 434 630 409 600 409 c 0
 574 409 554 432 554 466 c 0
 554 527 603 575 681 575 c 0
 778 575 824 528 824 471 c 0
 824 406 775 364 734 349 c 1
 832 324 844 259 844 223 c 0
 844 157 802 79 679 79 c 0
 595 79 532 123 532 191 c 0
164 205 m 0
 164 254 199 260 209 260 c 0
 223 260 253 251 253 205 c 0
 253 176 240 159 222 153 c 0
 222 152 216 152 213 152 c 1
 245 109 284 114 290 114 c 0
 316 114 333 120 343 132 c 1
 365 158 365 201 365 238 c 0
 365 275 365 318 351 342 c 0
 343 357 330 360 312 360 c 0
 294 360 256 361 226 321 c 0
 222 315 220 311 211 311 c 0
 196 311 194 321 194 335 c 2
 194 555 l 2
 194 567 196 575 205 575 c 0
 207 575 207 574 213 572 c 0
 225 567 261 551 316 551 c 0
 338 551 371 554 415 572 c 0
 424 575 423 575 425 575 c 0
 434 575 434 565 434 560 c 0
 434 539 372 450 276 450 c 0
 254 450 251 450 232 454 c 1
 232 367 l 1
 264 391 300 390 315 390 c 0
 416 390 464 321 464 236 c 0
 464 145 403 79 295 79 c 0
 215 79 164 141 164 205 c 0
EndSplineSet
EndChar
StartChar: uF26C7
Encoding: 992967 992967 1827
Width: 1000
Flags: MW
LayerCount: 2
Fore
SplineSet
38 301 m 0
 38 407 61 591 217 746 c 0
 235 763 277 800 294 800 c 0
 302 800 312 797 312 786 c 0
 312 781 311 780 296 765 c 0
 186 654 135 497 135 300 c 0
 135 212 147 120 173 41 c 0
 215 -87 280 -148 309 -175 c 0
 309 -176 312 -180 312 -185 c 0
 312 -196 302 -199 294 -199 c 0
 275 -199 184 -132 118 -17 c 0
 71 66 38 176 38 301 c 0
688 -185 m 0
 688 -180 689 -179 704 -164 c 0
 814 -53 865 104 865 301 c 0
 865 458 831 635 705 763 c 0
 688 779 688 781 688 786 c 0
 688 797 698 800 706 800 c 0
 725 800 816 733 882 618 c 0
 929 535 962 425 962 300 c 0
 962 194 939 10 783 -145 c 0
 765 -162 723 -199 706 -199 c 0
 698 -199 688 -196 688 -185 c 0
524 201 m 1
 524 239 l 1
 752 561 l 2
 760 573 759 574 775 574 c 0
 795 574 797 570 797 549 c 2
 797 239 l 1
 857 239 l 1
 857 201 l 1
 797 201 l 1
 797 115 l 1
 797 122 876 124 862 124 c 1
 858 124 l 1
 858 86 l 1
 838 88 775 88 751 88 c 0
 724 88 659 88 635 86 c 1
 635 124 l 1
 631 124 l 1
 617 124 709 122 709 115 c 1
 709 201 l 1
 524 201 l 1
561 239 m 1
 717 239 l 1
 717 459 l 1
 561 239 l 1
165 204 m 0
 165 253 201 260 211 260 c 0
 225 260 255 251 255 205 c 0
 255 176 241 160 223 154 c 0
 223 153 218 151 215 151 c 1
 247 108 287 115 293 115 c 0
 319 115 335 120 345 132 c 1
 367 158 367 201 367 238 c 0
 367 275 367 318 353 342 c 0
 345 357 330 360 312 360 c 0
 294 360 258 360 228 320 c 0
 224 314 221 311 212 311 c 0
 197 311 197 322 197 336 c 2
 197 554 l 2
 197 566 197 575 206 575 c 0
 208 575 209 574 215 572 c 0
 227 567 263 551 318 551 c 0
 340 551 372 554 416 572 c 0
 425 575 425 575 427 575 c 0
 436 575 436 564 436 559 c 0
 436 538 375 450 279 450 c 0
 257 450 253 450 234 454 c 1
 234 366 l 1
 266 390 302 390 317 390 c 0
 418 390 465 321 465 236 c 0
 465 145 404 79 296 79 c 0
 216 79 165 140 165 204 c 0
EndSplineSet
EndChar
StartChar: uF26C8
Encoding: 992968 992968 1828
Width: 1000
VWidth: 1000
Flags: MW
LayerCount: 2
Fore
SplineSet
38 301 m 0
 38 407 61 591 217 746 c 0
 235 763 277 800 294 800 c 0
 302 800 312 797 312 786 c 0
 312 781 311 780 296 765 c 0
 186 654 135 497 135 300 c 0
 135 212 147 120 173 41 c 0
 215 -87 280 -148 309 -175 c 0
 309 -176 312 -180 312 -185 c 0
 312 -196 302 -199 294 -199 c 0
 275 -199 184 -132 118 -17 c 0
 71 66 38 176 38 301 c 0
688 -185 m 0
 688 -180 689 -179 704 -164 c 0
 814 -53 865 104 865 301 c 0
 865 458 831 635 705 763 c 0
 688 779 688 781 688 786 c 0
 688 797 698 800 706 800 c 0
 725 800 816 733 882 618 c 0
 929 535 962 425 962 300 c 0
 962 194 939 10 783 -145 c 0
 765 -162 723 -199 706 -199 c 0
 698 -199 688 -196 688 -185 c 0
538 205 m 0
 538 254 573 260 583 260 c 0
 597 260 627 251 627 205 c 0
 627 176 614 159 596 153 c 0
 596 152 590 152 587 152 c 1
 619 109 658 114 664 114 c 0
 690 114 707 120 717 132 c 1
 739 158 739 201 739 238 c 0
 739 275 739 318 725 342 c 0
 717 357 704 360 686 360 c 0
 668 360 630 361 600 321 c 0
 596 315 594 311 585 311 c 0
 570 311 568 321 568 335 c 2
 568 555 l 2
 568 567 570 575 579 575 c 0
 581 575 581 574 587 572 c 0
 599 567 635 551 690 551 c 0
 712 551 745 554 789 572 c 0
 798 575 797 575 799 575 c 0
 808 575 808 565 808 560 c 0
 808 539 746 450 650 450 c 0
 628 450 625 450 606 454 c 1
 606 367 l 1
 638 391 674 390 689 390 c 0
 790 390 838 321 838 236 c 0
 838 145 777 79 669 79 c 0
 589 79 538 141 538 205 c 0
162 205 m 0
 162 254 198 260 208 260 c 0
 222 260 253 251 253 205 c 0
 253 176 238 159 220 153 c 0
 220 152 217 152 214 152 c 1
 246 109 285 114 291 114 c 0
 317 114 332 120 342 132 c 1
 364 158 364 201 364 238 c 0
 364 275 364 318 350 342 c 0
 342 357 328 360 310 360 c 0
 292 360 255 361 225 321 c 0
 221 315 219 311 210 311 c 0
 195 311 195 321 195 335 c 2
 195 555 l 2
 195 567 194 575 203 575 c 0
 205 575 207 574 213 572 c 0
 225 567 259 551 314 551 c 0
 336 551 369 554 413 572 c 0
 422 575 422 575 424 575 c 0
 433 575 433 565 433 560 c 0
 433 539 372 450 276 450 c 0
 254 450 251 450 232 454 c 1
 232 367 l 1
 264 391 299 390 314 390 c 0
 415 390 462 321 462 236 c 0
 462 145 401 79 293 79 c 0
 213 79 162 141 162 205 c 0
EndSplineSet
EndChar
StartChar: uF26C9
Encoding: 992969 992969 1829
Width: 1000
Flags: MW
LayerCount: 2
Fore
SplineSet
38 301 m 0
 38 407 61 591 217 746 c 0
 235 763 277 800 294 800 c 0
 302 800 312 797 312 786 c 0
 312 781 311 780 296 765 c 0
 186 654 135 497 135 300 c 0
 135 212 147 120 173 41 c 0
 215 -87 280 -148 309 -175 c 0
 309 -176 312 -180 312 -185 c 0
 312 -196 302 -199 294 -199 c 0
 275 -199 184 -132 118 -17 c 0
 71 66 38 176 38 301 c 0
688 -185 m 0
 688 -180 689 -179 704 -164 c 0
 814 -53 865 104 865 301 c 0
 865 458 831 635 705 763 c 0
 688 779 688 781 688 786 c 0
 688 797 698 800 706 800 c 0
 725 800 816 733 882 618 c 0
 929 535 962 425 962 300 c 0
 962 194 939 10 783 -145 c 0
 765 -162 723 -199 706 -199 c 0
 698 -199 688 -196 688 -185 c 0
532 323 m 0
 532 518 643 575 729 575 c 0
 800 575 826 524 826 478 c 0
 826 450 812 427 782 427 c 0
 754 427 741 449 741 476 c 0
 741 495 748 521 774 526 c 1
 759 541 740 542 730 542 c 0
 686 542 653 511 641 479 c 0
 641 473 626 446 626 358 c 2
 626 345 l 1
 657 407 697 397 702 397 c 0
 780 397 844 347 844 239 c 0
 844 139 785 79 692 79 c 0
 645 79 596 97 565 153 c 1
 536 208 532 269 532 323 c 0
627 240 m 0
 627 226 629 173 638 152 c 0
 643 140 659 114 690 114 c 0
 728 114 740 132 744 152 c 0
 751 174 751 205 751 242 c 0
 751 282 751 314 743 336 c 0
 739 352 727 368 694 368 c 0
 666 368 627 343 627 240 c 0
164 205 m 0
 164 254 199 260 209 260 c 0
 223 260 253 251 253 205 c 0
 253 176 240 159 222 153 c 0
 222 152 216 152 213 152 c 1
 245 109 284 114 290 114 c 0
 316 114 333 120 343 132 c 1
 365 158 365 201 365 238 c 0
 365 275 365 318 351 342 c 0
 343 357 330 360 312 360 c 0
 294 360 256 361 226 321 c 0
 222 315 220 311 211 311 c 0
 196 311 194 321 194 335 c 2
 194 555 l 2
 194 567 196 575 205 575 c 0
 207 575 207 574 213 572 c 0
 225 567 261 551 316 551 c 0
 338 551 371 554 415 572 c 0
 424 575 423 575 425 575 c 0
 434 575 434 565 434 560 c 0
 434 539 372 450 276 450 c 0
 254 450 251 450 232 454 c 1
 232 367 l 1
 264 391 300 390 315 390 c 0
 416 390 464 321 464 236 c 0
 464 145 403 79 295 79 c 0
 215 79 164 141 164 205 c 0
EndSplineSet
EndChar
StartChar: uF26CA
Encoding: 992970 992970 1830
Width: 1000
Flags: MW
LayerCount: 2
Fore
SplineSet
38 301 m 0
 38 407 61 591 217 746 c 0
 235 763 277 800 294 800 c 0
 302 800 312 797 312 786 c 0
 312 781 311 780 296 765 c 0
 186 654 135 497 135 300 c 0
 135 212 147 120 173 41 c 0
 215 -87 280 -148 309 -175 c 0
 309 -176 312 -180 312 -185 c 0
 312 -196 302 -199 294 -199 c 0
 275 -199 184 -132 118 -17 c 0
 71 66 38 176 38 301 c 0
688 -185 m 0
 688 -180 689 -179 704 -164 c 0
 814 -53 865 104 865 301 c 0
 865 458 831 635 705 763 c 0
 688 779 688 781 688 786 c 0
 688 797 698 800 706 800 c 0
 725 800 816 733 882 618 c 0
 929 535 962 425 962 300 c 0
 962 194 939 10 783 -145 c 0
 765 -162 723 -199 706 -199 c 0
 698 -199 688 -196 688 -185 c 0
546 396 m 1
 568 595 l 1
 602 595 l 1
 604 587 604 582 616 579 c 1
 624 576 738 571 748 571 c 2
 869 571 l 1
 869 543 869 541 862 533 c 2
 761 400 l 2
 742 373 727 334 720 276 c 0
 716 242 714 207 714 172 c 2
 714 138 l 2
 714 78 675 82 671 82 c 0
 675 82 628 74 628 137 c 0
 628 257 681 358 743 438 c 1
 739 432 769 471 767 468 c 1
 668 468 l 2
 657 468 605 468 596 464 c 0
 596 464 588 464 580 396 c 1
 546 396 l 1
167 207 m 0
 167 256 202 263 212 263 c 0
 226 263 257 254 257 208 c 0
 257 179 243 162 225 156 c 0
 225 155 220 155 217 155 c 1
 249 112 289 117 295 117 c 0
 321 117 337 123 347 135 c 1
 369 161 369 205 369 242 c 0
 369 279 368 320 354 344 c 0
 346 359 332 364 314 364 c 0
 296 364 259 364 229 324 c 0
 225 318 223 315 214 315 c 0
 199 315 199 325 199 339 c 2
 199 557 l 2
 199 569 199 578 208 578 c 0
 210 578 211 576 217 574 c 0
 229 569 263 553 318 553 c 0
 340 553 374 556 418 574 c 0
 427 577 427 577 429 577 c 0
 438 577 438 568 438 563 c 0
 438 542 376 452 280 452 c 0
 258 452 255 454 236 458 c 1
 236 370 l 1
 268 394 303 393 318 393 c 0
 419 393 467 325 467 240 c 0
 467 149 406 82 298 82 c 0
 218 82 167 143 167 207 c 0
EndSplineSet
EndChar
StartChar: uF26CB
Encoding: 992971 992971 1831
Width: 1000
Flags: MW
LayerCount: 2
Fore
SplineSet
38 301 m 0
 38 407 61 591 217 746 c 0
 235 763 277 800 294 800 c 0
 302 800 312 797 312 786 c 0
 312 781 311 780 296 765 c 0
 186 654 135 497 135 300 c 0
 135 212 147 120 173 41 c 0
 215 -87 280 -148 309 -175 c 0
 309 -176 312 -180 312 -185 c 0
 312 -196 302 -199 294 -199 c 0
 275 -199 184 -132 118 -17 c 0
 71 66 38 176 38 301 c 0
688 -185 m 0
 688 -180 689 -179 704 -164 c 0
 814 -53 865 104 865 301 c 0
 865 458 831 635 705 763 c 0
 688 779 688 781 688 786 c 0
 688 797 698 800 706 800 c 0
 725 800 816 733 882 618 c 0
 929 535 962 425 962 300 c 0
 962 194 939 10 783 -145 c 0
 765 -162 723 -199 706 -199 c 0
 698 -199 688 -196 688 -185 c 0
532 208 m 0
 532 260 552 301 610 331 c 1
 595 340 585 350 576 364 c 0
 559 389 554 417 554 441 c 0
 554 513 595 575 690 575 c 0
 766 575 824 544 824 466 c 0
 824 424 808 391 764 364 c 1
 771 359 793 346 811 325 c 0
 829 305 844 278 844 230 c 0
 844 148 796 79 687 79 c 0
 602 79 532 114 532 208 c 0
594 208 m 0
 594 151 626 114 690 114 c 0
 722 114 784 120 784 185 c 0
 784 219 762 232 732 252 c 1
 687 281 671 291 643 309 c 1
 631 299 594 270 594 208 c 0
606 490 m 0
 606 461 629 452 633 449 c 2
 732 386 l 1
 756 407 771 428 771 464 c 0
 771 514 742 542 687 542 c 0
 668 542 606 544 606 490 c 0
164 205 m 0
 164 254 199 260 209 260 c 0
 223 260 253 251 253 205 c 0
 253 176 240 159 222 153 c 0
 222 152 216 152 213 152 c 1
 245 109 284 114 290 114 c 0
 316 114 333 120 343 132 c 1
 365 158 365 201 365 238 c 0
 365 275 365 318 351 342 c 0
 343 357 330 360 312 360 c 0
 294 360 256 361 226 321 c 0
 222 315 220 311 211 311 c 0
 196 311 194 321 194 335 c 2
 194 555 l 2
 194 567 196 575 205 575 c 0
 207 575 207 574 213 572 c 0
 225 567 261 551 316 551 c 0
 338 551 371 554 415 572 c 0
 424 575 423 575 425 575 c 0
 434 575 434 565 434 560 c 0
 434 539 372 450 276 450 c 0
 254 450 251 450 232 454 c 1
 232 367 l 1
 264 391 300 390 315 390 c 0
 416 390 464 321 464 236 c 0
 464 145 403 79 295 79 c 0
 215 79 164 141 164 205 c 0
EndSplineSet
EndChar
StartChar: uF26CC
Encoding: 992972 992972 1832
Width: 1000
VWidth: 1000
Flags: MW
LayerCount: 2
Fore
SplineSet
38 301 m 0
 38 407 61 591 217 746 c 0
 235 763 277 800 294 800 c 0
 302 800 312 797 312 786 c 0
 312 781 311 780 296 765 c 0
 186 654 135 497 135 300 c 0
 135 212 147 120 173 41 c 0
 215 -87 280 -148 309 -175 c 0
 309 -176 312 -180 312 -185 c 0
 312 -196 302 -199 294 -199 c 0
 275 -199 184 -132 118 -17 c 0
 71 66 38 176 38 301 c 0
688 -185 m 0
 688 -180 689 -179 704 -164 c 0
 814 -53 865 104 865 301 c 0
 865 458 831 635 705 763 c 0
 688 779 688 781 688 786 c 0
 688 797 698 800 706 800 c 0
 725 800 816 733 882 618 c 0
 929 535 962 425 962 300 c 0
 962 194 939 10 783 -145 c 0
 765 -162 723 -199 706 -199 c 0
 698 -199 688 -196 688 -185 c 0
532 415 m 0
 532 466 550 513 580 539 c 1
 607 562 645 575 690 575 c 0
 866 575 844 344 844 332 c 0
 844 132 740 79 658 79 c 0
 583 79 551 125 551 176 c 0
 551 204 564 227 594 227 c 0
 622 227 636 205 636 178 c 0
 636 139 608 130 606 128 c 1
 626 116 644 114 656 114 c 0
 706 114 732 154 739 179 c 0
 747 203 751 245 751 296 c 2
 751 310 l 1
 724 256 692 258 676 258 c 0
 597 258 532 309 532 415 c 0
626 414 m 0
 626 373 627 339 636 316 c 0
 640 303 651 287 683 287 c 0
 735 287 750 365 750 408 c 0
 750 432 751 473 743 498 c 0
 744 500 730 542 691 542 c 0
 657 542 644 530 636 514 c 0
 626 490 626 454 626 414 c 0
164 205 m 0
 164 254 199 260 209 260 c 0
 223 260 253 251 253 205 c 0
 253 176 240 159 222 153 c 0
 222 152 216 152 213 152 c 1
 245 109 284 114 290 114 c 0
 316 114 333 120 343 132 c 1
 365 158 365 201 365 238 c 0
 365 275 365 318 351 342 c 0
 343 357 330 360 312 360 c 0
 294 360 256 361 226 321 c 0
 222 315 220 311 211 311 c 0
 196 311 194 321 194 335 c 2
 194 555 l 2
 194 567 196 575 205 575 c 0
 207 575 207 574 213 572 c 0
 225 567 261 551 316 551 c 0
 338 551 371 554 415 572 c 0
 424 575 423 575 425 575 c 0
 434 575 434 565 434 560 c 0
 434 539 372 450 276 450 c 0
 254 450 251 450 232 454 c 1
 232 367 l 1
 264 391 300 390 315 390 c 0
 416 390 464 321 464 236 c 0
 464 145 403 79 295 79 c 0
 215 79 164 141 164 205 c 0
EndSplineSet
EndChar
StartChar: uF26CD
Encoding: 992973 992973 1833
Width: 1000
VWidth: 1000
Flags: MW
LayerCount: 2
Fore
SplineSet
38 301 m 0
 38 407 61 591 217 746 c 0
 235 763 277 800 294 800 c 0
 302 800 312 797 312 786 c 0
 312 781 311 780 296 765 c 0
 186 654 135 497 135 300 c 0
 135 212 147 120 173 41 c 0
 215 -87 280 -148 309 -175 c 0
 309 -176 312 -180 312 -185 c 0
 312 -196 302 -199 294 -199 c 0
 275 -199 184 -132 118 -17 c 0
 71 66 38 176 38 301 c 0
688 -185 m 0
 688 -180 689 -179 704 -164 c 0
 814 -53 865 104 865 301 c 0
 865 458 831 635 705 763 c 0
 688 779 688 781 688 786 c 0
 688 797 698 800 706 800 c 0
 725 800 816 733 882 618 c 0
 929 535 962 425 962 300 c 0
 962 194 939 10 783 -145 c 0
 765 -162 723 -199 706 -199 c 0
 698 -199 688 -196 688 -185 c 0
530 325 m 0
 530 369 528 468 576 528 c 1
 597 550 629 575 688 575 c 0
 742 575 770 555 790 541 c 0
 847 483 846 373 846 325 c 0
 846 277 846 175 793 117 c 0
 773 100 743 79 688 79 c 0
 632 79 603 100 582 120 c 0
 531 177 530 277 530 325 c 0
620 334 m 0
 620 294 619 213 625 175 c 0
 631 124 666 109 688 109 c 0
 704 109 746 116 754 186 c 0
 757 223 757 296 757 334 c 0
 757 400 758 484 746 508 c 0
 733 531 712 545 688 545 c 0
 673 545 630 538 624 476 c 0
 619 437 620 390 620 334 c 0
157 323 m 0
 157 518 267 575 353 575 c 0
 424 575 450 524 450 478 c 0
 450 450 438 427 408 427 c 0
 380 427 365 449 365 476 c 0
 365 495 374 521 400 526 c 1
 385 541 365 542 355 542 c 0
 311 542 277 511 265 479 c 0
 265 473 250 446 250 358 c 2
 250 345 l 1
 281 407 321 397 326 397 c 0
 404 397 469 347 469 239 c 0
 469 139 408 79 315 79 c 0
 268 79 220 97 189 153 c 1
 160 208 157 269 157 323 c 0
252 240 m 0
 252 226 253 173 262 152 c 0
 267 140 283 114 314 114 c 0
 352 114 364 132 368 152 c 0
 375 174 375 205 375 242 c 0
 375 282 375 314 367 336 c 0
 363 352 351 368 318 368 c 0
 290 368 252 343 252 240 c 0
EndSplineSet
EndChar
StartChar: uF26CF
Encoding: 992975 992975 1835
Width: 1000
Flags: MW
LayerCount: 2
Fore
SplineSet
38 301 m 0
 38 407 61 591 217 746 c 0
 235 763 277 800 294 800 c 0
 302 800 312 797 312 786 c 0
 312 781 311 780 296 765 c 0
 186 654 135 497 135 300 c 0
 135 212 147 120 173 41 c 0
 215 -87 280 -148 309 -175 c 0
 309 -176 312 -180 312 -185 c 0
 312 -196 302 -199 294 -199 c 0
 275 -199 184 -132 118 -17 c 0
 71 66 38 176 38 301 c 0
688 -185 m 0
 688 -180 689 -179 704 -164 c 0
 814 -53 865 104 865 301 c 0
 865 458 831 635 705 763 c 0
 688 779 688 781 688 786 c 0
 688 797 698 800 706 800 c 0
 725 800 816 733 882 618 c 0
 929 535 962 425 962 300 c 0
 962 194 939 10 783 -145 c 0
 765 -162 723 -199 706 -199 c 0
 698 -199 688 -196 688 -185 c 0
536 85 m 1
 536 84 536 101 536 100 c 2
 536 117 537 118 545 128 c 2
 673 279 l 2
 720 334 741 383 741 433 c 0
 741 487 711 536 658 536 c 0
 640 536 620 532 600 522 c 1
 602 520 607 520 608 518 c 0
 618 510 634 499 634 464 c 0
 634 424 608 407 585 407 c 0
 565 407 536 422 536 466 c 0
 536 534 599 575 677 575 c 0
 769 575 836 520 836 434 c 0
 836 364 795 329 732 276 c 1
 696 245 673 224 634 188 c 1
 720 188 l 2
 728 188 777 189 786 193 c 1
 795 197 801 248 803 261 c 1
 836 261 l 1
 816 85 l 1
 536 85 l 1
156 323 m 0
 156 518 266 575 352 575 c 0
 423 575 449 524 449 478 c 0
 449 450 437 427 407 427 c 0
 379 427 364 449 364 476 c 0
 364 495 372 521 398 526 c 1
 383 541 364 542 354 542 c 0
 310 542 276 511 264 479 c 0
 264 473 249 446 249 358 c 2
 249 345 l 1
 280 407 319 397 324 397 c 0
 402 397 468 347 468 239 c 0
 468 139 407 79 314 79 c 0
 267 79 219 97 188 153 c 1
 159 208 156 269 156 323 c 0
252 240 m 0
 252 226 251 173 260 152 c 0
 265 140 282 114 313 114 c 0
 351 114 363 132 367 152 c 0
 374 174 374 205 374 242 c 0
 374 282 374 314 366 336 c 0
 362 352 350 368 317 368 c 0
 289 368 252 343 252 240 c 0
EndSplineSet
EndChar
StartChar: uF26D1
Encoding: 992977 992977 1837
Width: 1000
VWidth: 1000
Flags: MW
LayerCount: 2
Fore
SplineSet
38 301 m 0
 38 407 61 591 217 746 c 0
 235 763 277 800 294 800 c 0
 302 800 312 797 312 786 c 0
 312 781 311 780 296 765 c 0
 186 654 135 497 135 300 c 0
 135 212 147 120 173 41 c 0
 215 -87 280 -148 309 -175 c 0
 309 -176 312 -180 312 -185 c 0
 312 -196 302 -199 294 -199 c 0
 275 -199 184 -132 118 -17 c 0
 71 66 38 176 38 301 c 0
688 -185 m 0
 688 -180 689 -179 704 -164 c 0
 814 -53 865 104 865 301 c 0
 865 458 831 635 705 763 c 0
 688 779 688 781 688 786 c 0
 688 797 698 800 706 800 c 0
 725 800 816 733 882 618 c 0
 929 535 962 425 962 300 c 0
 962 194 939 10 783 -145 c 0
 765 -162 723 -199 706 -199 c 0
 698 -199 688 -196 688 -185 c 0
523 201 m 1
 523 239 l 1
 750 561 l 2
 758 573 758 574 774 574 c 0
 794 574 796 570 796 549 c 2
 796 239 l 1
 856 239 l 1
 856 201 l 1
 796 201 l 1
 796 115 l 1
 796 122 875 124 861 124 c 1
 857 124 l 1
 857 86 l 1
 837 88 774 88 750 88 c 0
 723 88 659 88 635 86 c 1
 635 124 l 1
 631 124 l 1
 617 124 708 122 708 115 c 1
 708 201 l 1
 523 201 l 1
559 239 m 1
 716 239 l 1
 716 459 l 1
 559 239 l 1
158 323 m 0
 158 518 269 575 355 575 c 0
 426 575 452 524 452 478 c 0
 452 450 438 426 408 426 c 0
 380 426 367 449 367 476 c 0
 367 495 374 521 400 526 c 1
 385 541 366 543 356 543 c 0
 312 543 279 510 267 478 c 0
 267 472 252 445 252 357 c 2
 252 344 l 1
 283 406 323 397 328 397 c 0
 406 397 470 347 470 239 c 0
 470 139 409 79 316 79 c 0
 269 79 221 96 190 152 c 1
 161 207 158 269 158 323 c 0
253 240 m 0
 253 226 255 173 264 152 c 0
 269 140 285 115 316 115 c 0
 354 115 366 131 370 151 c 0
 377 173 377 204 377 241 c 0
 377 281 377 315 369 337 c 0
 365 353 353 368 320 368 c 0
 292 368 253 343 253 240 c 0
EndSplineSet
EndChar
StartChar: uF26D3
Encoding: 992979 992979 1839
Width: 1000
VWidth: 1000
Flags: MW
LayerCount: 2
Fore
SplineSet
38 301 m 0
 38 407 61 591 217 746 c 0
 235 763 277 800 294 800 c 0
 302 800 312 797 312 786 c 0
 312 781 311 780 296 765 c 0
 186 654 135 497 135 300 c 0
 135 212 147 120 173 41 c 0
 215 -87 280 -148 309 -175 c 0
 309 -176 312 -180 312 -185 c 0
 312 -196 302 -199 294 -199 c 0
 275 -199 184 -132 118 -17 c 0
 71 66 38 176 38 301 c 0
688 -185 m 0
 688 -180 689 -179 704 -164 c 0
 814 -53 865 104 865 301 c 0
 865 458 831 635 705 763 c 0
 688 779 688 781 688 786 c 0
 688 797 698 800 706 800 c 0
 725 800 816 733 882 618 c 0
 929 535 962 425 962 300 c 0
 962 194 939 10 783 -145 c 0
 765 -162 723 -199 706 -199 c 0
 698 -199 688 -196 688 -185 c 0
532 323 m 0
 532 518 642 575 728 575 c 0
 799 575 825 524 825 478 c 0
 825 450 813 427 783 427 c 0
 755 427 740 449 740 476 c 0
 740 495 748 521 774 526 c 1
 759 541 740 542 730 542 c 0
 686 542 652 511 640 479 c 0
 640 473 625 446 625 358 c 2
 625 345 l 1
 656 407 695 397 700 397 c 0
 778 397 844 347 844 239 c 0
 844 139 783 79 690 79 c 0
 643 79 595 97 564 153 c 1
 535 208 532 269 532 323 c 0
628 240 m 0
 628 226 627 173 636 152 c 0
 641 140 658 114 689 114 c 0
 727 114 739 132 743 152 c 0
 750 174 750 205 750 242 c 0
 750 282 750 314 742 336 c 0
 738 352 726 368 693 368 c 0
 665 368 628 343 628 240 c 0
156 323 m 0
 156 518 267 575 353 575 c 0
 424 575 450 524 450 478 c 0
 450 450 436 427 406 427 c 0
 378 427 365 449 365 476 c 0
 365 495 372 521 398 526 c 1
 383 541 364 542 354 542 c 0
 310 542 277 511 265 479 c 0
 265 473 250 446 250 358 c 2
 250 345 l 1
 281 407 321 397 326 397 c 0
 404 397 468 347 468 239 c 0
 468 139 409 79 316 79 c 0
 269 79 220 97 189 153 c 1
 160 208 156 269 156 323 c 0
251 240 m 0
 251 226 253 173 262 152 c 0
 267 140 283 114 314 114 c 0
 352 114 364 132 368 152 c 0
 375 174 375 205 375 242 c 0
 375 282 375 314 367 336 c 0
 363 352 351 368 318 368 c 0
 290 368 251 343 251 240 c 0
EndSplineSet
EndChar
StartChar: uF26D4
Encoding: 992980 992980 1840
Width: 1000
VWidth: 1000
Flags: MW
LayerCount: 2
Fore
SplineSet
38 301 m 0
 38 407 61 591 217 746 c 0
 235 763 277 800 294 800 c 0
 302 800 312 797 312 786 c 0
 312 781 311 780 296 765 c 0
 186 654 135 497 135 300 c 0
 135 212 147 120 173 41 c 0
 215 -87 280 -148 309 -175 c 0
 309 -176 312 -180 312 -185 c 0
 312 -196 302 -199 294 -199 c 0
 275 -199 184 -132 118 -17 c 0
 71 66 38 176 38 301 c 0
688 -185 m 0
 688 -180 689 -179 704 -164 c 0
 814 -53 865 104 865 301 c 0
 865 458 831 635 705 763 c 0
 688 779 688 781 688 786 c 0
 688 797 698 800 706 800 c 0
 725 800 816 733 882 618 c 0
 929 535 962 425 962 300 c 0
 962 194 939 10 783 -145 c 0
 765 -162 723 -199 706 -199 c 0
 698 -199 688 -196 688 -185 c 0
546 396 m 1
 568 595 l 1
 602 595 l 1
 604 587 602 582 614 579 c 1
 622 576 736 571 746 571 c 2
 868 571 l 1
 868 543 868 541 861 533 c 2
 760 400 l 2
 741 373 726 334 719 276 c 0
 715 242 713 207 713 172 c 2
 713 138 l 2
 713 78 674 82 670 82 c 0
 674 82 629 74 629 137 c 0
 629 257 680 358 742 438 c 1
 738 432 768 471 766 468 c 1
 667 468 l 2
 656 468 606 468 597 464 c 0
 597 464 587 464 579 396 c 1
 546 396 l 1
160 326 m 0
 160 521 270 577 356 577 c 0
 427 577 453 527 453 481 c 0
 453 453 440 430 410 430 c 0
 382 430 369 452 369 479 c 0
 369 498 376 525 402 530 c 1
 387 545 368 546 358 546 c 0
 314 546 280 514 268 482 c 0
 268 476 253 449 253 361 c 2
 253 348 l 1
 284 410 323 401 328 401 c 0
 406 401 472 350 472 242 c 0
 472 142 411 82 318 82 c 0
 271 82 223 100 192 156 c 1
 163 211 160 272 160 326 c 0
255 244 m 0
 255 230 255 175 264 154 c 0
 269 142 287 117 318 117 c 0
 356 117 367 134 371 154 c 0
 378 176 379 207 379 244 c 0
 379 284 378 317 370 339 c 0
 366 355 354 371 321 371 c 0
 293 371 255 347 255 244 c 0
EndSplineSet
EndChar
StartChar: uF26D6
Encoding: 992982 992982 1842
Width: 1000
Flags: MW
LayerCount: 2
Fore
SplineSet
38 301 m 0
 38 407 61 591 217 746 c 0
 235 763 277 800 294 800 c 0
 302 800 312 797 312 786 c 0
 312 781 311 780 296 765 c 0
 186 654 135 497 135 300 c 0
 135 212 147 120 173 41 c 0
 215 -87 280 -148 309 -175 c 0
 309 -176 312 -180 312 -185 c 0
 312 -196 302 -199 294 -199 c 0
 275 -199 184 -132 118 -17 c 0
 71 66 38 176 38 301 c 0
688 -185 m 0
 688 -180 689 -179 704 -164 c 0
 814 -53 865 104 865 301 c 0
 865 458 831 635 705 763 c 0
 688 779 688 781 688 786 c 0
 688 797 698 800 706 800 c 0
 725 800 816 733 882 618 c 0
 929 535 962 425 962 300 c 0
 962 194 939 10 783 -145 c 0
 765 -162 723 -199 706 -199 c 0
 698 -199 688 -196 688 -185 c 0
532 415 m 0
 532 466 550 513 580 539 c 1
 607 562 644 575 689 575 c 0
 865 575 844 344 844 332 c 0
 844 132 738 79 656 79 c 0
 581 79 550 125 550 176 c 0
 550 204 564 227 594 227 c 0
 622 227 635 205 635 178 c 0
 635 139 607 130 605 128 c 1
 625 116 642 114 654 114 c 0
 704 114 731 154 738 179 c 0
 746 203 750 245 750 296 c 2
 750 310 l 1
 723 256 691 258 675 258 c 0
 596 258 532 309 532 415 c 0
625 414 m 0
 625 373 625 339 634 316 c 0
 638 303 650 287 682 287 c 0
 734 287 749 365 749 408 c 0
 749 432 750 473 742 498 c 0
 743 500 729 542 690 542 c 0
 656 542 643 530 635 514 c 0
 625 490 625 454 625 414 c 0
156 323 m 0
 156 518 267 575 353 575 c 0
 424 575 450 524 450 478 c 0
 450 450 436 427 406 427 c 0
 378 427 365 449 365 476 c 0
 365 495 372 521 398 526 c 1
 383 541 364 542 354 542 c 0
 310 542 277 511 265 479 c 0
 265 473 250 446 250 358 c 2
 250 345 l 1
 281 407 321 397 326 397 c 0
 404 397 468 347 468 239 c 0
 468 139 409 79 316 79 c 0
 269 79 220 97 189 153 c 1
 160 208 156 269 156 323 c 0
251 240 m 0
 251 226 253 173 262 152 c 0
 267 140 283 114 314 114 c 0
 352 114 364 132 368 152 c 0
 375 174 375 205 375 242 c 0
 375 282 375 314 367 336 c 0
 363 352 351 368 318 368 c 0
 290 368 251 343 251 240 c 0
EndSplineSet
EndChar
StartChar: uF26D7
Encoding: 992983 992983 1843
Width: 1000
VWidth: 1000
Flags: MW
LayerCount: 2
Fore
SplineSet
38 301 m 0
 38 407 61 591 217 746 c 0
 235 763 277 800 294 800 c 0
 302 800 312 797 312 786 c 0
 312 781 311 780 296 765 c 0
 186 654 135 497 135 300 c 0
 135 212 147 120 173 41 c 0
 215 -87 280 -148 309 -175 c 0
 309 -176 312 -180 312 -185 c 0
 312 -196 302 -199 294 -199 c 0
 275 -199 184 -132 118 -17 c 0
 71 66 38 176 38 301 c 0
688 -185 m 0
 688 -180 689 -179 704 -164 c 0
 814 -53 865 104 865 301 c 0
 865 458 831 635 705 763 c 0
 688 779 688 781 688 786 c 0
 688 797 698 800 706 800 c 0
 725 800 816 733 882 618 c 0
 929 535 962 425 962 300 c 0
 962 194 939 10 783 -145 c 0
 765 -162 723 -199 706 -199 c 0
 698 -199 688 -196 688 -185 c 0
531 327 m 0
 531 371 530 472 578 532 c 1
 599 554 631 577 690 577 c 0
 744 577 772 557 792 543 c 0
 849 485 848 375 848 327 c 0
 848 279 848 178 795 120 c 0
 775 103 745 82 690 82 c 0
 634 82 603 102 582 122 c 0
 531 179 531 279 531 327 c 0
620 336 m 0
 620 296 620 216 626 178 c 0
 632 127 668 112 690 112 c 0
 706 112 747 118 755 188 c 0
 758 225 759 298 759 336 c 0
 759 402 759 487 747 511 c 0
 734 534 714 548 690 548 c 0
 675 548 632 541 626 479 c 0
 621 440 620 392 620 336 c 0
169 396 m 1
 192 595 l 1
 224 595 l 1
 226 587 226 582 238 579 c 1
 246 576 360 571 370 571 c 2
 492 571 l 1
 492 543 492 541 485 533 c 2
 384 400 l 2
 365 373 351 334 344 276 c 0
 340 242 337 207 337 172 c 2
 337 138 l 2
 337 78 298 82 294 82 c 0
 298 82 252 74 252 137 c 0
 252 257 304 358 366 438 c 1
 362 432 392 471 390 468 c 1
 290 468 l 2
 279 468 229 468 220 464 c 0
 220 464 211 464 203 396 c 1
 169 396 l 1
EndSplineSet
EndChar
StartChar: uF26DA
Encoding: 992986 992986 1846
Width: 1000
Flags: MW
LayerCount: 2
Fore
SplineSet
38 301 m 0
 38 407 61 591 217 746 c 0
 235 763 277 800 294 800 c 0
 302 800 312 797 312 786 c 0
 312 781 311 780 296 765 c 0
 186 654 135 497 135 300 c 0
 135 212 147 120 173 41 c 0
 215 -87 280 -148 309 -175 c 0
 309 -176 312 -180 312 -185 c 0
 312 -196 302 -199 294 -199 c 0
 275 -199 184 -132 118 -17 c 0
 71 66 38 176 38 301 c 0
688 -185 m 0
 688 -180 689 -179 704 -164 c 0
 814 -53 865 104 865 301 c 0
 865 458 831 635 705 763 c 0
 688 779 688 781 688 786 c 0
 688 797 698 800 706 800 c 0
 725 800 816 733 882 618 c 0
 929 535 962 425 962 300 c 0
 962 194 939 10 783 -145 c 0
 765 -162 723 -199 706 -199 c 0
 698 -199 688 -196 688 -185 c 0
533 193 m 0
 533 232 556 256 586 256 c 0
 616 256 637 231 637 195 c 0
 637 163 624 146 603 136 c 1
 637 120 663 117 676 117 c 0
 753 117 741 208 741 226 c 0
 741 255 746 335 673 335 c 2
 646 335 l 2
 634 335 627 333 627 349 c 0
 627 352 627 362 634 363 c 0
 636 364 635 364 667 366 c 0
 693 368 706 385 713 399 c 1
 731 429 730 471 730 476 c 0
 730 490 738 546 678 546 c 0
 660 546 635 541 613 524 c 1
 613 523 649 514 649 468 c 0
 649 438 631 412 601 412 c 0
 575 412 554 434 554 468 c 0
 554 529 603 577 681 577 c 0
 778 577 824 530 824 473 c 0
 824 408 776 367 735 352 c 1
 833 327 845 261 845 225 c 0
 845 159 803 82 680 82 c 0
 596 82 533 125 533 193 c 0
169 396 m 1
 190 595 l 1
 224 595 l 1
 226 587 226 582 238 579 c 1
 246 576 360 571 370 571 c 2
 491 571 l 1
 491 543 491 541 484 533 c 2
 383 400 l 2
 364 373 349 334 342 276 c 0
 338 242 336 207 336 172 c 2
 336 138 l 2
 336 78 297 82 293 82 c 0
 297 82 252 74 252 137 c 0
 252 257 303 358 365 438 c 1
 361 432 391 471 389 468 c 1
 290 468 l 2
 279 468 229 468 220 464 c 0
 220 464 211 464 203 396 c 1
 169 396 l 1
EndSplineSet
EndChar
StartChar: uF26DB
Encoding: 992987 992987 1847
Width: 1000
Flags: MW
LayerCount: 2
Fore
SplineSet
38 301 m 0
 38 407 61 591 217 746 c 0
 235 763 277 800 294 800 c 0
 302 800 312 797 312 786 c 0
 312 781 311 780 296 765 c 0
 186 654 135 497 135 300 c 0
 135 212 147 120 173 41 c 0
 215 -87 280 -148 309 -175 c 0
 309 -176 312 -180 312 -185 c 0
 312 -196 302 -199 294 -199 c 0
 275 -199 184 -132 118 -17 c 0
 71 66 38 176 38 301 c 0
688 -185 m 0
 688 -180 689 -179 704 -164 c 0
 814 -53 865 104 865 301 c 0
 865 458 831 635 705 763 c 0
 688 779 688 781 688 786 c 0
 688 797 698 800 706 800 c 0
 725 800 816 733 882 618 c 0
 929 535 962 425 962 300 c 0
 962 194 939 10 783 -145 c 0
 765 -162 723 -199 706 -199 c 0
 698 -199 688 -196 688 -185 c 0
524 204 m 1
 524 242 l 1
 751 564 l 2
 759 576 760 576 776 576 c 0
 796 576 797 572 797 551 c 2
 797 242 l 1
 858 242 l 1
 858 204 l 1
 797 204 l 1
 797 118 l 1
 797 125 877 126 863 126 c 1
 859 126 l 1
 859 88 l 1
 839 90 776 90 752 90 c 0
 725 90 660 90 636 88 c 1
 636 126 l 1
 632 126 l 1
 618 126 710 125 710 118 c 1
 710 204 l 1
 524 204 l 1
561 242 m 1
 718 242 l 1
 718 463 l 1
 561 242 l 1
170 396 m 1
 192 595 l 1
 226 595 l 1
 228 587 228 582 240 579 c 1
 248 576 362 571 372 571 c 2
 493 571 l 1
 493 543 493 541 486 533 c 2
 385 400 l 2
 366 373 351 334 344 276 c 0
 340 242 338 207 338 172 c 2
 338 138 l 2
 338 78 299 82 295 82 c 0
 299 82 252 74 252 137 c 0
 252 257 305 358 367 438 c 1
 363 432 393 471 391 468 c 1
 292 468 l 2
 281 468 229 468 220 464 c 0
 220 464 212 464 204 396 c 1
 170 396 l 1
EndSplineSet
EndChar
StartChar: uF26DD
Encoding: 992989 992989 1849
Width: 1000
VWidth: 1000
Flags: MW
LayerCount: 2
Fore
SplineSet
38 301 m 0
 38 407 61 591 217 746 c 0
 235 763 277 800 294 800 c 0
 302 800 312 797 312 786 c 0
 312 781 311 780 296 765 c 0
 186 654 135 497 135 300 c 0
 135 212 147 120 173 41 c 0
 215 -87 280 -148 309 -175 c 0
 309 -176 312 -180 312 -185 c 0
 312 -196 302 -199 294 -199 c 0
 275 -199 184 -132 118 -17 c 0
 71 66 38 176 38 301 c 0
688 -185 m 0
 688 -180 689 -179 704 -164 c 0
 814 -53 865 104 865 301 c 0
 865 458 831 635 705 763 c 0
 688 779 688 781 688 786 c 0
 688 797 698 800 706 800 c 0
 725 800 816 733 882 618 c 0
 929 535 962 425 962 300 c 0
 962 194 939 10 783 -145 c 0
 765 -162 723 -199 706 -199 c 0
 698 -199 688 -196 688 -185 c 0
533 326 m 0
 533 521 644 577 730 577 c 0
 801 577 826 527 826 481 c 0
 826 453 814 430 784 430 c 0
 756 430 742 452 742 479 c 0
 742 498 750 525 776 530 c 1
 761 545 741 546 731 546 c 0
 687 546 653 514 641 482 c 0
 641 476 627 449 627 361 c 2
 627 348 l 1
 658 410 697 401 702 401 c 0
 780 401 845 350 845 242 c 0
 845 142 785 82 692 82 c 0
 645 82 597 100 566 156 c 1
 537 211 533 272 533 326 c 0
628 244 m 0
 628 230 629 175 638 154 c 0
 643 142 660 117 691 117 c 0
 729 117 740 134 744 154 c 0
 751 176 752 207 752 244 c 0
 752 284 752 317 744 339 c 0
 740 355 727 371 694 371 c 0
 666 371 628 347 628 244 c 0
169 396 m 1
 190 595 l 1
 224 595 l 1
 226 587 226 582 238 579 c 1
 246 576 360 571 370 571 c 2
 491 571 l 1
 491 543 491 541 484 533 c 2
 383 400 l 2
 364 373 349 334 342 276 c 0
 338 242 336 207 336 172 c 2
 336 138 l 2
 336 78 297 82 293 82 c 0
 297 82 252 74 252 137 c 0
 252 257 303 358 365 438 c 1
 361 432 391 471 389 468 c 1
 290 468 l 2
 279 468 229 468 220 464 c 0
 220 464 211 464 203 396 c 1
 169 396 l 1
EndSplineSet
EndChar
StartChar: uF26DE
Encoding: 992990 992990 1850
Width: 1000
Flags: MW
LayerCount: 2
Fore
SplineSet
38 301 m 0
 38 407 61 591 217 746 c 0
 235 763 277 800 294 800 c 0
 302 800 312 797 312 786 c 0
 312 781 311 780 296 765 c 0
 186 654 135 497 135 300 c 0
 135 212 147 120 173 41 c 0
 215 -87 280 -148 309 -175 c 0
 309 -176 312 -180 312 -185 c 0
 312 -196 302 -199 294 -199 c 0
 275 -199 184 -132 118 -17 c 0
 71 66 38 176 38 301 c 0
688 -185 m 0
 688 -180 689 -179 704 -164 c 0
 814 -53 865 104 865 301 c 0
 865 458 831 635 705 763 c 0
 688 779 688 781 688 786 c 0
 688 797 698 800 706 800 c 0
 725 800 816 733 882 618 c 0
 929 535 962 425 962 300 c 0
 962 194 939 10 783 -145 c 0
 765 -162 723 -199 706 -199 c 0
 698 -199 688 -196 688 -185 c 0
547 396 m 1
 570 595 l 1
 602 595 l 1
 604 587 604 582 616 579 c 1
 624 576 738 571 748 571 c 2
 870 571 l 1
 870 543 870 541 863 533 c 2
 762 400 l 2
 743 373 729 334 722 276 c 0
 718 242 715 207 715 172 c 2
 715 138 l 2
 715 78 676 82 672 82 c 0
 676 82 630 74 630 137 c 0
 630 257 682 358 744 438 c 1
 740 432 770 471 768 468 c 1
 668 468 l 2
 657 468 607 468 598 464 c 0
 598 464 589 464 581 396 c 1
 547 396 l 1
172 396 m 1
 194 595 l 1
 228 595 l 1
 230 587 229 582 241 579 c 1
 249 576 363 571 373 571 c 2
 495 571 l 1
 495 543 495 541 488 533 c 2
 387 400 l 2
 368 373 353 334 346 276 c 0
 342 242 340 207 340 172 c 2
 340 138 l 2
 340 78 301 82 297 82 c 0
 301 82 254 74 254 137 c 0
 254 257 307 358 369 438 c 1
 365 432 395 471 393 468 c 1
 294 468 l 2
 283 468 231 468 222 464 c 0
 222 464 214 464 206 396 c 1
 172 396 l 1
EndSplineSet
EndChar
StartChar: uF26DF
Encoding: 992991 992991 1851
Width: 1000
VWidth: 1000
Flags: MW
LayerCount: 2
Fore
SplineSet
38 301 m 0
 38 407 61 591 217 746 c 0
 235 763 277 800 294 800 c 0
 302 800 312 797 312 786 c 0
 312 781 311 780 296 765 c 0
 186 654 135 497 135 300 c 0
 135 212 147 120 173 41 c 0
 215 -87 280 -148 309 -175 c 0
 309 -176 312 -180 312 -185 c 0
 312 -196 302 -199 294 -199 c 0
 275 -199 184 -132 118 -17 c 0
 71 66 38 176 38 301 c 0
688 -185 m 0
 688 -180 689 -179 704 -164 c 0
 814 -53 865 104 865 301 c 0
 865 458 831 635 705 763 c 0
 688 779 688 781 688 786 c 0
 688 797 698 800 706 800 c 0
 725 800 816 733 882 618 c 0
 929 535 962 425 962 300 c 0
 962 194 939 10 783 -145 c 0
 765 -162 723 -199 706 -199 c 0
 698 -199 688 -196 688 -185 c 0
533 211 m 0
 533 263 552 304 610 334 c 1
 595 343 586 354 577 368 c 0
 560 393 554 421 554 445 c 0
 554 517 597 577 692 577 c 0
 768 577 824 546 824 468 c 0
 824 426 808 395 764 368 c 1
 771 363 794 350 812 329 c 0
 830 309 845 280 845 232 c 0
 845 150 797 82 688 82 c 0
 603 82 533 117 533 211 c 0
595 211 m 0
 595 154 628 117 692 117 c 0
 724 117 784 122 784 187 c 0
 784 221 762 236 732 256 c 1
 687 285 671 294 643 312 c 1
 631 302 595 273 595 211 c 0
607 492 m 0
 607 463 630 455 634 452 c 2
 733 388 l 1
 757 409 772 430 772 466 c 0
 772 516 743 546 688 546 c 0
 669 546 607 546 607 492 c 0
169 396 m 1
 190 595 l 1
 224 595 l 1
 226 587 226 582 238 579 c 1
 246 576 360 571 370 571 c 2
 491 571 l 1
 491 543 491 541 484 533 c 2
 383 400 l 2
 364 373 349 334 342 276 c 0
 338 242 336 207 336 172 c 2
 336 138 l 2
 336 78 297 82 293 82 c 0
 297 82 252 74 252 137 c 0
 252 257 303 358 365 438 c 1
 361 432 391 471 389 468 c 1
 290 468 l 2
 279 468 229 468 220 464 c 0
 220 464 211 464 203 396 c 1
 169 396 l 1
EndSplineSet
EndChar
StartChar: uF26E1
Encoding: 992993 992993 1853
Width: 1000
VWidth: 1000
Flags: MW
LayerCount: 2
Fore
SplineSet
38 301 m 0
 38 407 61 591 217 746 c 0
 235 763 277 800 294 800 c 0
 302 800 312 797 312 786 c 0
 312 781 311 780 296 765 c 0
 186 654 135 497 135 300 c 0
 135 212 147 120 173 41 c 0
 215 -87 280 -148 309 -175 c 0
 309 -176 312 -180 312 -185 c 0
 312 -196 302 -199 294 -199 c 0
 275 -199 184 -132 118 -17 c 0
 71 66 38 176 38 301 c 0
688 -185 m 0
 688 -180 689 -179 704 -164 c 0
 814 -53 865 104 865 301 c 0
 865 458 831 635 705 763 c 0
 688 779 688 781 688 786 c 0
 688 797 698 800 706 800 c 0
 725 800 816 733 882 618 c 0
 929 535 962 425 962 300 c 0
 962 194 939 10 783 -145 c 0
 765 -162 723 -199 706 -199 c 0
 698 -199 688 -196 688 -185 c 0
530 325 m 0
 530 369 528 468 576 528 c 1
 597 550 629 575 688 575 c 0
 742 575 770 555 790 541 c 0
 847 483 846 373 846 325 c 0
 846 277 846 175 793 117 c 0
 773 100 743 79 688 79 c 0
 632 79 603 100 582 120 c 0
 531 177 530 277 530 325 c 0
620 334 m 0
 620 294 619 213 625 175 c 0
 631 124 666 109 688 109 c 0
 704 109 746 116 754 186 c 0
 757 223 757 296 757 334 c 0
 757 400 758 484 746 508 c 0
 733 531 712 545 688 545 c 0
 673 545 630 538 624 476 c 0
 619 437 620 390 620 334 c 0
157 208 m 0
 157 260 176 301 234 331 c 1
 219 340 210 350 201 364 c 0
 184 389 178 417 178 441 c 0
 178 513 219 575 314 575 c 0
 390 575 448 544 448 466 c 0
 448 424 432 391 388 364 c 1
 395 359 417 346 435 325 c 0
 453 305 469 278 469 230 c 0
 469 148 420 79 311 79 c 0
 226 79 157 114 157 208 c 0
218 208 m 0
 218 151 250 114 314 114 c 0
 346 114 409 120 409 185 c 0
 409 219 386 232 356 252 c 1
 311 281 295 291 267 309 c 1
 255 299 218 270 218 208 c 0
231 490 m 0
 231 461 253 452 257 449 c 2
 356 386 l 1
 380 407 395 428 395 464 c 0
 395 514 366 542 311 542 c 0
 292 542 231 544 231 490 c 0
EndSplineSet
EndChar
StartChar: uF26E2
Encoding: 992994 992994 1854
Width: 1000
VWidth: 1000
Flags: MW
LayerCount: 2
Fore
SplineSet
38 301 m 0
 38 407 61 591 217 746 c 0
 235 763 277 800 294 800 c 0
 302 800 312 797 312 786 c 0
 312 781 311 780 296 765 c 0
 186 654 135 497 135 300 c 0
 135 212 147 120 173 41 c 0
 215 -87 280 -148 309 -175 c 0
 309 -176 312 -180 312 -185 c 0
 312 -196 302 -199 294 -199 c 0
 275 -199 184 -132 118 -17 c 0
 71 66 38 176 38 301 c 0
688 -185 m 0
 688 -180 689 -179 704 -164 c 0
 814 -53 865 104 865 301 c 0
 865 458 831 635 705 763 c 0
 688 779 688 781 688 786 c 0
 688 797 698 800 706 800 c 0
 725 800 816 733 882 618 c 0
 929 535 962 425 962 300 c 0
 962 194 939 10 783 -145 c 0
 765 -162 723 -199 706 -199 c 0
 698 -199 688 -196 688 -185 c 0
550 488 m 1
 550 527 l 1
 566 527 l 1
 577 527 646 525 698 569 c 0
 705 575 704 575 714 575 c 1
 731 575 731 566 731 550 c 2
 731 115 l 1
 731 122 845 124 828 124 c 1
 822 124 l 1
 822 85 l 1
 794 87 721 88 689 88 c 0
 657 88 586 87 558 85 c 1
 558 124 l 1
 552 124 l 1
 535 124 648 122 648 115 c 1
 648 503 l 1
 609 490 574 488 566 488 c 1
 550 488 l 1
153 208 m 0
 153 260 172 301 230 331 c 1
 215 340 207 350 198 364 c 0
 181 389 174 417 174 441 c 0
 174 513 215 575 310 575 c 0
 386 575 444 544 444 466 c 0
 444 424 428 391 384 364 c 1
 391 359 413 346 431 325 c 0
 449 305 466 278 466 230 c 0
 466 148 417 79 308 79 c 0
 223 79 153 114 153 208 c 0
214 208 m 0
 214 151 246 114 310 114 c 0
 342 114 405 120 405 185 c 0
 405 219 383 232 353 252 c 1
 308 281 291 291 263 309 c 1
 251 299 214 270 214 208 c 0
228 490 m 0
 228 461 249 452 253 449 c 2
 354 386 l 1
 378 407 391 428 391 464 c 0
 391 514 363 542 308 542 c 0
 289 542 228 544 228 490 c 0
EndSplineSet
EndChar
StartChar: uF26E3
Encoding: 992995 992995 1855
Width: 1000
Flags: MW
LayerCount: 2
Fore
SplineSet
38 301 m 0
 38 407 61 591 217 746 c 0
 235 763 277 800 294 800 c 0
 302 800 312 797 312 786 c 0
 312 781 311 780 296 765 c 0
 186 654 135 497 135 300 c 0
 135 212 147 120 173 41 c 0
 215 -87 280 -148 309 -175 c 0
 309 -176 312 -180 312 -185 c 0
 312 -196 302 -199 294 -199 c 0
 275 -199 184 -132 118 -17 c 0
 71 66 38 176 38 301 c 0
688 -185 m 0
 688 -180 689 -179 704 -164 c 0
 814 -53 865 104 865 301 c 0
 865 458 831 635 705 763 c 0
 688 779 688 781 688 786 c 0
 688 797 698 800 706 800 c 0
 725 800 816 733 882 618 c 0
 929 535 962 425 962 300 c 0
 962 194 939 10 783 -145 c 0
 765 -162 723 -199 706 -199 c 0
 698 -199 688 -196 688 -185 c 0
536 85 m 1
 536 84 536 101 536 100 c 2
 536 117 537 118 545 128 c 2
 673 279 l 2
 720 334 741 383 741 433 c 0
 741 487 711 536 658 536 c 0
 640 536 620 532 600 522 c 1
 602 520 607 520 608 518 c 0
 618 510 634 499 634 464 c 0
 634 424 608 407 585 407 c 0
 565 407 536 422 536 466 c 0
 536 534 599 575 677 575 c 0
 769 575 836 520 836 434 c 0
 836 364 795 329 732 276 c 1
 696 245 673 224 634 188 c 1
 720 188 l 2
 728 188 777 189 786 193 c 1
 795 197 801 248 803 261 c 1
 836 261 l 1
 816 85 l 1
 536 85 l 1
156 208 m 0
 156 260 175 301 233 331 c 1
 218 340 208 350 199 364 c 0
 182 389 176 417 176 441 c 0
 176 513 219 575 314 575 c 0
 390 575 446 544 446 466 c 0
 446 424 430 391 386 364 c 1
 393 359 416 346 434 325 c 0
 452 305 468 278 468 230 c 0
 468 148 419 79 310 79 c 0
 225 79 156 114 156 208 c 0
217 208 m 0
 217 151 250 114 314 114 c 0
 346 114 406 120 406 185 c 0
 406 219 386 232 356 252 c 1
 311 281 294 291 266 309 c 1
 254 299 217 270 217 208 c 0
229 490 m 0
 229 461 252 452 256 449 c 2
 355 386 l 1
 379 407 394 428 394 464 c 0
 394 514 365 542 310 542 c 0
 291 542 229 544 229 490 c 0
EndSplineSet
EndChar
StartChar: uF26E5
Encoding: 992997 992997 1857
Width: 1000
VWidth: 1000
Flags: MW
LayerCount: 2
Fore
SplineSet
38 301 m 0
 38 407 61 591 217 746 c 0
 235 763 277 800 294 800 c 0
 302 800 312 797 312 786 c 0
 312 781 311 780 296 765 c 0
 186 654 135 497 135 300 c 0
 135 212 147 120 173 41 c 0
 215 -87 280 -148 309 -175 c 0
 309 -176 312 -180 312 -185 c 0
 312 -196 302 -199 294 -199 c 0
 275 -199 184 -132 118 -17 c 0
 71 66 38 176 38 301 c 0
688 -185 m 0
 688 -180 689 -179 704 -164 c 0
 814 -53 865 104 865 301 c 0
 865 458 831 635 705 763 c 0
 688 779 688 781 688 786 c 0
 688 797 698 800 706 800 c 0
 725 800 816 733 882 618 c 0
 929 535 962 425 962 300 c 0
 962 194 939 10 783 -145 c 0
 765 -162 723 -199 706 -199 c 0
 698 -199 688 -196 688 -185 c 0
523 201 m 1
 523 239 l 1
 750 561 l 2
 758 573 758 574 774 574 c 0
 794 574 796 570 796 549 c 2
 796 239 l 1
 856 239 l 1
 856 201 l 1
 796 201 l 1
 796 115 l 1
 796 122 875 124 861 124 c 1
 857 124 l 1
 857 86 l 1
 837 88 774 88 750 88 c 0
 723 88 659 88 635 86 c 1
 635 124 l 1
 631 124 l 1
 617 124 708 122 708 115 c 1
 708 201 l 1
 523 201 l 1
559 239 m 1
 716 239 l 1
 716 459 l 1
 559 239 l 1
158 208 m 0
 158 260 178 300 236 330 c 1
 221 339 211 351 202 365 c 0
 185 390 179 418 179 442 c 0
 179 514 221 575 316 575 c 0
 392 575 449 543 449 465 c 0
 449 423 433 391 389 364 c 1
 396 359 419 346 437 325 c 0
 455 305 470 277 470 229 c 0
 470 147 422 79 313 79 c 0
 228 79 158 114 158 208 c 0
218 208 m 0
 218 151 252 115 316 115 c 0
 348 115 410 120 410 185 c 0
 410 219 388 232 358 252 c 1
 313 281 297 290 269 308 c 1
 257 298 218 270 218 208 c 0
232 490 m 0
 232 461 254 452 258 449 c 2
 358 385 l 1
 382 406 396 428 396 464 c 0
 396 514 368 543 313 543 c 0
 294 543 232 544 232 490 c 0
EndSplineSet
EndChar
StartChar: uF26E8
Encoding: 993000 993000 1860
Width: 1000
VWidth: 1000
Flags: MW
LayerCount: 2
Fore
SplineSet
38 301 m 0
 38 407 61 591 217 746 c 0
 235 763 277 800 294 800 c 0
 302 800 312 797 312 786 c 0
 312 781 311 780 296 765 c 0
 186 654 135 497 135 300 c 0
 135 212 147 120 173 41 c 0
 215 -87 280 -148 309 -175 c 0
 309 -176 312 -180 312 -185 c 0
 312 -196 302 -199 294 -199 c 0
 275 -199 184 -132 118 -17 c 0
 71 66 38 176 38 301 c 0
688 -185 m 0
 688 -180 689 -179 704 -164 c 0
 814 -53 865 104 865 301 c 0
 865 458 831 635 705 763 c 0
 688 779 688 781 688 786 c 0
 688 797 698 800 706 800 c 0
 725 800 816 733 882 618 c 0
 929 535 962 425 962 300 c 0
 962 194 939 10 783 -145 c 0
 765 -162 723 -199 706 -199 c 0
 698 -199 688 -196 688 -185 c 0
546 396 m 1
 568 595 l 1
 602 595 l 1
 604 587 602 582 614 579 c 1
 622 576 736 571 746 571 c 2
 868 571 l 1
 868 543 868 541 861 533 c 2
 760 400 l 2
 741 373 726 334 719 276 c 0
 715 242 713 207 713 172 c 2
 713 138 l 2
 713 78 674 82 670 82 c 0
 674 82 629 74 629 137 c 0
 629 257 680 358 742 438 c 1
 738 432 768 471 766 468 c 1
 667 468 l 2
 656 468 606 468 597 464 c 0
 597 464 587 464 579 396 c 1
 546 396 l 1
160 211 m 0
 160 263 179 304 237 334 c 1
 222 343 213 354 204 368 c 0
 187 393 181 421 181 445 c 0
 181 517 223 577 318 577 c 0
 394 577 451 546 451 468 c 0
 451 426 435 395 391 368 c 1
 398 363 421 350 439 329 c 0
 457 309 472 280 472 232 c 0
 472 150 423 82 314 82 c 0
 229 82 160 117 160 211 c 0
221 211 m 0
 221 154 254 117 318 117 c 0
 350 117 412 122 412 187 c 0
 412 221 390 236 360 256 c 1
 315 285 298 294 270 312 c 1
 258 302 221 273 221 211 c 0
234 492 m 0
 234 463 256 455 260 452 c 2
 359 388 l 1
 383 409 398 430 398 466 c 0
 398 516 369 546 314 546 c 0
 295 546 234 546 234 492 c 0
EndSplineSet
EndChar
StartChar: uF26EA
Encoding: 993002 993002 1862
Width: 1000
Flags: MW
LayerCount: 2
Fore
SplineSet
38 301 m 0
 38 407 61 591 217 746 c 0
 235 763 277 800 294 800 c 0
 302 800 312 797 312 786 c 0
 312 781 311 780 296 765 c 0
 186 654 135 497 135 300 c 0
 135 212 147 120 173 41 c 0
 215 -87 280 -148 309 -175 c 0
 309 -176 312 -180 312 -185 c 0
 312 -196 302 -199 294 -199 c 0
 275 -199 184 -132 118 -17 c 0
 71 66 38 176 38 301 c 0
688 -185 m 0
 688 -180 689 -179 704 -164 c 0
 814 -53 865 104 865 301 c 0
 865 458 831 635 705 763 c 0
 688 779 688 781 688 786 c 0
 688 797 698 800 706 800 c 0
 725 800 816 733 882 618 c 0
 929 535 962 425 962 300 c 0
 962 194 939 10 783 -145 c 0
 765 -162 723 -199 706 -199 c 0
 698 -199 688 -196 688 -185 c 0
532 415 m 0
 532 466 550 513 580 539 c 1
 607 562 644 575 689 575 c 0
 865 575 844 344 844 332 c 0
 844 132 738 79 656 79 c 0
 581 79 550 125 550 176 c 0
 550 204 564 227 594 227 c 0
 622 227 635 205 635 178 c 0
 635 139 607 130 605 128 c 1
 625 116 642 114 654 114 c 0
 704 114 731 154 738 179 c 0
 746 203 750 245 750 296 c 2
 750 310 l 1
 723 256 691 258 675 258 c 0
 596 258 532 309 532 415 c 0
625 414 m 0
 625 373 625 339 634 316 c 0
 638 303 650 287 682 287 c 0
 734 287 749 365 749 408 c 0
 749 432 750 473 742 498 c 0
 743 500 729 542 690 542 c 0
 656 542 643 530 635 514 c 0
 625 490 625 454 625 414 c 0
156 208 m 0
 156 260 176 301 234 331 c 1
 219 340 209 350 200 364 c 0
 183 389 178 417 178 441 c 0
 178 513 219 575 314 575 c 0
 390 575 448 544 448 466 c 0
 448 424 432 391 388 364 c 1
 395 359 417 346 435 325 c 0
 453 305 468 278 468 230 c 0
 468 148 420 79 311 79 c 0
 226 79 156 114 156 208 c 0
218 208 m 0
 218 151 250 114 314 114 c 0
 346 114 408 120 408 185 c 0
 408 219 386 232 356 252 c 1
 311 281 295 291 267 309 c 1
 255 299 218 270 218 208 c 0
230 490 m 0
 230 461 253 452 257 449 c 2
 356 386 l 1
 380 407 395 428 395 464 c 0
 395 514 366 542 311 542 c 0
 292 542 230 544 230 490 c 0
EndSplineSet
EndChar
StartChar: uF26EB
Encoding: 993003 993003 1863
Width: 1000
VWidth: 1000
Flags: MW
LayerCount: 2
Fore
SplineSet
38 301 m 0
 38 407 61 591 217 746 c 0
 235 763 277 800 294 800 c 0
 302 800 312 797 312 786 c 0
 312 781 311 780 296 765 c 0
 186 654 135 497 135 300 c 0
 135 212 147 120 173 41 c 0
 215 -87 280 -148 309 -175 c 0
 309 -176 312 -180 312 -185 c 0
 312 -196 302 -199 294 -199 c 0
 275 -199 184 -132 118 -17 c 0
 71 66 38 176 38 301 c 0
688 -185 m 0
 688 -180 689 -179 704 -164 c 0
 814 -53 865 104 865 301 c 0
 865 458 831 635 705 763 c 0
 688 779 688 781 688 786 c 0
 688 797 698 800 706 800 c 0
 725 800 816 733 882 618 c 0
 929 535 962 425 962 300 c 0
 962 194 939 10 783 -145 c 0
 765 -162 723 -199 706 -199 c 0
 698 -199 688 -196 688 -185 c 0
530 325 m 0
 530 369 528 468 576 528 c 1
 597 550 629 575 688 575 c 0
 742 575 770 555 790 541 c 0
 847 483 846 373 846 325 c 0
 846 277 846 175 793 117 c 0
 773 100 743 79 688 79 c 0
 632 79 603 100 582 120 c 0
 531 177 530 277 530 325 c 0
620 334 m 0
 620 294 619 213 625 175 c 0
 631 124 666 109 688 109 c 0
 704 109 746 116 754 186 c 0
 757 223 757 296 757 334 c 0
 757 400 758 484 746 508 c 0
 733 531 712 545 688 545 c 0
 673 545 630 538 624 476 c 0
 619 437 620 390 620 334 c 0
157 415 m 0
 157 466 175 513 205 539 c 1
 232 562 269 575 314 575 c 0
 490 575 469 344 469 332 c 0
 469 132 363 79 281 79 c 0
 206 79 176 125 176 176 c 0
 176 204 189 227 219 227 c 0
 247 227 260 205 260 178 c 0
 260 139 232 130 230 128 c 1
 250 116 268 114 280 114 c 0
 330 114 357 154 364 179 c 0
 372 203 375 245 375 296 c 2
 375 310 l 1
 348 256 317 258 301 258 c 0
 222 258 157 309 157 415 c 0
250 414 m 0
 250 373 250 339 259 316 c 0
 263 303 276 287 308 287 c 0
 360 287 375 365 375 408 c 0
 375 432 375 473 367 498 c 0
 368 500 354 542 315 542 c 0
 281 542 269 530 261 514 c 0
 251 490 250 454 250 414 c 0
EndSplineSet
EndChar
StartChar: uF26ED
Encoding: 993005 993005 1865
Width: 1000
Flags: MW
LayerCount: 2
Fore
SplineSet
38 301 m 0
 38 407 61 591 217 746 c 0
 235 763 277 800 294 800 c 0
 302 800 312 797 312 786 c 0
 312 781 311 780 296 765 c 0
 186 654 135 497 135 300 c 0
 135 212 147 120 173 41 c 0
 215 -87 280 -148 309 -175 c 0
 309 -176 312 -180 312 -185 c 0
 312 -196 302 -199 294 -199 c 0
 275 -199 184 -132 118 -17 c 0
 71 66 38 176 38 301 c 0
688 -185 m 0
 688 -180 689 -179 704 -164 c 0
 814 -53 865 104 865 301 c 0
 865 458 831 635 705 763 c 0
 688 779 688 781 688 786 c 0
 688 797 698 800 706 800 c 0
 725 800 816 733 882 618 c 0
 929 535 962 425 962 300 c 0
 962 194 939 10 783 -145 c 0
 765 -162 723 -199 706 -199 c 0
 698 -199 688 -196 688 -185 c 0
536 85 m 1
 536 84 536 101 536 100 c 2
 536 117 537 118 545 128 c 2
 673 279 l 2
 720 334 741 383 741 433 c 0
 741 487 711 536 658 536 c 0
 640 536 620 532 600 522 c 1
 602 520 607 520 608 518 c 0
 618 510 634 499 634 464 c 0
 634 424 608 407 585 407 c 0
 565 407 536 422 536 466 c 0
 536 534 599 575 677 575 c 0
 769 575 836 520 836 434 c 0
 836 364 795 329 732 276 c 1
 696 245 673 224 634 188 c 1
 720 188 l 2
 728 188 777 189 786 193 c 1
 795 197 801 248 803 261 c 1
 836 261 l 1
 816 85 l 1
 536 85 l 1
156 415 m 0
 156 466 174 513 204 539 c 1
 231 562 268 575 313 575 c 0
 489 575 468 344 468 332 c 0
 468 132 362 79 280 79 c 0
 205 79 174 125 174 176 c 0
 174 204 188 227 218 227 c 0
 246 227 259 205 259 178 c 0
 259 139 231 130 229 128 c 1
 249 116 266 114 278 114 c 0
 328 114 355 154 362 179 c 0
 370 203 374 245 374 296 c 2
 374 310 l 1
 347 256 315 258 299 258 c 0
 220 258 156 309 156 415 c 0
249 414 m 0
 249 373 249 339 258 316 c 0
 262 303 274 287 306 287 c 0
 358 287 373 365 373 408 c 0
 373 432 374 473 366 498 c 0
 367 500 353 542 314 542 c 0
 280 542 267 530 259 514 c 0
 249 490 249 454 249 414 c 0
EndSplineSet
EndChar
StartChar: uF26EE
Encoding: 993006 993006 1866
Width: 1000
Flags: MW
LayerCount: 2
Fore
SplineSet
38 301 m 0
 38 407 61 591 217 746 c 0
 235 763 277 800 294 800 c 0
 302 800 312 797 312 786 c 0
 312 781 311 780 296 765 c 0
 186 654 135 497 135 300 c 0
 135 212 147 120 173 41 c 0
 215 -87 280 -148 309 -175 c 0
 309 -176 312 -180 312 -185 c 0
 312 -196 302 -199 294 -199 c 0
 275 -199 184 -132 118 -17 c 0
 71 66 38 176 38 301 c 0
688 -185 m 0
 688 -180 689 -179 704 -164 c 0
 814 -53 865 104 865 301 c 0
 865 458 831 635 705 763 c 0
 688 779 688 781 688 786 c 0
 688 797 698 800 706 800 c 0
 725 800 816 733 882 618 c 0
 929 535 962 425 962 300 c 0
 962 194 939 10 783 -145 c 0
 765 -162 723 -199 706 -199 c 0
 698 -199 688 -196 688 -185 c 0
532 191 m 0
 532 230 554 252 584 252 c 0
 614 252 635 228 635 192 c 0
 635 160 622 142 601 132 c 1
 635 116 662 114 675 114 c 0
 752 114 739 205 739 223 c 0
 739 252 744 332 671 332 c 2
 644 332 l 2
 632 332 625 331 625 347 c 0
 625 350 627 359 634 360 c 0
 636 361 633 361 665 363 c 0
 691 365 704 382 711 396 c 1
 729 426 728 468 728 473 c 0
 728 487 736 542 676 542 c 0
 658 542 633 538 611 521 c 1
 611 520 647 510 647 464 c 0
 647 434 630 409 600 409 c 0
 574 409 552 432 552 466 c 0
 552 527 602 575 680 575 c 0
 777 575 822 528 822 471 c 0
 822 406 774 364 733 349 c 1
 831 324 844 259 844 223 c 0
 844 157 801 79 678 79 c 0
 594 79 532 123 532 191 c 0
156 415 m 0
 156 466 174 513 204 539 c 1
 231 562 269 575 314 575 c 0
 490 575 468 344 468 332 c 0
 468 132 364 79 282 79 c 0
 207 79 175 125 175 176 c 0
 175 204 188 227 218 227 c 0
 246 227 260 205 260 178 c 0
 260 139 232 130 230 128 c 1
 250 116 268 114 280 114 c 0
 330 114 356 154 363 179 c 0
 371 203 375 245 375 296 c 2
 375 310 l 1
 348 256 316 258 300 258 c 0
 221 258 156 309 156 415 c 0
250 414 m 0
 250 373 251 339 260 316 c 0
 264 303 275 287 307 287 c 0
 359 287 374 365 374 408 c 0
 374 432 375 473 367 498 c 0
 368 500 354 542 315 542 c 0
 281 542 268 530 260 514 c 0
 250 490 250 454 250 414 c 0
EndSplineSet
EndChar
StartChar: uF26F1
Encoding: 993009 993009 1869
Width: 1000
Flags: MW
LayerCount: 2
Fore
SplineSet
38 301 m 0
 38 407 61 591 217 746 c 0
 235 763 277 800 294 800 c 0
 302 800 312 797 312 786 c 0
 312 781 311 780 296 765 c 0
 186 654 135 497 135 300 c 0
 135 212 147 120 173 41 c 0
 215 -87 280 -148 309 -175 c 0
 309 -176 312 -180 312 -185 c 0
 312 -196 302 -199 294 -199 c 0
 275 -199 184 -132 118 -17 c 0
 71 66 38 176 38 301 c 0
688 -185 m 0
 688 -180 689 -179 704 -164 c 0
 814 -53 865 104 865 301 c 0
 865 458 831 635 705 763 c 0
 688 779 688 781 688 786 c 0
 688 797 698 800 706 800 c 0
 725 800 816 733 882 618 c 0
 929 535 962 425 962 300 c 0
 962 194 939 10 783 -145 c 0
 765 -162 723 -199 706 -199 c 0
 698 -199 688 -196 688 -185 c 0
532 323 m 0
 532 518 642 575 728 575 c 0
 799 575 825 524 825 478 c 0
 825 450 813 427 783 427 c 0
 755 427 740 449 740 476 c 0
 740 495 748 521 774 526 c 1
 759 541 740 542 730 542 c 0
 686 542 652 511 640 479 c 0
 640 473 625 446 625 358 c 2
 625 345 l 1
 656 407 695 397 700 397 c 0
 778 397 844 347 844 239 c 0
 844 139 783 79 690 79 c 0
 643 79 595 97 564 153 c 1
 535 208 532 269 532 323 c 0
628 240 m 0
 628 226 627 173 636 152 c 0
 641 140 658 114 689 114 c 0
 727 114 739 132 743 152 c 0
 750 174 750 205 750 242 c 0
 750 282 750 314 742 336 c 0
 738 352 726 368 693 368 c 0
 665 368 628 343 628 240 c 0
156 415 m 0
 156 466 174 513 204 539 c 1
 231 562 269 575 314 575 c 0
 490 575 468 344 468 332 c 0
 468 132 364 79 282 79 c 0
 207 79 175 125 175 176 c 0
 175 204 188 227 218 227 c 0
 246 227 260 205 260 178 c 0
 260 139 232 130 230 128 c 1
 250 116 268 114 280 114 c 0
 330 114 356 154 363 179 c 0
 371 203 375 245 375 296 c 2
 375 310 l 1
 348 256 316 258 300 258 c 0
 221 258 156 309 156 415 c 0
250 414 m 0
 250 373 251 339 260 316 c 0
 264 303 275 287 307 287 c 0
 359 287 374 365 374 408 c 0
 374 432 375 473 367 498 c 0
 368 500 354 542 315 542 c 0
 281 542 268 530 260 514 c 0
 250 490 250 454 250 414 c 0
EndSplineSet
EndChar
StartChar: uF26F3
Encoding: 993011 993011 1871
Width: 1000
VWidth: 1000
Flags: MW
LayerCount: 2
Fore
SplineSet
38 301 m 0
 38 407 61 591 217 746 c 0
 235 763 277 800 294 800 c 0
 302 800 312 797 312 786 c 0
 312 781 311 780 296 765 c 0
 186 654 135 497 135 300 c 0
 135 212 147 120 173 41 c 0
 215 -87 280 -148 309 -175 c 0
 309 -176 312 -180 312 -185 c 0
 312 -196 302 -199 294 -199 c 0
 275 -199 184 -132 118 -17 c 0
 71 66 38 176 38 301 c 0
688 -185 m 0
 688 -180 689 -179 704 -164 c 0
 814 -53 865 104 865 301 c 0
 865 458 831 635 705 763 c 0
 688 779 688 781 688 786 c 0
 688 797 698 800 706 800 c 0
 725 800 816 733 882 618 c 0
 929 535 962 425 962 300 c 0
 962 194 939 10 783 -145 c 0
 765 -162 723 -199 706 -199 c 0
 698 -199 688 -196 688 -185 c 0
532 208 m 0
 532 260 551 301 609 331 c 1
 594 340 584 350 575 364 c 0
 558 389 552 417 552 441 c 0
 552 513 595 575 690 575 c 0
 766 575 822 544 822 466 c 0
 822 424 806 391 762 364 c 1
 769 359 792 346 810 325 c 0
 828 305 844 278 844 230 c 0
 844 148 795 79 686 79 c 0
 601 79 532 114 532 208 c 0
593 208 m 0
 593 151 626 114 690 114 c 0
 722 114 782 120 782 185 c 0
 782 219 762 232 732 252 c 1
 687 281 670 291 642 309 c 1
 630 299 593 270 593 208 c 0
605 490 m 0
 605 461 628 452 632 449 c 2
 731 386 l 1
 755 407 770 428 770 464 c 0
 770 514 741 542 686 542 c 0
 667 542 605 544 605 490 c 0
156 415 m 0
 156 466 174 513 204 539 c 1
 231 562 269 575 314 575 c 0
 490 575 468 344 468 332 c 0
 468 132 364 79 282 79 c 0
 207 79 175 125 175 176 c 0
 175 204 188 227 218 227 c 0
 246 227 260 205 260 178 c 0
 260 139 232 130 230 128 c 1
 250 116 268 114 280 114 c 0
 330 114 356 154 363 179 c 0
 371 203 375 245 375 296 c 2
 375 310 l 1
 348 256 316 258 300 258 c 0
 221 258 156 309 156 415 c 0
250 414 m 0
 250 373 251 339 260 316 c 0
 264 303 275 287 307 287 c 0
 359 287 374 365 374 408 c 0
 374 432 375 473 367 498 c 0
 368 500 354 542 315 542 c 0
 281 542 268 530 260 514 c 0
 250 490 250 454 250 414 c 0
EndSplineSet
EndChar
StartChar: uF26F4
Encoding: 993012 993012 1872
Width: 1000
Flags: MW
LayerCount: 2
Fore
SplineSet
38 301 m 0
 38 407 61 591 217 746 c 0
 235 763 277 800 294 800 c 0
 302 800 312 797 312 786 c 0
 312 781 311 780 296 765 c 0
 186 654 135 497 135 300 c 0
 135 212 147 120 173 41 c 0
 215 -87 280 -148 309 -175 c 0
 309 -176 312 -180 312 -185 c 0
 312 -196 302 -199 294 -199 c 0
 275 -199 184 -132 118 -17 c 0
 71 66 38 176 38 301 c 0
688 -185 m 0
 688 -180 689 -179 704 -164 c 0
 814 -53 865 104 865 301 c 0
 865 458 831 635 705 763 c 0
 688 779 688 781 688 786 c 0
 688 797 698 800 706 800 c 0
 725 800 816 733 882 618 c 0
 929 535 962 425 962 300 c 0
 962 194 939 10 783 -145 c 0
 765 -162 723 -199 706 -199 c 0
 698 -199 688 -196 688 -185 c 0
532 415 m 0
 532 466 550 513 580 539 c 1
 607 562 644 575 689 575 c 0
 865 575 844 344 844 332 c 0
 844 132 738 79 656 79 c 0
 581 79 550 125 550 176 c 0
 550 204 564 227 594 227 c 0
 622 227 635 205 635 178 c 0
 635 139 607 130 605 128 c 1
 625 116 642 114 654 114 c 0
 704 114 731 154 738 179 c 0
 746 203 750 245 750 296 c 2
 750 310 l 1
 723 256 691 258 675 258 c 0
 596 258 532 309 532 415 c 0
625 414 m 0
 625 373 625 339 634 316 c 0
 638 303 650 287 682 287 c 0
 734 287 749 365 749 408 c 0
 749 432 750 473 742 498 c 0
 743 500 729 542 690 542 c 0
 656 542 643 530 635 514 c 0
 625 490 625 454 625 414 c 0
156 415 m 0
 156 466 174 513 204 539 c 1
 231 562 269 575 314 575 c 0
 490 575 468 344 468 332 c 0
 468 132 364 79 282 79 c 0
 207 79 175 125 175 176 c 0
 175 204 188 227 218 227 c 0
 246 227 260 205 260 178 c 0
 260 139 232 130 230 128 c 1
 250 116 268 114 280 114 c 0
 330 114 356 154 363 179 c 0
 371 203 375 245 375 296 c 2
 375 310 l 1
 348 256 316 258 300 258 c 0
 221 258 156 309 156 415 c 0
250 414 m 0
 250 373 251 339 260 316 c 0
 264 303 275 287 307 287 c 0
 359 287 374 365 374 408 c 0
 374 432 375 473 367 498 c 0
 368 500 354 542 315 542 c 0
 281 542 268 530 260 514 c 0
 250 490 250 454 250 414 c 0
EndSplineSet
EndChar
StartChar: uF26F6
Encoding: 993014 993014 1874
Width: 1000
VWidth: 1000
Flags: MW
LayerCount: 2
Fore
SplineSet
38 301 m 0
 38 407 61 591 217 746 c 0
 235 763 277 800 294 800 c 0
 302 800 312 797 312 786 c 0
 312 781 311 780 296 765 c 0
 186 654 135 497 135 300 c 0
 135 212 147 120 173 41 c 0
 215 -87 280 -148 309 -175 c 0
 309 -176 312 -180 312 -185 c 0
 312 -196 302 -199 294 -199 c 0
 275 -199 184 -132 118 -17 c 0
 71 66 38 176 38 301 c 0
688 -185 m 0
 688 -180 689 -179 704 -164 c 0
 814 -53 865 104 865 301 c 0
 865 458 831 635 705 763 c 0
 688 779 688 781 688 786 c 0
 688 797 698 800 706 800 c 0
 725 800 816 733 882 618 c 0
 929 535 962 425 962 300 c 0
 962 194 939 10 783 -145 c 0
 765 -162 723 -199 706 -199 c 0
 698 -199 688 -196 688 -185 c 0
366 50 m 1
 366 88 l 1
 362 88 l 1
 357 88 450 87 448 86 c 1
 446 85 447 84 447 81 c 1
 447 534 l 1
 447 531 446 529 448 528 c 1
 450 527 357 527 362 527 c 1
 366 527 l 1
 366 565 l 1
 396 563 467 563 500 563 c 0
 533 563 604 563 634 565 c 1
 634 527 l 1
 638 527 l 1
 644 527 551 528 552 529 c 1
 553 530 553 531 553 534 c 1
 553 81 l 1
 553 84 553 85 552 86 c 1
 550 87 644 88 638 88 c 1
 634 88 l 1
 634 50 l 1
 604 52 533 52 500 52 c 0
 467 52 396 52 366 50 c 1
EndSplineSet
Colour: ffff
EndChar
StartChar: uF26F7
Encoding: 993015 993015 1875
Width: 1000
VWidth: 1000
Flags: MW
LayerCount: 2
Fore
SplineSet
38 301 m 0
 38 407 61 591 217 746 c 0
 235 763 277 800 294 800 c 0
 302 800 312 797 312 786 c 0
 312 781 311 780 296 765 c 0
 186 654 135 497 135 300 c 0
 135 212 147 120 173 41 c 0
 215 -87 280 -148 309 -175 c 0
 309 -176 312 -180 312 -185 c 0
 312 -196 302 -199 294 -199 c 0
 275 -199 184 -132 118 -17 c 0
 71 66 38 176 38 301 c 0
688 -185 m 0
 688 -180 689 -179 704 -164 c 0
 814 -53 865 104 865 301 c 0
 865 458 831 635 705 763 c 0
 688 779 688 781 688 786 c 0
 688 797 698 800 706 800 c 0
 725 800 816 733 882 618 c 0
 929 535 962 425 962 300 c 0
 962 194 939 10 783 -145 c 0
 765 -162 723 -199 706 -199 c 0
 698 -199 688 -196 688 -185 c 0
419 81 m 1
 419 84 419 85 418 86 c 1
 416 87 414 88 408 88 c 1
 592 88 l 1
 587 88 585 87 583 86 c 1
 581 85 581 84 581 81 c 1
 581 534 l 1
 581 531 581 529 583 528 c 1
 585 527 587 527 592 527 c 1
 408 527 l 1
 414 527 417 528 418 529 c 1
 419 530 419 531 419 534 c 1
 419 81 l 1
232 50 m 1
 232 88 l 1
 228 88 l 1
 223 88 316 87 314 86 c 1
 312 85 312 84 312 81 c 1
 312 534 l 1
 312 531 312 529 314 528 c 1
 316 527 223 527 228 527 c 1
 232 527 l 1
 232 565 l 1
 262 563 333 563 366 563 c 0
 399 563 601 563 634 563 c 0
 667 563 738 563 768 565 c 1
 768 527 l 1
 772 527 l 1
 778 527 685 528 686 529 c 1
 687 530 688 531 688 534 c 1
 688 81 l 1
 688 84 687 85 686 86 c 1
 684 87 778 88 772 88 c 1
 768 88 l 1
 768 50 l 1
 738 52 667 52 634 52 c 0
 601 52 399 52 366 52 c 0
 333 52 262 52 232 50 c 1
EndSplineSet
EndChar
StartChar: uF26FB
Encoding: 993019 993019 1879
Width: 1000
Flags: MW
LayerCount: 2
Fore
SplineSet
38 301 m 0
 38 407 61 591 217 746 c 0
 235 763 277 800 294 800 c 0
 302 800 312 797 312 786 c 0
 312 781 311 780 296 765 c 0
 186 654 135 497 135 300 c 0
 135 212 147 120 173 41 c 0
 215 -87 280 -148 309 -175 c 0
 309 -176 312 -180 312 -185 c 0
 312 -196 302 -199 294 -199 c 0
 275 -199 184 -132 118 -17 c 0
 71 66 38 176 38 301 c 0
688 -185 m 0
 688 -180 689 -179 704 -164 c 0
 814 -53 865 104 865 301 c 0
 865 458 831 635 705 763 c 0
 688 779 688 781 688 786 c 0
 688 797 698 800 706 800 c 0
 725 800 816 733 882 618 c 0
 929 535 962 425 962 300 c 0
 962 194 939 10 783 -145 c 0
 765 -162 723 -199 706 -199 c 0
 698 -199 688 -196 688 -185 c 0
189 527 m 1
 189 565 l 1
 213 562 261 563 287 563 c 0
 318 563 372 563 399 565 c 1
 399 527 l 1
 403 527 348 528 348 532 c 1
 348 532 348 532 347 534 c 1
 435 215 l 1
 523 516 l 2
 524 518 526 522 526 524 c 0
 526 531 479 527 479 527 c 1
 479 565 l 1
 508 562 527 563 556 563 c 0
 575 563 661 563 694 563 c 0
 727 563 781 563 811 565 c 1
 811 527 l 1
 815 527 l 1
 821 527 745 528 746 529 c 1
 747 530 747 531 747 534 c 1
 747 81 l 1
 747 84 747 85 746 86 c 1
 744 87 821 88 815 88 c 1
 811 88 l 1
 811 50 l 1
 781 52 727 52 694 52 c 0
 661 52 606 52 576 50 c 1
 576 88 l 1
 573 88 l 1
 568 88 644 87 642 86 c 1
 640 85 640 84 640 81 c 1
 640 534 l 1
 640 531 640 529 642 528 c 1
 644 527 619 527 624 527 c 1
 570 527 569 526 567 518 c 2
 435 65 l 2
 428 45 416 46 405 46 c 0
 383 46 379 52 375 66 c 2
 236 533 l 1
 237 529 180 527 189 527 c 1
EndSplineSet
Colour: ffff
EndChar
StartChar: uF26FD
Encoding: 993021 993021 1881
Width: 1000
VWidth: 1000
Flags: MW
LayerCount: 2
Fore
SplineSet
38 301 m 0
 38 407 61 591 217 746 c 0
 235 763 277 800 294 800 c 0
 302 800 312 797 312 786 c 0
 312 781 311 780 296 765 c 0
 186 654 135 497 135 300 c 0
 135 212 147 120 173 41 c 0
 215 -87 280 -148 309 -175 c 0
 309 -176 312 -180 312 -185 c 0
 312 -196 302 -199 294 -199 c 0
 275 -199 184 -132 118 -17 c 0
 71 66 38 176 38 301 c 0
688 -185 m 0
 688 -180 689 -179 704 -164 c 0
 814 -53 865 104 865 301 c 0
 865 458 831 635 705 763 c 0
 688 779 688 781 688 786 c 0
 688 797 698 800 706 800 c 0
 725 800 816 733 882 618 c 0
 929 535 962 425 962 300 c 0
 962 194 939 10 783 -145 c 0
 765 -162 723 -199 706 -199 c 0
 698 -199 688 -196 688 -185 c 0
651 80 m 1
 651 84 683 86 677 87 c 1
 671 86 703 84 703 80 c 1
 703 534 l 1
 703 530 671 528 677 527 c 1
 683 528 651 530 651 534 c 1
 651 80 l 1
522 80 m 1
 522 84 553 86 547 87 c 1
 541 86 573 84 573 80 c 1
 573 534 l 1
 573 530 541 528 547 527 c 1
 553 528 522 530 522 534 c 1
 522 80 l 1
153 527 m 1
 153 565 l 1
 170 563 204 562 222 562 c 0
 240 562 282 563 299 565 c 1
 299 527 l 1
 299 527 261 526 261 527 c 1
 261 528 l 1
 327 203 l 1
 396 523 l 1
 396 522 396 522 396 521 c 1
 382 528 369 527 360 527 c 1
 360 565 l 1
 373 565 397 562 415 562 c 0
 433 562 715 562 741 562 c 0
 768 562 823 563 847 565 c 1
 847 527 l 1
 851 527 l 1
 862 527 781 529 781 534 c 1
 781 80 l 1
 781 85 862 87 851 87 c 1
 847 87 l 1
 847 50 l 1
 823 52 767 52 741 52 c 0
 714 52 508 52 482 52 c 0
 455 52 400 52 376 50 c 1
 376 87 l 1
 373 87 l 1
 362 87 443 85 443 80 c 1
 443 534 l 1
 443 531 443 529 445 528 c 1
 434 527 428 527 427 524 c 1
 425 520 423 516 422 510 c 2
 326 64 l 2
 322 52 323 44 308 44 c 0
 295 44 293 50 290 63 c 2
 190 528 l 1
 190 527 152 527 153 527 c 1
EndSplineSet
EndChar
StartChar: uF26FF
Encoding: 993023 993023 1883
Width: 1000
Flags: MW
LayerCount: 2
Fore
SplineSet
38 301 m 0
 38 407 61 591 217 746 c 0
 235 763 277 800 294 800 c 0
 302 800 312 797 312 786 c 0
 312 781 311 780 296 765 c 0
 186 654 135 497 135 300 c 0
 135 212 147 120 173 41 c 0
 215 -87 280 -148 309 -175 c 0
 309 -176 312 -180 312 -185 c 0
 312 -196 302 -199 294 -199 c 0
 275 -199 184 -132 118 -17 c 0
 71 66 38 176 38 301 c 0
688 -185 m 0
 688 -180 689 -179 704 -164 c 0
 814 -53 865 104 865 301 c 0
 865 458 831 635 705 763 c 0
 688 779 688 781 688 786 c 0
 688 797 698 800 706 800 c 0
 725 800 816 733 882 618 c 0
 929 535 962 425 962 300 c 0
 962 194 939 10 783 -145 c 0
 765 -162 723 -199 706 -199 c 0
 698 -199 688 -196 688 -185 c 0
213 50 m 1
 213 88 l 1
 211 88 233 87 231 87 c 1
 244 87 260 87 275 87 c 0
 298 87 298 87 304 96 c 2
 450 298 l 1
 290 533 l 1
 293 529 212 527 220 527 c 1
 223 527 l 1
 223 565 l 1
 247 563 312 563 341 563 c 0
 373 563 443 563 473 565 c 1
 473 527 l 1
 479 527 412 530 412 532 c 1
 412 533 411 534 411 534 c 1
 514 386 l 1
 609 518 l 2
 610 519 613 524 614 524 c 1
 585 530 556 527 546 527 c 1
 546 565 l 1
 571 563 628 563 655 563 c 0
 688 563 722 562 752 565 c 1
 752 527 l 1
 753 527 730 528 731 528 c 1
 711 528 708 529 690 527 c 0
 665 526 667 528 660 518 c 2
 538 349 l 1
 720 82 l 1
 717 87 797 88 790 88 c 1
 787 88 l 1
 787 50 l 1
 763 52 697 52 669 52 c 0
 637 52 568 52 538 50 c 1
 538 88 l 1
 532 88 598 85 598 83 c 1
 598 83 599 83 599 82 c 1
 475 263 l 1
 357 97 l 2
 356 96 352 91 351 91 c 1
 380 84 411 88 420 88 c 1
 420 50 l 1
 395 52 338 52 310 52 c 0
 278 52 243 53 213 50 c 1
EndSplineSet
Colour: ffff
EndChar
StartChar: uF2701
Encoding: 993025 993025 1885
Width: 1000
VWidth: 1000
Flags: MW
LayerCount: 2
Fore
SplineSet
38 301 m 0
 38 407 61 591 217 746 c 0
 235 763 277 800 294 800 c 0
 302 800 312 797 312 786 c 0
 312 781 311 780 296 765 c 0
 186 654 135 497 135 300 c 0
 135 212 147 120 173 41 c 0
 215 -87 280 -148 309 -175 c 0
 309 -176 312 -180 312 -185 c 0
 312 -196 302 -199 294 -199 c 0
 275 -199 184 -132 118 -17 c 0
 71 66 38 176 38 301 c 0
688 -185 m 0
 688 -180 689 -179 704 -164 c 0
 814 -53 865 104 865 301 c 0
 865 458 831 635 705 763 c 0
 688 779 688 781 688 786 c 0
 688 797 698 800 706 800 c 0
 725 800 816 733 882 618 c 0
 929 535 962 425 962 300 c 0
 962 194 939 10 783 -145 c 0
 765 -162 723 -199 706 -199 c 0
 698 -199 688 -196 688 -185 c 0
643 81 m 1
 643 84 643 85 642 86 c 1
 641 87 671 88 669 88 c 1
 667 88 698 86 697 86 c 1
 695 85 695 84 695 81 c 1
 695 534 l 1
 695 531 695 529 697 528 c 1
 698 528 667 527 669 527 c 1
 671 527 641 528 642 529 c 1
 643 530 643 531 643 534 c 1
 643 81 l 1
391 369 m 1
 521 82 l 1
 520 85 531 87 528 87 c 1
 527 87 539 86 538 86 c 1
 536 85 536 84 536 81 c 1
 536 534 l 1
 536 531 536 529 538 528 c 1
 539 528 531 528 532 528 c 1
 511 528 509 528 491 527 c 0
 466 526 466 529 461 518 c 2
 391 369 l 1
151 50 m 1
 151 88 l 1
 149 88 154 87 152 87 c 1
 165 87 164 87 179 87 c 0
 202 87 203 86 208 96 c 2
 303 293 l 1
 194 533 l 1
 197 529 150 527 158 527 c 1
 161 527 l 1
 161 565 l 1
 185 563 216 563 245 563 c 0
 277 563 331 563 361 565 c 1
 361 527 l 1
 367 527 316 530 316 532 c 1
 316 533 315 534 315 534 c 1
 365 425 l 1
 409 518 l 2
 409 519 414 524 415 524 c 1
 386 530 390 527 380 527 c 1
 380 565 l 1
 405 563 429 563 456 563 c 0
 489 563 716 563 749 563 c 0
 782 563 819 563 849 565 c 1
 849 527 l 1
 853 527 l 1
 859 527 800 528 801 529 c 1
 802 530 802 531 802 534 c 1
 802 81 l 1
 802 84 801 85 800 86 c 1
 798 87 859 88 853 88 c 1
 849 88 l 1
 849 50 l 1
 819 52 782 52 749 52 c 0
 716 52 497 52 469 52 c 0
 437 52 394 52 364 50 c 1
 364 88 l 1
 358 88 399 85 399 83 c 1
 399 83 399 83 399 82 c 1
 328 238 l 1
 261 97 l 2
 260 95 257 91 256 91 c 1
 285 84 307 88 316 88 c 1
 316 50 l 1
 291 52 242 52 214 52 c 0
 182 52 181 53 151 50 c 1
EndSplineSet
Colour: ffff
EndChar
StartChar: uF2702
Encoding: 993026 993026 1886
Width: 1000
Flags: MW
LayerCount: 2
Fore
SplineSet
38 301 m 0
 38 407 61 591 217 746 c 0
 235 763 277 800 294 800 c 0
 302 800 312 797 312 786 c 0
 312 781 311 780 296 765 c 0
 186 654 135 497 135 300 c 0
 135 212 147 120 173 41 c 0
 215 -87 280 -148 309 -175 c 0
 309 -176 312 -180 312 -185 c 0
 312 -196 302 -199 294 -199 c 0
 275 -199 184 -132 118 -17 c 0
 71 66 38 176 38 301 c 0
688 -185 m 0
 688 -180 689 -179 704 -164 c 0
 814 -53 865 104 865 301 c 0
 865 458 831 635 705 763 c 0
 688 779 688 781 688 786 c 0
 688 797 698 800 706 800 c 0
 725 800 816 733 882 618 c 0
 929 535 962 425 962 300 c 0
 962 194 939 10 783 -145 c 0
 765 -162 723 -199 706 -199 c 0
 698 -199 688 -196 688 -185 c 0
695 83 m 1
 695 86 695 88 694 89 c 1
 692 90 725 90 723 89 c 1
 721 88 721 86 721 83 c 1
 721 537 l 1
 721 534 721 532 723 531 c 1
 725 530 693 531 694 532 c 1
 695 533 695 534 695 537 c 1
 695 83 l 1
578 83 m 1
 578 86 577 88 576 89 c 1
 574 90 608 90 606 89 c 1
 604 88 604 86 604 83 c 1
 604 537 l 1
 604 534 604 532 606 531 c 1
 608 530 576 531 577 532 c 1
 578 533 578 534 578 537 c 1
 578 83 l 1
356 370 m 1
 474 85 l 1
 472 90 479 89 479 89 c 1
 477 88 486 86 486 83 c 1
 486 534 l 1
 486 531 486 529 488 528 c 1
 488 528 475 528 477 529 c 1
 465 529 442 529 433 528 c 0
 423 528 417 530 413 518 c 2
 356 370 l 1
154 50 m 1
 154 88 l 1
 152 88 157 87 155 87 c 1
 160 87 168 87 175 88 c 0
 187 90 193 87 197 96 c 2
 275 290 l 1
 183 533 l 1
 185 528 153 527 161 527 c 1
 164 527 l 1
 164 565 l 1
 188 563 205 563 234 563 c 0
 266 563 274 563 304 565 c 1
 304 527 l 1
 310 527 290 529 290 531 c 1
 290 532 289 534 289 534 c 1
 331 436 l 1
 362 518 l 2
 362 519 363 521 363 524 c 1
 360 526 357 527 347 527 c 1
 347 565 l 1
 372 563 382 563 409 563 c 0
 442 563 726 565 759 565 c 0
 792 565 816 566 846 568 c 1
 846 530 l 1
 850 530 l 1
 856 530 811 531 812 532 c 1
 813 533 813 534 813 537 c 1
 813 83 l 1
 813 86 812 88 811 89 c 1
 809 90 856 90 850 90 c 1
 846 90 l 1
 846 53 l 1
 816 55 792 55 759 55 c 0
 726 55 450 52 422 52 c 0
 390 52 352 52 322 50 c 1
 322 88 l 1
 316 88 351 86 351 84 c 1
 351 84 352 83 352 82 c 1
 299 222 l 1
 250 97 l 2
 250 96 249 92 248 92 c 1
 248 88 272 88 282 88 c 1
 282 50 l 1
 257 52 231 52 203 52 c 0
 171 52 184 53 154 50 c 1
EndSplineSet
Colour: ffff
EndChar
StartChar: uF2703
Encoding: 993027 993027 1887
Width: 1000
VWidth: 1000
Flags: MW
LayerCount: 2
Fore
SplineSet
38 301 m 0
 38 407 61 591 217 746 c 0
 235 763 277 800 294 800 c 0
 302 800 312 797 312 786 c 0
 312 781 311 780 296 765 c 0
 186 654 135 497 135 300 c 0
 135 212 147 120 173 41 c 0
 215 -87 280 -148 309 -175 c 0
 309 -176 312 -180 312 -185 c 0
 312 -196 302 -199 294 -199 c 0
 275 -199 184 -132 118 -17 c 0
 71 66 38 176 38 301 c 0
688 -185 m 0
 688 -180 689 -179 704 -164 c 0
 814 -53 865 104 865 301 c 0
 865 458 831 635 705 763 c 0
 688 779 688 781 688 786 c 0
 688 797 698 800 706 800 c 0
 725 800 816 733 882 618 c 0
 929 535 962 425 962 300 c 0
 962 194 939 10 783 -145 c 0
 765 -162 723 -199 706 -199 c 0
 698 -199 688 -196 688 -185 c 0
351 389 m 1
 464 82 l 1
 463 85 472 87 469 87 c 1
 467 87 483 86 482 86 c 1
 480 85 480 84 480 81 c 1
 480 534 l 1
 480 531 480 529 482 528 c 1
 483 528 472 528 474 528 c 1
 474 528 l 1
 454 528 453 527 435 526 c 0
 410 525 408 530 403 518 c 2
 351 389 l 1
153 50 m 1
 153 88 l 1
 151 88 157 87 155 87 c 1
 158 87 165 88 168 88 c 0
 172 88 178 90 181 96 c 2
 265 303 l 1
 184 533 l 1
 186 528 155 527 160 527 c 1
 162 527 l 1
 162 565 l 1
 186 563 206 563 235 563 c 0
 267 563 285 563 315 565 c 1
 315 527 l 1
 320 527 300 529 300 531 c 1
 300 532 298 533 298 534 c 1
 326 457 l 1
 352 518 l 2
 352 519 351 524 352 524 c 1
 350 527 346 527 335 527 c 1
 335 565 l 1
 360 563 372 563 399 563 c 0
 432 563 633 563 659 563 c 0
 690 563 714 563 741 565 c 1
 741 527 l 1
 745 527 721 527 721 530 c 1
 721 531 721 532 721 534 c 1
 749 306 l 1
 778 516 l 2
 778 518 779 523 779 525 c 0
 779 529 765 527 765 527 c 1
 765 565 l 1
 773 562 783 563 795 563 c 0
 814 563 827 563 847 565 c 1
 847 527 l 1
 848 527 834 527 835 527 c 1
 827 528 823 525 822 518 c 2
 749 65 l 2
 746 44 729 46 718 46 c 0
 696 46 690 52 688 66 c 2
 608 533 l 1
 609 530 596 528 599 528 c 1
 601 528 585 528 586 529 c 1
 587 530 587 531 587 534 c 1
 587 81 l 1
 587 84 587 85 586 86 c 1
 584 87 644 88 638 88 c 1
 634 88 l 1
 634 50 l 1
 604 52 566 52 533 52 c 0
 500 52 440 52 412 52 c 0
 380 52 344 52 314 50 c 1
 314 88 l 1
 308 88 343 86 343 84 c 1
 343 84 344 83 344 82 c 1
 289 234 l 1
 235 97 l 2
 234 95 232 87 231 87 c 1
 236 85 257 88 267 88 c 1
 267 50 l 1
 242 52 216 52 188 52 c 0
 156 52 183 53 153 50 c 1
EndSplineSet
Colour: ffff
EndChar
StartChar: uF2706
Encoding: 993030 993030 1890
Width: 1000
VWidth: 1000
Flags: MW
LayerCount: 2
Fore
SplineSet
38 301 m 0
 38 407 61 591 217 746 c 0
 235 763 277 800 294 800 c 0
 302 800 312 797 312 786 c 0
 312 781 311 780 296 765 c 0
 186 654 135 497 135 300 c 0
 135 212 147 120 173 41 c 0
 215 -87 280 -148 309 -175 c 0
 309 -176 312 -180 312 -185 c 0
 312 -196 302 -199 294 -199 c 0
 275 -199 184 -132 118 -17 c 0
 71 66 38 176 38 301 c 0
688 -185 m 0
 688 -180 689 -179 704 -164 c 0
 814 -53 865 104 865 301 c 0
 865 458 831 635 705 763 c 0
 688 779 688 781 688 786 c 0
 688 797 698 800 706 800 c 0
 725 800 816 733 882 618 c 0
 929 535 962 425 962 300 c 0
 962 194 939 10 783 -145 c 0
 765 -162 723 -199 706 -199 c 0
 698 -199 688 -196 688 -185 c 0
313 50 m 1
 313 88 l 1
 308 88 364 87 363 86 c 1
 362 85 361 84 361 81 c 1
 361 319 l 2
 361 347 356 346 316 346 c 1
 316 383 l 1
 443 389 l 1
 443 81 l 1
 443 84 443 85 442 86 c 1
 441 87 490 88 485 88 c 1
 485 50 l 1
 460 51 420 52 400 52 c 0
 368 52 335 51 313 50 c 1
334 513 m 0
 334 548 360 575 392 575 c 0
 423 575 451 548 451 513 c 0
 451 478 423 451 392 451 c 0
 360 451 334 478 334 513 c 0
515 50 m 1
 515 88 l 1
 510 88 565 87 564 86 c 1
 563 85 563 84 563 81 c 1
 563 319 l 2
 563 347 558 346 518 346 c 1
 518 383 l 1
 644 389 l 1
 644 81 l 1
 644 84 644 85 643 86 c 1
 642 87 692 88 687 88 c 1
 687 50 l 1
 662 51 622 52 602 52 c 0
 570 52 537 51 515 50 c 1
536 513 m 0
 536 548 562 575 594 575 c 0
 625 575 652 548 652 513 c 0
 652 478 625 451 594 451 c 0
 562 451 536 478 536 513 c 0
EndSplineSet
EndChar
StartChar: uF2709
Encoding: 993033 993033 1893
Width: 1000
VWidth: 1000
Flags: MW
LayerCount: 2
Fore
SplineSet
38 301 m 0
 38 407 61 591 217 746 c 0
 235 763 277 800 294 800 c 0
 302 800 312 797 312 786 c 0
 312 781 311 780 296 765 c 0
 186 654 135 497 135 300 c 0
 135 212 147 120 173 41 c 0
 215 -87 280 -148 309 -175 c 0
 309 -176 312 -180 312 -185 c 0
 312 -196 302 -199 294 -199 c 0
 275 -199 184 -132 118 -17 c 0
 71 66 38 176 38 301 c 0
688 -185 m 0
 688 -180 689 -179 704 -164 c 0
 814 -53 865 104 865 301 c 0
 865 458 831 635 705 763 c 0
 688 779 688 781 688 786 c 0
 688 797 698 800 706 800 c 0
 725 800 816 733 882 618 c 0
 929 535 962 425 962 300 c 0
 962 194 939 10 783 -145 c 0
 765 -162 723 -199 706 -199 c 0
 698 -199 688 -196 688 -185 c 0
301 347 m 1
 301 385 l 1
 331 384 364 383 384 383 c 0
 382 383 449 383 473 385 c 1
 473 347 l 1
 476 347 435 347 435 351 c 1
 435 351 435 352 434 354 c 1
 525 150 l 1
 609 337 l 2
 613 344 612 344 612 344 c 0
 612 348 589 347 578 347 c 1
 578 385 l 1
 593 384 625 383 643 383 c 0
 661 383 681 383 699 385 c 1
 699 347 l 1
 654 347 653 347 649 338 c 2
 528 67 l 2
 520 50 512 48 500 48 c 0
 491 48 480 48 471 68 c 2
 344 353 l 1
 345 351 346 349 347 348 c 1
 348 347 297 347 301 347 c 1
EndSplineSet
Colour: ffff
EndChar
StartChar: uF270A
Encoding: 993034 993034 1894
Width: 1000
Flags: MW
LayerCount: 2
Fore
SplineSet
38 301 m 0
 38 407 61 591 217 746 c 0
 235 763 277 800 294 800 c 0
 302 800 312 797 312 786 c 0
 312 781 311 780 296 765 c 0
 186 654 135 497 135 300 c 0
 135 212 147 120 173 41 c 0
 215 -87 280 -148 309 -175 c 0
 309 -176 312 -180 312 -185 c 0
 312 -196 302 -199 294 -199 c 0
 275 -199 184 -132 118 -17 c 0
 71 66 38 176 38 301 c 0
688 -185 m 0
 688 -180 689 -179 704 -164 c 0
 814 -53 865 104 865 301 c 0
 865 458 831 635 705 763 c 0
 688 779 688 781 688 786 c 0
 688 797 698 800 706 800 c 0
 725 800 816 733 882 618 c 0
 929 535 962 425 962 300 c 0
 962 194 939 10 783 -145 c 0
 765 -162 723 -199 706 -199 c 0
 698 -199 688 -196 688 -185 c 0
237 347 m 1
 237 385 l 1
 267 384 299 383 319 383 c 0
 317 383 384 383 408 385 c 1
 408 347 l 1
 411 347 370 347 370 351 c 1
 370 351 371 352 370 354 c 1
 432 168 l 1
 487 337 l 2
 490 345 491 344 491 344 c 0
 491 348 468 347 457 347 c 1
 457 385 l 1
 472 384 503 383 521 383 c 0
 539 383 560 383 578 385 c 1
 578 347 l 1
 533 347 531 347 528 338 c 2
 435 67 l 2
 431 48 418 48 406 48 c 0
 397 48 386 48 377 68 c 2
 279 353 l 1
 280 351 281 349 282 348 c 1
 283 347 233 347 237 347 c 1
592 50 m 1
 592 88 l 1
 587 88 642 87 641 86 c 1
 640 85 640 84 640 81 c 1
 640 319 l 2
 640 347 635 346 595 346 c 1
 595 383 l 1
 721 389 l 1
 721 81 l 1
 721 84 721 85 720 86 c 1
 719 87 768 88 763 88 c 1
 763 50 l 1
 738 51 699 52 679 52 c 0
 647 52 614 51 592 50 c 1
613 513 m 0
 613 548 639 575 671 575 c 0
 702 575 729 548 729 513 c 0
 729 478 702 451 671 451 c 0
 639 451 613 478 613 513 c 0
EndSplineSet
Colour: ffff
EndChar
StartChar: uF270B
Encoding: 993035 993035 1895
Width: 1000
Flags: MW
LayerCount: 2
Fore
SplineSet
38 301 m 0
 38 407 61 591 217 746 c 0
 235 763 277 800 294 800 c 0
 302 800 312 797 312 786 c 0
 312 781 311 780 296 765 c 0
 186 654 135 497 135 300 c 0
 135 212 147 120 173 41 c 0
 215 -87 280 -148 309 -175 c 0
 309 -176 312 -180 312 -185 c 0
 312 -196 302 -199 294 -199 c 0
 275 -199 184 -132 118 -17 c 0
 71 66 38 176 38 301 c 0
688 -185 m 0
 688 -180 689 -179 704 -164 c 0
 814 -53 865 104 865 301 c 0
 865 458 831 635 705 763 c 0
 688 779 688 781 688 786 c 0
 688 797 698 800 706 800 c 0
 725 800 816 733 882 618 c 0
 929 535 962 425 962 300 c 0
 962 194 939 10 783 -145 c 0
 765 -162 723 -199 706 -199 c 0
 698 -199 688 -196 688 -185 c 0
153 347 m 1
 153 385 l 1
 183 384 198 383 218 383 c 0
 216 383 283 383 307 385 c 1
 307 347 l 1
 310 347 270 347 270 351 c 1
 270 351 270 352 269 354 c 1
 331 168 l 1
 386 337 l 2
 389 345 390 344 390 344 c 0
 390 348 368 347 357 347 c 1
 357 385 l 1
 372 384 402 383 420 383 c 0
 438 383 442 383 460 385 c 1
 460 347 l 1
 415 347 430 347 427 338 c 2
 334 67 l 2
 330 48 317 48 305 48 c 0
 296 48 285 48 276 68 c 2
 178 353 l 1
 179 351 180 349 181 348 c 1
 182 347 149 347 153 347 c 1
474 50 m 1
 474 88 l 1
 469 88 525 87 524 86 c 1
 523 85 522 84 522 81 c 1
 522 319 l 2
 522 347 517 346 477 346 c 1
 477 383 l 1
 604 389 l 1
 604 81 l 1
 604 84 603 85 602 86 c 1
 601 87 651 88 646 88 c 1
 646 50 l 1
 621 51 581 52 561 52 c 0
 529 52 496 51 474 50 c 1
495 513 m 0
 495 548 521 575 553 575 c 0
 584 575 611 548 611 513 c 0
 611 478 584 451 553 451 c 0
 521 451 495 478 495 513 c 0
676 50 m 1
 676 88 l 1
 671 88 726 87 725 86 c 1
 724 85 724 84 724 81 c 1
 724 319 l 2
 724 347 719 346 679 346 c 1
 679 383 l 1
 805 389 l 1
 805 81 l 1
 805 84 805 85 804 86 c 1
 803 87 852 88 847 88 c 1
 847 50 l 1
 822 51 783 52 763 52 c 0
 731 52 698 51 676 50 c 1
697 513 m 0
 697 548 723 575 755 575 c 0
 786 575 813 548 813 513 c 0
 813 478 786 451 755 451 c 0
 723 451 697 478 697 513 c 0
EndSplineSet
Colour: ffff
EndChar
StartChar: uF270D
Encoding: 993037 993037 1897
Width: 1000
VWidth: 1000
Flags: MW
LayerCount: 2
Fore
SplineSet
38 301 m 0
 38 407 61 591 217 746 c 0
 235 763 277 800 294 800 c 0
 302 800 312 797 312 786 c 0
 312 781 311 780 296 765 c 0
 186 654 135 497 135 300 c 0
 135 212 147 120 173 41 c 0
 215 -87 280 -148 309 -175 c 0
 309 -176 312 -180 312 -185 c 0
 312 -196 302 -199 294 -199 c 0
 275 -199 184 -132 118 -17 c 0
 71 66 38 176 38 301 c 0
688 -185 m 0
 688 -180 689 -179 704 -164 c 0
 814 -53 865 104 865 301 c 0
 865 458 831 635 705 763 c 0
 688 779 688 781 688 786 c 0
 688 797 698 800 706 800 c 0
 725 800 816 733 882 618 c 0
 929 535 962 425 962 300 c 0
 962 194 939 10 783 -145 c 0
 765 -162 723 -199 706 -199 c 0
 698 -199 688 -196 688 -185 c 0
237 50 m 1
 237 88 l 1
 232 88 288 87 287 86 c 1
 286 85 285 84 285 81 c 1
 285 319 l 2
 285 347 280 346 240 346 c 1
 240 383 l 1
 367 389 l 1
 367 81 l 1
 367 84 367 85 366 86 c 1
 365 87 414 88 409 88 c 1
 409 50 l 1
 384 51 344 52 324 52 c 0
 292 52 259 51 237 50 c 1
258 513 m 0
 258 548 284 575 316 575 c 0
 347 575 375 548 375 513 c 0
 375 478 347 451 316 451 c 0
 284 451 258 478 258 513 c 0
421 50 m 1
 421 88 l 1
 458 88 486 88 489 96 c 1
 554 206 l 1
 468 356 l 1
 471 352 472 350 474 349 c 1
 476 347 421 347 426 347 c 1
 426 385 l 1
 450 384 480 383 504 383 c 0
 529 383 572 384 590 385 c 1
 590 347 l 1
 593 347 562 349 562 351 c 1
 562 352 561 352 560 354 c 1
 601 283 l 1
 632 337 l 2
 636 339 631 340 634 343 c 1
 624 347 618 347 609 347 c 1
 609 385 l 1
 631 384 666 383 683 383 c 0
 684 383 722 383 748 385 c 1
 748 347 l 1
 685 347 687 341 679 336 c 1
 682 340 624 243 624 243 c 1
 716 83 l 1
 712 87 771 88 763 88 c 1
 763 50 l 1
 739 51 707 52 684 52 c 0
 659 52 616 51 598 50 c 1
 598 88 l 1
 594 88 625 85 625 84 c 1
 625 83 627 81 628 79 c 1
 578 165 l 1
 578 165 537 96 539 99 c 1
 535 92 536 93 536 93 c 0
 536 90 549 88 561 88 c 1
 561 50 l 1
 548 51 504 52 487 52 c 0
 486 52 447 52 421 50 c 1
EndSplineSet
EndChar
StartChar: uF270E
Encoding: 993038 993038 1898
Width: 1000
VWidth: 1000
Flags: MW
LayerCount: 2
Fore
SplineSet
38 301 m 0
 38 407 61 591 217 746 c 0
 235 763 277 800 294 800 c 0
 302 800 312 797 312 786 c 0
 312 781 311 780 296 765 c 0
 186 654 135 497 135 300 c 0
 135 212 147 120 173 41 c 0
 215 -87 280 -148 309 -175 c 0
 309 -176 312 -180 312 -185 c 0
 312 -196 302 -199 294 -199 c 0
 275 -199 184 -132 118 -17 c 0
 71 66 38 176 38 301 c 0
688 -185 m 0
 688 -180 689 -179 704 -164 c 0
 814 -53 865 104 865 301 c 0
 865 458 831 635 705 763 c 0
 688 779 688 781 688 786 c 0
 688 797 698 800 706 800 c 0
 725 800 816 733 882 618 c 0
 929 535 962 425 962 300 c 0
 962 194 939 10 783 -145 c 0
 765 -162 723 -199 706 -199 c 0
 698 -199 688 -196 688 -185 c 0
298 50 m 1
 298 88 l 1
 335 88 358 88 366 96 c 1
 462 210 l 1
 345 356 l 1
 348 352 350 350 352 349 c 1
 354 347 298 347 303 347 c 1
 303 385 l 1
 327 384 358 383 382 383 c 0
 407 383 450 384 468 385 c 1
 468 347 l 1
 471 347 439 349 439 351 c 1
 439 352 439 352 438 354 c 1
 509 265 l 1
 571 338 l 2
 574 341 572 341 575 344 c 1
 565 348 557 347 548 347 c 1
 548 385 l 1
 570 384 605 383 622 383 c 0
 623 383 661 383 687 385 c 1
 687 347 l 1
 624 347 625 343 618 336 c 1
 621 340 528 230 532 236 c 1
 654 83 l 1
 651 87 710 88 702 88 c 1
 702 50 l 1
 678 51 646 52 623 52 c 0
 598 52 555 51 537 50 c 1
 537 88 l 1
 533 88 564 85 564 84 c 1
 564 83 566 81 567 79 c 1
 485 181 l 1
 491 189 414 96 416 99 c 1
 411 93 410 93 410 93 c 0
 410 90 426 88 438 88 c 1
 438 50 l 1
 425 51 381 52 364 52 c 0
 363 52 324 52 298 50 c 1
EndSplineSet
EndChar
StartChar: uF270F
Encoding: 993039 993039 1899
Width: 1000
VWidth: 1000
Flags: MW
LayerCount: 2
Fore
SplineSet
38 301 m 0
 38 407 61 591 217 746 c 0
 235 763 277 800 294 800 c 0
 302 800 312 797 312 786 c 0
 312 781 311 780 296 765 c 0
 186 654 135 497 135 300 c 0
 135 212 147 120 173 41 c 0
 215 -87 280 -148 309 -175 c 0
 309 -176 312 -180 312 -185 c 0
 312 -196 302 -199 294 -199 c 0
 275 -199 184 -132 118 -17 c 0
 71 66 38 176 38 301 c 0
688 -185 m 0
 688 -180 689 -179 704 -164 c 0
 814 -53 865 104 865 301 c 0
 865 458 831 635 705 763 c 0
 688 779 688 781 688 786 c 0
 688 797 698 800 706 800 c 0
 725 800 816 733 882 618 c 0
 929 535 962 425 962 300 c 0
 962 194 939 10 783 -145 c 0
 765 -162 723 -199 706 -199 c 0
 698 -199 688 -196 688 -185 c 0
237 50 m 1
 237 88 l 1
 274 88 302 88 305 96 c 1
 370 206 l 1
 284 356 l 1
 287 352 289 350 291 349 c 1
 293 347 237 347 242 347 c 1
 242 385 l 1
 266 384 297 383 321 383 c 0
 346 383 388 384 406 385 c 1
 406 347 l 1
 409 347 378 349 378 351 c 1
 378 352 378 352 377 354 c 1
 417 283 l 1
 448 337 l 2
 452 339 447 340 450 343 c 1
 440 347 434 347 425 347 c 1
 425 385 l 1
 447 384 482 383 499 383 c 0
 500 383 539 383 565 385 c 1
 565 347 l 1
 502 347 504 341 496 336 c 1
 499 340 440 243 440 243 c 1
 532 83 l 1
 528 87 587 88 579 88 c 1
 579 50 l 1
 555 51 523 52 500 52 c 0
 475 52 432 51 414 50 c 1
 414 88 l 1
 410 88 441 85 441 84 c 1
 441 83 443 81 444 79 c 1
 394 165 l 1
 394 165 353 96 355 99 c 1
 351 92 352 93 352 93 c 0
 352 90 365 88 377 88 c 1
 377 50 l 1
 364 51 320 52 303 52 c 0
 302 52 263 52 237 50 c 1
591 50 m 1
 591 88 l 1
 586 88 641 87 640 86 c 1
 639 85 639 84 639 81 c 1
 639 319 l 2
 639 347 634 346 594 346 c 1
 594 383 l 1
 720 389 l 1
 720 81 l 1
 720 84 720 85 719 86 c 1
 718 87 768 88 763 88 c 1
 763 50 l 1
 738 51 698 52 678 52 c 0
 646 52 613 51 591 50 c 1
612 513 m 0
 612 548 638 575 670 575 c 0
 701 575 728 548 728 513 c 0
 728 478 701 451 670 451 c 0
 638 451 612 478 612 513 c 0
EndSplineSet
EndChar
StartChar: uF2710
Encoding: 993040 993040 1900
Width: 1000
VWidth: 1000
Flags: MW
LayerCount: 2
Fore
SplineSet
38 301 m 0
 38 407 61 591 217 746 c 0
 235 763 277 800 294 800 c 0
 302 800 312 797 312 786 c 0
 312 781 311 780 296 765 c 0
 186 654 135 497 135 300 c 0
 135 212 147 120 173 41 c 0
 215 -87 280 -148 309 -175 c 0
 309 -176 312 -180 312 -185 c 0
 312 -196 302 -199 294 -199 c 0
 275 -199 184 -132 118 -17 c 0
 71 66 38 176 38 301 c 0
688 -185 m 0
 688 -180 689 -179 704 -164 c 0
 814 -53 865 104 865 301 c 0
 865 458 831 635 705 763 c 0
 688 779 688 781 688 786 c 0
 688 797 698 800 706 800 c 0
 725 800 816 733 882 618 c 0
 929 535 962 425 962 300 c 0
 962 194 939 10 783 -145 c 0
 765 -162 723 -199 706 -199 c 0
 698 -199 688 -196 688 -185 c 0
153 50 m 1
 153 88 l 1
 190 88 210 88 213 96 c 1
 278 206 l 1
 191 356 l 1
 194 352 196 350 198 349 c 1
 200 347 153 347 158 347 c 1
 158 385 l 1
 182 384 204 383 228 383 c 0
 253 383 296 384 314 385 c 1
 314 347 l 1
 317 347 285 349 285 351 c 1
 285 352 285 352 284 354 c 1
 324 283 l 1
 356 337 l 2
 360 339 355 340 358 343 c 1
 348 347 342 347 333 347 c 1
 333 385 l 1
 355 384 389 383 406 383 c 0
 407 383 438 383 464 385 c 1
 464 347 l 1
 401 347 411 341 403 336 c 1
 406 340 347 243 347 243 c 1
 439 83 l 1
 435 87 486 88 478 88 c 1
 478 50 l 1
 454 51 431 52 408 52 c 0
 383 52 340 51 322 50 c 1
 322 88 l 1
 318 88 349 85 349 84 c 1
 349 83 351 81 352 79 c 1
 301 165 l 1
 301 165 261 96 263 99 c 1
 259 92 259 93 259 93 c 0
 259 90 273 88 285 88 c 1
 285 50 l 1
 272 51 227 52 210 52 c 0
 209 52 179 52 153 50 c 1
490 50 m 1
 490 88 l 1
 485 88 540 87 539 86 c 1
 538 85 538 84 538 81 c 1
 538 319 l 2
 538 347 533 346 493 346 c 1
 493 383 l 1
 620 389 l 1
 620 81 l 1
 620 84 619 85 618 86 c 1
 617 87 667 88 662 88 c 1
 662 50 l 1
 637 51 597 52 577 52 c 0
 545 52 512 51 490 50 c 1
511 513 m 0
 511 548 537 575 569 575 c 0
 600 575 627 548 627 513 c 0
 627 478 600 451 569 451 c 0
 537 451 511 478 511 513 c 0
675 50 m 1
 675 88 l 1
 670 88 725 87 724 86 c 1
 723 85 723 84 723 81 c 1
 723 319 l 2
 723 347 718 346 678 346 c 1
 678 383 l 1
 804 389 l 1
 804 81 l 1
 804 84 804 85 803 86 c 1
 802 87 852 88 847 88 c 1
 847 50 l 1
 822 51 782 52 762 52 c 0
 730 52 697 51 675 50 c 1
696 513 m 0
 696 548 722 575 754 575 c 0
 785 575 812 548 812 513 c 0
 812 478 785 451 754 451 c 0
 722 451 696 478 696 513 c 0
EndSplineSet
EndChar
StartChar: uF2712
Encoding: 993042 993042 1902
Width: 1000
VWidth: 1000
Flags: MW
LayerCount: 2
Fore
SplineSet
38 301 m 0
 38 407 61 591 217 746 c 0
 235 763 277 800 294 800 c 0
 302 800 312 797 312 786 c 0
 312 781 311 780 296 765 c 0
 186 654 135 497 135 300 c 0
 135 212 147 120 173 41 c 0
 215 -87 280 -148 309 -175 c 0
 309 -176 312 -180 312 -185 c 0
 312 -196 302 -199 294 -199 c 0
 275 -199 184 -132 118 -17 c 0
 71 66 38 176 38 301 c 0
688 -185 m 0
 688 -180 689 -179 704 -164 c 0
 814 -53 865 104 865 301 c 0
 865 458 831 635 705 763 c 0
 688 779 688 781 688 786 c 0
 688 797 698 800 706 800 c 0
 725 800 816 733 882 618 c 0
 929 535 962 425 962 300 c 0
 962 194 939 10 783 -145 c 0
 765 -162 723 -199 706 -199 c 0
 698 -199 688 -196 688 -185 c 0
155 50 m 1
 155 88 l 1
 192 88 192 88 195 96 c 1
 260 206 l 1
 174 356 l 1
 177 352 179 350 181 349 c 1
 183 347 155 347 160 347 c 1
 160 385 l 1
 184 384 187 383 211 383 c 0
 236 383 278 384 296 385 c 1
 296 347 l 1
 299 347 268 349 268 351 c 1
 268 352 267 352 266 354 c 1
 307 283 l 1
 338 337 l 2
 342 339 337 340 340 343 c 1
 330 347 324 347 315 347 c 1
 315 385 l 1
 337 384 372 383 389 383 c 0
 390 383 401 383 427 385 c 1
 427 347 l 1
 398 347 393 341 385 336 c 1
 388 340 330 243 330 243 c 1
 422 83 l 1
 418 87 449 88 441 88 c 1
 441 50 l 1
 417 51 413 52 390 52 c 0
 365 52 322 51 304 50 c 1
 304 88 l 1
 300 88 331 85 331 84 c 1
 331 83 333 81 334 79 c 1
 284 165 l 1
 284 165 243 96 245 99 c 1
 241 92 242 93 242 93 c 0
 242 90 255 88 267 88 c 1
 267 50 l 1
 254 51 210 52 193 52 c 0
 192 52 181 52 155 50 c 1
452 50 m 1
 452 88 l 1
 447 88 488 87 487 86 c 1
 486 85 486 84 486 81 c 1
 486 319 l 2
 486 347 482 346 455 346 c 1
 455 383 l 1
 567 389 l 1
 567 81 l 1
 567 84 567 85 566 86 c 1
 565 87 600 88 595 88 c 1
 595 50 l 1
 570 51 545 52 525 52 c 0
 493 52 474 51 452 50 c 1
459 513 m 0
 459 548 485 575 517 575 c 0
 548 575 575 548 575 513 c 0
 575 478 548 451 517 451 c 0
 485 451 459 478 459 513 c 0
599 347 m 1
 599 385 l 1
 629 384 630 383 650 383 c 0
 648 383 698 383 722 385 c 1
 722 347 l 1
 725 347 702 347 702 351 c 1
 702 351 702 352 701 354 c 1
 745 190 l 1
 786 337 l 2
 788 345 787 347 787 347 c 0
 787 351 783 347 772 347 c 1
 772 385 l 1
 787 384 801 383 819 383 c 0
 837 383 827 383 845 385 c 1
 845 347 l 1
 829 347 829 347 826 338 c 2
 750 67 l 2
 746 48 734 48 722 48 c 0
 713 48 702 48 693 68 c 2
 611 353 l 1
 612 351 613 349 614 348 c 1
 615 347 595 347 599 347 c 1
EndSplineSet
EndChar
StartChar: uF2713
Encoding: 993043 993043 1903
Width: 1000
VWidth: 1000
Flags: MW
LayerCount: 2
Fore
SplineSet
38 301 m 0
 38 407 61 591 217 746 c 0
 235 763 277 800 294 800 c 0
 302 800 312 797 312 786 c 0
 312 781 311 780 296 765 c 0
 186 654 135 497 135 300 c 0
 135 212 147 120 173 41 c 0
 215 -87 280 -148 309 -175 c 0
 309 -176 312 -180 312 -185 c 0
 312 -196 302 -199 294 -199 c 0
 275 -199 184 -132 118 -17 c 0
 71 66 38 176 38 301 c 0
688 -185 m 0
 688 -180 689 -179 704 -164 c 0
 814 -53 865 104 865 301 c 0
 865 458 831 635 705 763 c 0
 688 779 688 781 688 786 c 0
 688 797 698 800 706 800 c 0
 725 800 816 733 882 618 c 0
 929 535 962 425 962 300 c 0
 962 194 939 10 783 -145 c 0
 765 -162 723 -199 706 -199 c 0
 698 -199 688 -196 688 -185 c 0
153 50 m 1
 153 88 l 1
 190 88 223 88 226 96 c 1
 292 206 l 1
 205 356 l 1
 208 352 210 350 212 349 c 1
 214 347 153 347 158 347 c 1
 158 385 l 1
 182 384 218 383 242 383 c 0
 267 383 310 384 328 385 c 1
 328 347 l 1
 331 347 299 349 299 351 c 1
 299 352 299 352 298 354 c 1
 338 283 l 1
 370 337 l 2
 374 339 369 340 372 343 c 1
 362 347 355 347 346 347 c 1
 346 385 l 1
 368 384 403 383 420 383 c 0
 421 383 466 383 492 385 c 1
 492 347 l 1
 429 347 425 341 417 336 c 1
 420 340 361 243 361 243 c 1
 453 83 l 1
 449 87 514 88 506 88 c 1
 506 50 l 1
 482 51 444 52 421 52 c 0
 396 52 354 51 336 50 c 1
 336 88 l 1
 332 88 363 85 363 84 c 1
 363 83 365 81 366 79 c 1
 315 165 l 1
 315 165 274 96 276 99 c 1
 272 92 273 93 273 93 c 0
 273 90 286 88 298 88 c 1
 298 50 l 1
 285 51 241 52 224 52 c 0
 223 52 179 52 153 50 c 1
506 347 m 1
 506 385 l 1
 536 384 568 383 588 383 c 0
 586 383 653 383 677 385 c 1
 677 347 l 1
 680 347 640 347 640 351 c 1
 640 351 640 352 639 354 c 1
 701 168 l 1
 757 337 l 2
 760 345 760 344 760 344 c 0
 760 348 738 347 727 347 c 1
 727 385 l 1
 742 384 773 383 791 383 c 0
 809 383 829 383 847 385 c 1
 847 347 l 1
 802 347 801 347 798 338 c 2
 704 67 l 2
 700 48 688 48 676 48 c 0
 667 48 656 48 647 68 c 2
 548 353 l 1
 549 351 551 349 552 348 c 1
 553 347 502 347 506 347 c 1
EndSplineSet
Colour: ffff
EndChar
StartChar: uF2715
Encoding: 993045 993045 1905
Width: 1000
Flags: MW
LayerCount: 2
Fore
SplineSet
38 301 m 0
 38 407 61 591 217 746 c 0
 235 763 277 800 294 800 c 0
 302 800 312 797 312 786 c 0
 312 781 311 780 296 765 c 0
 186 654 135 497 135 300 c 0
 135 212 147 120 173 41 c 0
 215 -87 280 -148 309 -175 c 0
 309 -176 312 -180 312 -185 c 0
 312 -196 302 -199 294 -199 c 0
 275 -199 184 -132 118 -17 c 0
 71 66 38 176 38 301 c 0
688 -185 m 0
 688 -180 689 -179 704 -164 c 0
 814 -53 865 104 865 301 c 0
 865 458 831 635 705 763 c 0
 688 779 688 781 688 786 c 0
 688 797 698 800 706 800 c 0
 725 800 816 733 882 618 c 0
 929 535 962 425 962 300 c 0
 962 194 939 10 783 -145 c 0
 765 -162 723 -199 706 -199 c 0
 698 -199 688 -196 688 -185 c 0
223 36 m 1
 223 74 l 1
 218 74 l 1
 211 74 309 73 307 72 c 1
 305 71 304 69 304 65 c 1
 304 522 l 1
 304 518 305 515 307 514 c 1
 309 513 211 513 218 513 c 1
 223 513 l 1
 223 550 l 1
 562 550 l 2
 689 550 752 491 752 421 c 0
 752 363 704 318 621 304 c 1
 711 298 777 250 777 176 c 0
 777 101 714 36 584 36 c 2
 223 36 l 1
413 66 m 1
 413 72 413 74 404 74 c 1
 553 74 l 2
 669 74 658 179 658 177 c 0
 658 179 662 220 638 254 c 0
 610 290 571 289 559 289 c 2
 413 289 l 1
 413 66 l 1
413 319 m 1
 530 319 l 2
 600 319 637 361 637 421 c 0
 637 453 627 513 550 513 c 2
 404 513 l 1
 413 513 413 514 413 520 c 1
 413 319 l 1
EndSplineSet
EndChar
StartChar: uF2717
Encoding: 993047 993047 1907
Width: 1000
VWidth: 1000
Flags: MW
LayerCount: 2
Fore
SplineSet
38 301 m 0
 38 407 61 591 217 746 c 0
 235 763 277 800 294 800 c 0
 302 800 312 797 312 786 c 0
 312 781 311 780 296 765 c 0
 186 654 135 497 135 300 c 0
 135 212 147 120 173 41 c 0
 215 -87 280 -148 309 -175 c 0
 309 -176 312 -180 312 -185 c 0
 312 -196 302 -199 294 -199 c 0
 275 -199 184 -132 118 -17 c 0
 71 66 38 176 38 301 c 0
688 -185 m 0
 688 -180 689 -179 704 -164 c 0
 814 -53 865 104 865 301 c 0
 865 458 831 635 705 763 c 0
 688 779 688 781 688 786 c 0
 688 797 698 800 706 800 c 0
 725 800 816 733 882 618 c 0
 929 535 962 425 962 300 c 0
 962 194 939 10 783 -145 c 0
 765 -162 723 -199 706 -199 c 0
 698 -199 688 -196 688 -185 c 0
198 36 m 1
 198 74 l 1
 194 74 l 1
 187 74 284 73 282 72 c 1
 280 71 280 69 280 65 c 1
 280 522 l 1
 280 518 280 515 282 514 c 1
 284 513 187 513 194 513 c 1
 198 513 l 1
 198 550 l 1
 533 550 l 2
 686 550 802 459 802 288 c 0
 802 123 688 36 534 36 c 2
 198 36 l 1
391 66 m 1
 391 72 391 74 382 74 c 1
 501 74 l 2
 539 74 610 78 651 137 c 0
 674 170 683 208 683 290 c 0
 683 363 676 410 652 446 c 0
 615 498 552 513 501 513 c 2
 382 513 l 1
 391 513 391 514 391 520 c 1
 391 66 l 1
EndSplineSet
EndChar
StartChar: uF2719
Encoding: 993049 993049 1909
Width: 1000
VWidth: 1000
Flags: MW
LayerCount: 2
Fore
SplineSet
38 301 m 0
 38 407 61 591 217 746 c 0
 235 763 277 800 294 800 c 0
 302 800 312 797 312 786 c 0
 312 781 311 780 296 765 c 0
 186 654 135 497 135 300 c 0
 135 212 147 120 173 41 c 0
 215 -87 280 -148 309 -175 c 0
 309 -176 312 -180 312 -185 c 0
 312 -196 302 -199 294 -199 c 0
 275 -199 184 -132 118 -17 c 0
 71 66 38 176 38 301 c 0
688 -185 m 0
 688 -180 689 -179 704 -164 c 0
 814 -53 865 104 865 301 c 0
 865 458 831 635 705 763 c 0
 688 779 688 781 688 786 c 0
 688 797 698 800 706 800 c 0
 725 800 816 733 882 618 c 0
 929 535 962 425 962 300 c 0
 962 194 939 10 783 -145 c 0
 765 -162 723 -199 706 -199 c 0
 698 -199 688 -196 688 -185 c 0
256 35 m 1
 256 73 l 1
 252 73 l 1
 245 73 341 73 339 71 c 1
 337 70 338 68 338 64 c 1
 338 516 l 1
 338 512 338 510 340 509 c 1
 342 508 245 507 252 507 c 1
 256 507 l 1
 256 545 l 1
 720 545 l 1
 744 361 l 1
 704 361 l 1
 693 445 677 507 554 507 c 2
 445 507 l 1
 454 507 454 508 454 514 c 1
 454 310 l 1
 484 310 l 2
 557 310 563 344 563 398 c 1
 602 398 l 1
 602 184 l 1
 563 184 l 1
 563 238 556 272 484 272 c 2
 454 272 l 1
 454 64 l 1
 454 67 455 68 453 70 c 1
 451 72 573 73 563 73 c 1
 556 73 l 1
 556 35 l 1
 522 37 437 37 399 37 c 0
 365 37 284 37 256 35 c 1
EndSplineSet
EndChar
StartChar: uF271C
Encoding: 993052 993052 1912
Width: 1000
Flags: MW
LayerCount: 2
Fore
SplineSet
38 301 m 0
 38 407 61 591 217 746 c 0
 235 763 277 800 294 800 c 0
 302 800 312 797 312 786 c 0
 312 781 311 780 296 765 c 0
 186 654 135 497 135 300 c 0
 135 212 147 120 173 41 c 0
 215 -87 280 -148 309 -175 c 0
 309 -176 312 -180 312 -185 c 0
 312 -196 302 -199 294 -199 c 0
 275 -199 184 -132 118 -17 c 0
 71 66 38 176 38 301 c 0
688 -185 m 0
 688 -180 689 -179 704 -164 c 0
 814 -53 865 104 865 301 c 0
 865 458 831 635 705 763 c 0
 688 779 688 781 688 786 c 0
 688 797 698 800 706 800 c 0
 725 800 816 733 882 618 c 0
 929 535 962 425 962 300 c 0
 962 194 939 10 783 -145 c 0
 765 -162 723 -199 706 -199 c 0
 698 -199 688 -196 688 -185 c 0
355 36 m 1
 355 74 l 1
 350 74 l 1
 343 74 447 73 445 72 c 1
 443 71 442 69 442 65 c 1
 442 522 l 1
 442 518 443 515 445 514 c 1
 447 513 343 513 350 513 c 1
 355 513 l 1
 355 550 l 1
 387 548 465 549 500 549 c 0
 536 549 613 548 645 550 c 1
 645 513 l 1
 650 513 l 1
 658 513 554 513 556 515 c 1
 558 516 558 519 558 522 c 1
 558 65 l 1
 558 69 558 71 556 72 c 1
 554 73 658 74 650 74 c 1
 645 74 l 1
 645 36 l 1
 613 38 535 38 500 38 c 0
 464 38 387 38 355 36 c 1
EndSplineSet
EndChar
StartChar: uF271F
Encoding: 993055 993055 1915
Width: 1000
Flags: MW
LayerCount: 2
Fore
SplineSet
38 301 m 0
 38 407 61 591 217 746 c 0
 235 763 277 800 294 800 c 0
 302 800 312 797 312 786 c 0
 312 781 311 780 296 765 c 0
 186 654 135 497 135 300 c 0
 135 212 147 120 173 41 c 0
 215 -87 280 -148 309 -175 c 0
 309 -176 312 -180 312 -185 c 0
 312 -196 302 -199 294 -199 c 0
 275 -199 184 -132 118 -17 c 0
 71 66 38 176 38 301 c 0
688 -185 m 0
 688 -180 689 -179 704 -164 c 0
 814 -53 865 104 865 301 c 0
 865 458 831 635 705 763 c 0
 688 779 688 781 688 786 c 0
 688 797 698 800 706 800 c 0
 725 800 816 733 882 618 c 0
 929 535 962 425 962 300 c 0
 962 194 939 10 783 -145 c 0
 765 -162 723 -199 706 -199 c 0
 698 -199 688 -196 688 -185 c 0
269 36 m 1
 269 74 l 1
 264 74 l 1
 257 74 354 74 352 72 c 1
 350 71 350 69 350 65 c 1
 350 522 l 1
 350 518 350 515 352 514 c 1
 354 513 258 513 264 513 c 1
 269 513 l 1
 269 550 l 1
 297 548 378 549 412 549 c 0
 450 549 535 548 569 550 c 1
 569 513 l 1
 575 513 l 1
 583 513 462 513 464 514 c 1
 467 516 467 518 467 522 c 1
 467 66 l 1
 467 72 467 74 458 74 c 1
 538 74 l 2
 672 74 686 198 692 244 c 1
 731 244 l 1
 708 36 l 1
 269 36 l 1
EndSplineSet
EndChar
